code-new-roman_italic.sfdir
StartChar: exclam
Encoding: 33 33 352
Width: 1126
Flags: W
LayerCount: 2
Back
Fore
SplineSet
846 1413 m 1,0,-1
 612 383 l 1,1,-1
 459 383 l 1,2,-1
 635 1413 l 1,3,-1
 846 1413 l 1,0,-1
485 246 m 0,4,5
 513 246 513 246 536 235.5 c 128,-1,6
 559 225 559 225 576 207.5 c 128,-1,7
 593 190 593 190 602.5 166.5 c 128,-1,8
 612 143 612 143 612 117 c 0,9,10
 612 88 612 88 601 63.5 c 128,-1,11
 590 39 590 39 571.5 21 c 128,-1,12
 553 3 553 3 528.5 -7.5 c 128,-1,13
 504 -18 504 -18 477 -18 c 0,14,15
 448 -18 448 -18 424.5 -7.5 c 128,-1,16
 401 3 401 3 384 20 c 128,-1,17
 367 37 367 37 357.5 60 c 128,-1,18
 348 83 348 83 348 109 c 0,19,20
 348 138 348 138 359 163 c 128,-1,21
 370 188 370 188 389 206.5 c 128,-1,22
 408 225 408 225 433 235.5 c 128,-1,23
 458 246 458 246 485 246 c 0,4,5
EndSplineSet
EndChar
StartChar: quotedbl
Encoding: 34 34 599
Width: 1126
Flags: W
LayerCount: 2
Back
Fore
SplineSet
659 1413 m 1,0,-1
 537 944 l 1,1,-1
 373 944 l 1,2,-1
 438 1413 l 1,3,-1
 659 1413 l 1,0,-1
1049 1413 m 1,4,-1
 926 944 l 1,5,-1
 762 944 l 1,6,-1
 827 1413 l 1,7,-1
 1049 1413 l 1,4,-1
EndSplineSet
EndChar
StartChar: numbersign
Encoding: 35 35 618
Width: 1126
Flags: W
LayerCount: 2
Back
Fore
SplineSet
1001 367 m 1,0,-1
 778 367 l 1,1,-1
 668 0 l 1,2,-1
 520 0 l 1,3,-1
 630 367 l 1,4,-1
 375 367 l 1,5,-1
 265 0 l 1,6,-1
 117 0 l 1,7,-1
 228 367 l 1,8,-1
 14 367 l 1,9,-1
 41 497 l 1,10,-1
 267 497 l 1,11,-1
 372 847 l 1,12,-1
 162 847 l 1,13,-1
 186 977 l 1,14,-1
 411 977 l 1,15,-1
 510 1307 l 1,16,-1
 658 1307 l 1,17,-1
 559 977 l 1,18,-1
 814 977 l 1,19,-1
 913 1307 l 1,20,-1
 1061 1307 l 1,21,-1
 962 977 l 1,22,-1
 1176 977 l 1,23,-1
 1150 847 l 1,24,-1
 923 847 l 1,25,-1
 817 497 l 1,26,-1
 1027 497 l 1,27,-1
 1001 367 l 1,0,-1
669 497 m 1,28,-1
 775 847 l 1,29,-1
 520 847 l 1,30,-1
 415 497 l 1,31,-1
 669 497 l 1,28,-1
EndSplineSet
EndChar
StartChar: dollar
Encoding: 36 36 609
Width: 1126
Flags: W
LayerCount: 2
Back
Fore
SplineSet
784 1495 m 1,0,-1
 938 1495 l 1,1,-1
 872 1303 l 1,2,3
 923 1298 923 1298 972 1288.5 c 128,-1,4
 1021 1279 1021 1279 1063 1268 c 1,5,-1
 1032 1114 l 1,6,7
 980 1128 980 1128 928.5 1139 c 128,-1,8
 877 1150 877 1150 823 1155 c 1,9,-1
 678 721 l 1,10,11
 745 690 745 690 799.5 657.5 c 128,-1,12
 854 625 854 625 892.5 587 c 128,-1,13
 931 549 931 549 952 504.5 c 128,-1,14
 973 460 973 460 973 406 c 0,15,16
 973 371 973 371 965 328 c 128,-1,17
 957 285 957 285 935.5 241.5 c 128,-1,18
 914 198 914 198 876.5 156.5 c 128,-1,19
 839 115 839 115 779.5 81.5 c 128,-1,20
 720 48 720 48 636 26 c 128,-1,21
 552 4 552 4 438 0 c 1,22,-1
 358 -236 l 1,23,-1
 205 -236 l 1,24,-1
 285 0 l 1,25,26
 204 6 204 6 135.5 18.5 c 128,-1,27
 67 31 67 31 16 45 c 1,28,-1
 49 207 l 1,29,30
 108 187 108 187 176.5 173 c 128,-1,31
 245 159 245 159 336 154 c 1,32,-1
 487 610 l 1,33,34
 425 635 425 635 374 666 c 128,-1,35
 323 697 323 697 286 734.5 c 128,-1,36
 249 772 249 772 229 817.5 c 128,-1,37
 209 863 209 863 209 918 c 0,38,39
 209 1000 209 1000 244.5 1069 c 128,-1,40
 280 1138 280 1138 346 1189 c 128,-1,41
 412 1240 412 1240 507 1270.5 c 128,-1,42
 602 1301 602 1301 721 1307 c 1,43,-1
 784 1495 l 1,0,-1
670 1157 m 1,44,45
 544 1148 544 1148 470.5 1094 c 128,-1,46
 397 1040 397 1040 397 946 c 0,47,48
 397 923 397 923 403.5 900.5 c 128,-1,49
 410 878 410 878 426.5 856.5 c 128,-1,50
 443 835 443 835 471.5 814.5 c 128,-1,51
 500 794 500 794 543 776 c 1,52,-1
 670 1157 l 1,44,45
489 154 m 1,53,54
 574 158 574 158 631.5 180 c 128,-1,55
 689 202 689 202 723 234.5 c 128,-1,56
 757 267 757 267 771.5 306.5 c 128,-1,57
 786 346 786 346 786 385 c 0,58,59
 786 407 786 407 778.5 429 c 128,-1,60
 771 451 771 451 752 472.5 c 128,-1,61
 733 494 733 494 702 514.5 c 128,-1,62
 671 535 671 535 623 555 c 1,63,-1
 489 154 l 1,53,54
EndSplineSet
Substitution2: "'onum' Oldstyle Figures lookup 21 subtable" dollar.oldstyle
EndChar
StartChar: percent
Encoding: 37 37 687
Width: 1126
Flags: W
LayerCount: 2
Back
Fore
SplineSet
692 1204 m 0,0,1
 692 1142 692 1142 673 1075.5 c 128,-1,2
 654 1009 654 1009 614 954 c 128,-1,3
 574 899 574 899 513.5 864 c 128,-1,4
 453 829 453 829 369 829 c 0,5,6
 308 829 308 829 265.5 847 c 128,-1,7
 223 865 223 865 196 896 c 128,-1,8
 169 927 169 927 157 968 c 128,-1,9
 145 1009 145 1009 145 1055 c 0,10,11
 145 1121 145 1121 166 1187.5 c 128,-1,12
 187 1254 187 1254 228 1307 c 128,-1,13
 269 1360 269 1360 330 1393.5 c 128,-1,14
 391 1427 391 1427 471 1427 c 0,15,16
 526 1427 526 1427 567.5 1411 c 128,-1,17
 609 1395 609 1395 636.5 1365.5 c 128,-1,18
 664 1336 664 1336 678 1295 c 128,-1,19
 692 1254 692 1254 692 1204 c 0,0,1
545 1196 m 0,20,21
 545 1214 545 1214 541.5 1232.5 c 128,-1,22
 538 1251 538 1251 528 1266 c 128,-1,23
 518 1281 518 1281 500.5 1290.5 c 128,-1,24
 483 1300 483 1300 455 1300 c 0,25,26
 410 1300 410 1300 379 1273.5 c 128,-1,27
 348 1247 348 1247 328.5 1210 c 128,-1,28
 309 1173 309 1173 300.5 1132 c 128,-1,29
 292 1091 292 1091 292 1063 c 0,30,31
 292 1043 292 1043 295.5 1024 c 128,-1,32
 299 1005 299 1005 309.5 990 c 128,-1,33
 320 975 320 975 338 965.5 c 128,-1,34
 356 956 356 956 385 956 c 0,35,36
 426 956 426 956 456 979 c 128,-1,37
 486 1002 486 1002 506 1037.5 c 128,-1,38
 526 1073 526 1073 535.5 1115.5 c 128,-1,39
 545 1158 545 1158 545 1196 c 0,20,21
1290 1413 m 1,40,-1
 86 0 l 1,41,-1
 -86 0 l 1,42,-1
 1116 1413 l 1,43,-1
 1290 1413 l 1,40,-1
1057 360 m 0,44,45
 1057 298 1057 298 1037.5 232 c 128,-1,46
 1018 166 1018 166 978.5 111 c 128,-1,47
 939 56 939 56 878 21 c 128,-1,48
 817 -14 817 -14 733 -14 c 0,49,50
 672 -14 672 -14 629.5 4 c 128,-1,51
 587 22 587 22 560.5 52.5 c 128,-1,52
 534 83 534 83 522 124 c 128,-1,53
 510 165 510 165 510 211 c 0,54,55
 510 277 510 277 531 343.5 c 128,-1,56
 552 410 552 410 593 463.5 c 128,-1,57
 634 517 634 517 695 550.5 c 128,-1,58
 756 584 756 584 836 584 c 0,59,60
 891 584 891 584 932.5 568 c 128,-1,61
 974 552 974 552 1001.5 522.5 c 128,-1,62
 1029 493 1029 493 1043 451.5 c 128,-1,63
 1057 410 1057 410 1057 360 c 0,44,45
910 352 m 0,64,65
 910 370 910 370 906.5 388.5 c 128,-1,66
 903 407 903 407 893.5 422 c 128,-1,67
 884 437 884 437 865.5 447 c 128,-1,68
 847 457 847 457 819 457 c 0,69,70
 774 457 774 457 743 430.5 c 128,-1,71
 712 404 712 404 693 366.5 c 128,-1,72
 674 329 674 329 665.5 288 c 128,-1,73
 657 247 657 247 657 219 c 0,74,75
 657 199 657 199 661 180 c 128,-1,76
 665 161 665 161 675 146 c 128,-1,77
 685 131 685 131 703 122 c 128,-1,78
 721 113 721 113 750 113 c 0,79,80
 790 113 790 113 820 136 c 128,-1,81
 850 159 850 159 870 194 c 128,-1,82
 890 229 890 229 900 271.5 c 128,-1,83
 910 314 910 314 910 352 c 0,64,65
EndSplineSet
EndChar
StartChar: ampersand
Encoding: 38 38 314
Width: 1126
Flags: W
LayerCount: 2
Back
Fore
SplineSet
1057 682 m 1,0,1
 1031 548 1031 548 984 437.5 c 128,-1,2
 937 327 937 327 872 242 c 1,3,-1
 1018 0 l 1,4,-1
 801 0 l 1,5,-1
 735 109 l 1,6,7
 657 47 657 47 568 16.5 c 128,-1,8
 479 -14 479 -14 385 -14 c 0,9,10
 298 -14 298 -14 230 7.5 c 128,-1,11
 162 29 162 29 115 69.5 c 128,-1,12
 68 110 68 110 43 169.5 c 128,-1,13
 18 229 18 229 18 305 c 0,14,15
 18 388 18 388 45.5 454 c 128,-1,16
 73 520 73 520 119.5 573 c 128,-1,17
 166 626 166 626 227 668 c 128,-1,18
 288 710 288 710 356 745 c 1,19,-1
 340 772 l 2,20,21
 308 826 308 826 290 884.5 c 128,-1,22
 272 943 272 943 272 1008 c 0,23,24
 272 1086 272 1086 299.5 1154.5 c 128,-1,25
 327 1223 327 1223 378.5 1274 c 128,-1,26
 430 1325 430 1325 503 1354.5 c 128,-1,27
 576 1384 576 1384 668 1384 c 0,28,29
 745 1384 745 1384 801.5 1362.5 c 128,-1,30
 858 1341 858 1341 894.5 1304.5 c 128,-1,31
 931 1268 931 1268 949 1218.5 c 128,-1,32
 967 1169 967 1169 967 1114 c 0,33,34
 967 1038 967 1038 937 979 c 128,-1,35
 907 920 907 920 855.5 872.5 c 128,-1,36
 804 825 804 825 735.5 785 c 128,-1,37
 667 745 667 745 590 707 c 1,38,-1
 782 387 l 1,39,40
 816 447 816 447 840.5 521 c 128,-1,41
 865 595 865 595 881 682 c 1,42,-1
 1057 682 l 1,0,1
201 334 m 0,43,44
 201 234 201 234 254.5 184.5 c 128,-1,45
 308 135 308 135 408 135 c 0,46,47
 474 135 474 135 538 161 c 128,-1,48
 602 187 602 187 659 238 c 1,49,-1
 428 625 l 1,50,51
 378 599 378 599 336.5 569.5 c 128,-1,52
 295 540 295 540 265 505 c 128,-1,53
 235 470 235 470 218 428 c 128,-1,54
 201 386 201 386 201 334 c 0,43,44
786 1102 m 0,55,56
 786 1162 786 1162 751 1199.5 c 128,-1,57
 716 1237 716 1237 647 1237 c 0,58,59
 600 1237 600 1237 564 1219 c 128,-1,60
 528 1201 528 1201 503 1171.5 c 128,-1,61
 478 1142 478 1142 465.5 1104 c 128,-1,62
 453 1066 453 1066 453 1026 c 0,63,64
 453 1002 453 1002 456 980 c 128,-1,65
 459 958 459 958 466.5 935.5 c 128,-1,66
 474 913 474 913 486.5 887 c 128,-1,67
 499 861 499 861 518 829 c 2,68,-1
 520 825 l 1,69,70
 575 852 575 852 623.5 880 c 128,-1,71
 672 908 672 908 708 940.5 c 128,-1,72
 744 973 744 973 765 1012.5 c 128,-1,73
 786 1052 786 1052 786 1102 c 0,55,56
EndSplineSet
AlternateSubs2: "'ss06' Style Set 6 lookup 31 subtable" ampersand.ss05
Substitution2: "'ss05' Style Set 5 lookup 30 subtable" ampersand.ss05
AlternateSubs2: "'salt' Stylistic Alternatives lookup 23 subtable" ampersand.ss05
EndChar
StartChar: quotesingle
Encoding: 39 39 598
Width: 1126
Flags: W
LayerCount: 2
Back
Fore
SplineSet
858 1413 m 1,0,-1
 735 944 l 1,1,-1
 563 944 l 1,2,-1
 629 1413 l 1,3,-1
 858 1413 l 1,0,-1
EndSplineSet
EndChar
StartChar: parenleft
Encoding: 40 40 383
Width: 1126
Flags: W
LayerCount: 2
Back
Fore
SplineSet
582 -420 m 1,0,1
 433 -255 433 -255 357 -69 c 128,-1,2
 281 117 281 117 281 319 c 0,3,4
 281 465 281 465 317.5 612.5 c 128,-1,5
 354 760 354 760 434.5 906.5 c 128,-1,6
 515 1053 515 1053 643 1198 c 128,-1,7
 771 1343 771 1343 954 1485 c 1,8,-1
 1038 1378 l 1,9,10
 869 1237 869 1237 757.5 1097.5 c 128,-1,11
 646 958 646 958 579.5 824.5 c 128,-1,12
 513 691 513 691 486 566 c 128,-1,13
 459 441 459 441 459 328 c 0,14,15
 459 154 459 154 517 -5 c 128,-1,16
 575 -164 575 -164 701 -322 c 1,17,-1
 582 -420 l 1,0,1
EndSplineSet
Substitution2: "'sups' Superscript lookup 34 subtable" uni207D
Substitution2: "'subs' Subscript lookup 22 subtable" uni208D
Substitution2: "'case' Case-Sensitive Forms lookup 0 subtable" parenleft.case
EndChar
StartChar: parenright
Encoding: 41 41 384
Width: 1126
Flags: W
LayerCount: 2
Back
Fore
SplineSet
550 1485 m 1,0,1
 699 1320 699 1320 775 1134 c 128,-1,2
 851 948 851 948 851 745 c 0,3,4
 851 599 851 599 814.5 452 c 128,-1,5
 778 305 778 305 697 158.5 c 128,-1,6
 616 12 616 12 488 -133 c 128,-1,7
 360 -278 360 -278 177 -420 c 1,8,-1
 93 -313 l 1,9,10
 262 -172 262 -172 374 -32.5 c 128,-1,11
 486 107 486 107 552.5 240.5 c 128,-1,12
 619 374 619 374 646 499 c 128,-1,13
 673 624 673 624 673 737 c 0,14,15
 673 911 673 911 615 1069.5 c 128,-1,16
 557 1228 557 1228 431 1386 c 1,17,-1
 550 1485 l 1,0,1
EndSplineSet
Substitution2: "'sups' Superscript lookup 34 subtable" uni207E
Substitution2: "'subs' Subscript lookup 22 subtable" uni208E
Substitution2: "'case' Case-Sensitive Forms lookup 0 subtable" parenright.case
EndChar
StartChar: asterisk
Encoding: 42 42 395
Width: 1126
Flags: W
LayerCount: 2
Back
Fore
SplineSet
1057 840 m 1,0,-1
 989 721 l 1,1,-1
 709 909 l 1,2,-1
 731 565 l 1,3,-1
 588 565 l 1,4,-1
 610 907 l 1,5,-1
 324 721 l 1,6,-1
 260 838 l 1,7,-1
 567 989 l 1,8,-1
 260 1143 l 1,9,-1
 330 1260 l 1,10,-1
 614 1069 l 1,11,-1
 588 1413 l 1,12,-1
 731 1413 l 1,13,-1
 709 1069 l 1,14,-1
 989 1262 l 1,15,-1
 1059 1139 l 1,16,-1
 752 987 l 1,17,-1
 1057 840 l 1,0,-1
EndSplineSet
EndChar
StartChar: plus
Encoding: 43 43 689
Width: 1126
Flags: W
LayerCount: 2
Back
Fore
SplineSet
1034 469 m 1,0,-1
 641 469 l 1,1,-1
 559 61 l 1,2,-1
 387 61 l 1,3,-1
 469 469 l 1,4,-1
 76 469 l 1,5,-1
 106 621 l 1,6,-1
 500 621 l 1,7,-1
 580 1026 l 1,8,-1
 752 1026 l 1,9,-1
 672 621 l 1,10,-1
 1065 621 l 1,11,-1
 1034 469 l 1,0,-1
EndSplineSet
Substitution2: "'sups' Superscript lookup 34 subtable" uni207A
Substitution2: "'subs' Subscript lookup 22 subtable" uni208A
EndChar
StartChar: comma
Encoding: 44 44 345
Width: 1126
Flags: W
LayerCount: 2
Back
Fore
SplineSet
80 -205 m 1,0,1
 131 -207 131 -207 187 -195 c 128,-1,2
 243 -183 243 -183 289 -157 c 128,-1,3
 335 -131 335 -131 365 -91.5 c 128,-1,4
 395 -52 395 -52 395 2 c 0,5,6
 395 28 395 28 386.5 46.5 c 128,-1,7
 378 65 378 65 368.5 82 c 128,-1,8
 359 99 359 99 350.5 119 c 128,-1,9
 342 139 342 139 342 168 c 0,10,11
 342 205 342 205 355.5 234 c 128,-1,12
 369 263 369 263 390 282.5 c 128,-1,13
 411 302 411 302 437 312 c 128,-1,14
 463 322 463 322 489 322 c 0,15,16
 556 322 556 322 598.5 278 c 128,-1,17
 641 234 641 234 641 147 c 0,18,19
 641 97 641 97 626.5 42 c 128,-1,20
 612 -13 612 -13 582 -67.5 c 128,-1,21
 552 -122 552 -122 506.5 -171.5 c 128,-1,22
 461 -221 461 -221 398.5 -259 c 128,-1,23
 336 -297 336 -297 256.5 -319.5 c 128,-1,24
 177 -342 177 -342 80 -342 c 1,25,-1
 80 -205 l 1,0,1
EndSplineSet
EndChar
StartChar: hyphen
Encoding: 45 45 350
AltUni2: 002010.ffffffff.0 0000ad.ffffffff.0
Width: 1126
Flags: W
LayerCount: 2
Back
Fore
SplineSet
852 463 m 1,0,-1
 254 463 l 1,1,-1
 287 627 l 1,2,-1
 885 627 l 1,3,-1
 852 463 l 1,0,-1
EndSplineSet
Substitution2: "'case' Case-Sensitive Forms lookup 0 subtable" hyphen.case
EndChar
StartChar: period
Encoding: 46 46 348
Width: 1126
Flags: W
LayerCount: 2
Back
Fore
SplineSet
487 315 m 0,0,1
 523 315 523 315 552.5 302 c 128,-1,2
 582 289 582 289 603 267 c 128,-1,3
 624 245 624 245 635.5 215.5 c 128,-1,4
 647 186 647 186 647 154 c 0,5,6
 647 118 647 118 633 86.5 c 128,-1,7
 619 55 619 55 595.5 31.5 c 128,-1,8
 572 8 572 8 540.5 -5 c 128,-1,9
 509 -18 509 -18 475 -18 c 0,10,11
 440 -18 440 -18 411 -5 c 128,-1,12
 382 8 382 8 360.5 30 c 128,-1,13
 339 52 339 52 327 80.5 c 128,-1,14
 315 109 315 109 315 141 c 0,15,16
 315 178 315 178 329 210 c 128,-1,17
 343 242 343 242 367 265 c 128,-1,18
 391 288 391 288 422 301.5 c 128,-1,19
 453 315 453 315 487 315 c 0,0,1
EndSplineSet
EndChar
StartChar: slash
Encoding: 47 47 373
Width: 1126
Flags: W
LayerCount: 2
Back
Fore
SplineSet
1153 1413 m 1,0,-1
 139 -215 l 1,1,-1
 -39 -215 l 1,2,-1
 975 1413 l 1,3,-1
 1153 1413 l 1,0,-1
EndSplineSet
Substitution2: "Single Substitution lookup 8 subtable" fraction
EndChar
StartChar: zero
Encoding: 48 48 619
Width: 1126
Flags: W
LayerCount: 2
Back
Fore
SplineSet
463 -18 m 0,0,1
 379 -18 379 -18 310.5 8.5 c 128,-1,2
 242 35 242 35 193.5 89.5 c 128,-1,3
 145 144 145 144 118.5 226.5 c 128,-1,4
 92 309 92 309 92 420 c 0,5,6
 92 471 92 471 98.5 536.5 c 128,-1,7
 105 602 105 602 119.5 675 c 128,-1,8
 134 748 134 748 158 825 c 128,-1,9
 182 902 182 902 217.5 974 c 128,-1,10
 253 1046 253 1046 300.5 1110 c 128,-1,11
 348 1174 348 1174 410 1221.5 c 128,-1,12
 472 1269 472 1269 549 1297 c 128,-1,13
 626 1325 626 1325 721 1325 c 0,14,15
 805 1325 805 1325 873.5 1298.5 c 128,-1,16
 942 1272 942 1272 990.5 1217.5 c 128,-1,17
 1039 1163 1039 1163 1065.5 1080.5 c 128,-1,18
 1092 998 1092 998 1092 887 c 0,19,20
 1092 836 1092 836 1085.5 770 c 128,-1,21
 1079 704 1079 704 1064.5 631 c 128,-1,22
 1050 558 1050 558 1026 481.5 c 128,-1,23
 1002 405 1002 405 966.5 333 c 128,-1,24
 931 261 931 261 883.5 197 c 128,-1,25
 836 133 836 133 774 85.5 c 128,-1,26
 712 38 712 38 634.5 10 c 128,-1,27
 557 -18 557 -18 463 -18 c 0,0,1
485 129 m 0,28,29
 552 129 552 129 608 158 c 128,-1,30
 664 187 664 187 709 235.5 c 128,-1,31
 754 284 754 284 788.5 349 c 128,-1,32
 823 414 823 414 848 485.5 c 128,-1,33
 873 557 873 557 888 632 c 128,-1,34
 903 707 903 707 909 776 c 1,35,-1
 272 365 l 1,36,37
 277 313 277 313 290.5 270 c 128,-1,38
 304 227 304 227 329.5 195.5 c 128,-1,39
 355 164 355 164 393 146.5 c 128,-1,40
 431 129 431 129 485 129 c 0,28,29
698 1178 m 0,41,42
 631 1178 631 1178 576 1150 c 128,-1,43
 521 1122 521 1122 476.5 1074.5 c 128,-1,44
 432 1027 432 1027 397.5 963.5 c 128,-1,45
 363 900 363 900 338 829.5 c 128,-1,46
 313 759 313 759 297 685 c 128,-1,47
 281 611 281 611 274 543 c 1,48,-1
 911 952 l 1,49,50
 905 1001 905 1001 890 1042.5 c 128,-1,51
 875 1084 875 1084 849.5 1114 c 128,-1,52
 824 1144 824 1144 786.5 1161 c 128,-1,53
 749 1178 749 1178 698 1178 c 0,41,42
EndSplineSet
Substitution2: "'ss08' Style Set 8 lookup 33 subtable" zero.ss08
Substitution2: "'ss07' Style Set 7 lookup 32 subtable" zero.ss07
AlternateSubs2: "'salt' Stylistic Alternatives lookup 23 subtable" zero.ss07 zero.ss08
Substitution2: "'subs' Subscript lookup 22 subtable" uni2080
Substitution2: "'onum' Oldstyle Figures lookup 21 subtable" zero.oldstyle
Substitution2: "'numr' Numerators lookup 20 subtable" uni2070
Substitution2: "'dnom' Denominators lookup 6 subtable" zero.dnom
EndChar
StartChar: one
Encoding: 49 49 622
Width: 1126
Flags: W
LayerCount: 2
Back
Fore
SplineSet
895 0 m 1,0,-1
 74 0 l 1,1,-1
 106 162 l 1,2,-1
 442 162 l 1,3,-1
 631 1106 l 1,4,-1
 291 940 l 1,5,-1
 248 1094 l 1,6,-1
 707 1313 l 1,7,-1
 864 1313 l 1,8,-1
 635 162 l 1,9,-1
 928 162 l 1,10,-1
 895 0 l 1,0,-1
EndSplineSet
Substitution2: "'subs' Subscript lookup 22 subtable" uni2081
Substitution2: "'onum' Oldstyle Figures lookup 21 subtable" one.oldstyle
Substitution2: "'numr' Numerators lookup 20 subtable" uni00B9
Substitution2: "'dnom' Denominators lookup 6 subtable" one.dnom
EndChar
StartChar: two
Encoding: 50 50 623
Width: 1126
Flags: W
LayerCount: 2
Back
Fore
SplineSet
905 0 m 1,0,-1
 45 0 l 1,1,-1
 76 156 l 1,2,-1
 481 496 l 2,3,4
 595 592 595 592 665.5 664 c 128,-1,5
 736 736 736 736 775 793.5 c 128,-1,6
 814 851 814 851 828 898.5 c 128,-1,7
 842 946 842 946 842 993 c 0,8,9
 842 1073 842 1073 797 1122 c 128,-1,10
 752 1171 752 1171 657 1171 c 0,11,12
 574 1171 574 1171 498.5 1134 c 128,-1,13
 423 1097 423 1097 354 1038 c 1,14,-1
 268 1153 l 1,15,16
 313 1192 313 1192 360.5 1223.5 c 128,-1,17
 408 1255 408 1255 459.5 1277.5 c 128,-1,18
 511 1300 511 1300 567.5 1312.5 c 128,-1,19
 624 1325 624 1325 686 1325 c 0,20,21
 763 1325 763 1325 826 1303 c 128,-1,22
 889 1281 889 1281 934 1239.5 c 128,-1,23
 979 1198 979 1198 1003.5 1140 c 128,-1,24
 1028 1082 1028 1082 1028 1010 c 0,25,26
 1028 931 1028 931 1005.5 861.5 c 128,-1,27
 983 792 983 792 932 721 c 128,-1,28
 881 650 881 650 799 572 c 128,-1,29
 717 494 717 494 598 397 c 2,30,-1
 313 166 l 1,31,-1
 938 166 l 1,32,-1
 905 0 l 1,0,-1
EndSplineSet
Substitution2: "'subs' Subscript lookup 22 subtable" uni2082
Substitution2: "'onum' Oldstyle Figures lookup 21 subtable" two.oldstyle
Substitution2: "'numr' Numerators lookup 20 subtable" uni00B2
Substitution2: "'dnom' Denominators lookup 6 subtable" two.dnom
EndChar
StartChar: three
Encoding: 51 51 624
Width: 1126
Flags: W
LayerCount: 2
Back
Fore
SplineSet
328 -18 m 0,0,1
 250 -18 250 -18 182 -12.5 c 128,-1,2
 114 -7 114 -7 61 2 c 1,3,-1
 92 154 l 1,4,5
 151 144 151 144 214.5 138.5 c 128,-1,6
 278 133 278 133 350 133 c 0,7,8
 437 133 437 133 503 147 c 128,-1,9
 569 161 569 161 617 184 c 128,-1,10
 665 207 665 207 696.5 237.5 c 128,-1,11
 728 268 728 268 746.5 300.5 c 128,-1,12
 765 333 765 333 772.5 366 c 128,-1,13
 780 399 780 399 780 428 c 0,14,15
 780 472 780 472 759.5 504.5 c 128,-1,16
 739 537 739 537 701.5 559 c 128,-1,17
 664 581 664 581 610.5 591.5 c 128,-1,18
 557 602 557 602 492 602 c 2,19,-1
 342 602 l 1,20,-1
 371 745 l 1,21,-1
 508 745 l 2,22,23
 572 745 572 745 631.5 764 c 128,-1,24
 691 783 691 783 736.5 819.5 c 128,-1,25
 782 856 782 856 809 908.5 c 128,-1,26
 836 961 836 961 836 1028 c 0,27,28
 836 1103 836 1103 783 1138.5 c 128,-1,29
 730 1174 730 1174 625 1174 c 0,30,31
 559 1174 559 1174 490.5 1161 c 128,-1,32
 422 1148 422 1148 338 1122 c 1,33,-1
 338 1274 l 1,34,35
 375 1286 375 1286 415.5 1295.5 c 128,-1,36
 456 1305 456 1305 497.5 1311.5 c 128,-1,37
 539 1318 539 1318 578.5 1321.5 c 128,-1,38
 618 1325 618 1325 653 1325 c 0,39,40
 745 1325 745 1325 814.5 1306 c 128,-1,41
 884 1287 884 1287 930 1252.5 c 128,-1,42
 976 1218 976 1218 999 1169.5 c 128,-1,43
 1022 1121 1022 1121 1022 1061 c 0,44,45
 1022 1017 1022 1017 1010 966 c 128,-1,46
 998 915 998 915 966.5 864 c 128,-1,47
 935 813 935 813 880 765.5 c 128,-1,48
 825 718 825 718 739 682 c 1,49,50
 786 673 786 673 827 653 c 128,-1,51
 868 633 868 633 899 602.5 c 128,-1,52
 930 572 930 572 947.5 530.5 c 128,-1,53
 965 489 965 489 965 438 c 0,54,55
 965 390 965 390 950 337.5 c 128,-1,56
 935 285 935 285 903.5 234.5 c 128,-1,57
 872 184 872 184 821.5 138 c 128,-1,58
 771 92 771 92 700.5 57.5 c 128,-1,59
 630 23 630 23 537.5 2.5 c 128,-1,60
 445 -18 445 -18 328 -18 c 0,0,1
EndSplineSet
Substitution2: "'subs' Subscript lookup 22 subtable" uni2083
Substitution2: "'onum' Oldstyle Figures lookup 21 subtable" three.oldstyle
Substitution2: "'numr' Numerators lookup 20 subtable" uni00B3
Substitution2: "'dnom' Denominators lookup 6 subtable" three.dnom
EndChar
StartChar: four
Encoding: 52 52 625
Width: 1126
Flags: W
LayerCount: 2
Back
Fore
SplineSet
1028 289 m 1,0,-1
 805 289 l 1,1,-1
 748 0 l 1,2,-1
 569 0 l 1,3,-1
 627 289 l 1,4,-1
 -2 289 l 1,5,-1
 29 442 l 1,6,-1
 743 1307 l 1,7,-1
 1010 1307 l 1,8,-1
 836 442 l 1,9,-1
 1059 442 l 1,10,-1
 1028 289 l 1,0,-1
797 1139 m 1,11,-1
 217 442 l 1,12,-1
 657 442 l 1,13,-1
 797 1139 l 1,11,-1
EndSplineSet
Substitution2: "'subs' Subscript lookup 22 subtable" uni2084
Substitution2: "'onum' Oldstyle Figures lookup 21 subtable" four.oldstyle
Substitution2: "'numr' Numerators lookup 20 subtable" uni2074
Substitution2: "'dnom' Denominators lookup 6 subtable" four.dnom
EndChar
StartChar: five
Encoding: 53 53 626
Width: 1126
Flags: W
LayerCount: 2
Back
Fore
SplineSet
961 481 m 0,0,1
 961 377 961 377 913.5 286 c 128,-1,2
 866 195 866 195 782 127.5 c 128,-1,3
 698 60 698 60 583 21 c 128,-1,4
 468 -18 468 -18 332 -18 c 0,5,6
 299 -18 299 -18 264 -16.5 c 128,-1,7
 229 -15 229 -15 195.5 -12.5 c 128,-1,8
 162 -10 162 -10 131 -6.5 c 128,-1,9
 100 -3 100 -3 76 2 c 1,10,-1
 106 156 l 1,11,12
 132 150 132 150 162.5 145.5 c 128,-1,13
 193 141 193 141 224.5 138 c 128,-1,14
 256 135 256 135 287.5 134 c 128,-1,15
 319 133 319 133 348 133 c 0,16,17
 442 133 442 133 520 158 c 128,-1,18
 598 183 598 183 654.5 227.5 c 128,-1,19
 711 272 711 272 742.5 332 c 128,-1,20
 774 392 774 392 774 461 c 0,21,22
 774 549 774 549 701 594 c 128,-1,23
 628 639 628 639 475 639 c 2,24,-1
 225 639 l 1,25,-1
 360 1307 l 1,26,-1
 1065 1307 l 1,27,-1
 1034 1155 l 1,28,-1
 494 1155 l 1,29,-1
 420 788 l 1,30,-1
 524 788 l 2,31,32
 613 788 613 788 692.5 771 c 128,-1,33
 772 754 772 754 831.5 717.5 c 128,-1,34
 891 681 891 681 926 622.5 c 128,-1,35
 961 564 961 564 961 481 c 0,0,1
EndSplineSet
Substitution2: "'subs' Subscript lookup 22 subtable" uni2085
Substitution2: "'onum' Oldstyle Figures lookup 21 subtable" five.oldstyle
Substitution2: "'numr' Numerators lookup 20 subtable" uni2075
Substitution2: "'dnom' Denominators lookup 6 subtable" five.dnom
EndChar
StartChar: six
Encoding: 54 54 627
Width: 1126
Flags: W
LayerCount: 2
Back
Fore
SplineSet
1010 504 m 0,0,1
 1010 398 1010 398 970 303 c 128,-1,2
 930 208 930 208 858.5 137 c 128,-1,3
 787 66 787 66 687.5 24 c 128,-1,4
 588 -18 588 -18 469 -18 c 0,5,6
 297 -18 297 -18 205 77 c 128,-1,7
 113 172 113 172 113 369 c 0,8,9
 113 422 113 422 119.5 490.5 c 128,-1,10
 126 559 126 559 142 635 c 128,-1,11
 158 711 158 711 186.5 790.5 c 128,-1,12
 215 870 215 870 259.5 944.5 c 128,-1,13
 304 1019 304 1019 366.5 1085 c 128,-1,14
 429 1151 429 1151 512.5 1200.5 c 128,-1,15
 596 1250 596 1250 703.5 1278.5 c 128,-1,16
 811 1307 811 1307 946 1307 c 2,17,-1
 1081 1307 l 1,18,-1
 1051 1155 l 1,19,-1
 918 1155 l 2,20,21
 786 1155 786 1155 691.5 1122 c 128,-1,22
 597 1089 597 1089 531 1032.5 c 128,-1,23
 465 976 465 976 424 901 c 128,-1,24
 383 826 383 826 358 743 c 1,25,-1
 350 725 l 1,26,27
 421 760 421 760 500 782.5 c 128,-1,28
 579 805 579 805 659 805 c 0,29,30
 750 805 750 805 816.5 783 c 128,-1,31
 883 761 883 761 926 721 c 128,-1,32
 969 681 969 681 989.5 626 c 128,-1,33
 1010 571 1010 571 1010 504 c 0,0,1
827 487 m 0,34,35
 827 572 827 572 778.5 618 c 128,-1,36
 730 664 730 664 627 664 c 0,37,38
 587 664 587 664 545 656.5 c 128,-1,39
 503 649 503 649 462.5 636.5 c 128,-1,40
 422 624 422 624 384 607.5 c 128,-1,41
 346 591 346 591 315 573 c 1,42,43
 303 527 303 527 298 472 c 128,-1,44
 293 417 293 417 293 365 c 0,45,46
 293 296 293 296 306.5 250 c 128,-1,47
 320 204 320 204 345.5 176.5 c 128,-1,48
 371 149 371 149 408.5 137 c 128,-1,49
 446 125 446 125 494 125 c 0,50,51
 571 125 571 125 633 156 c 128,-1,52
 695 187 695 187 738 238 c 128,-1,53
 781 289 781 289 804 354 c 128,-1,54
 827 419 827 419 827 487 c 0,34,35
EndSplineSet
Substitution2: "'subs' Subscript lookup 22 subtable" uni2086
Substitution2: "'onum' Oldstyle Figures lookup 21 subtable" six.oldstyle
Substitution2: "'numr' Numerators lookup 20 subtable" uni2076
Substitution2: "'dnom' Denominators lookup 6 subtable" six.dnom
EndChar
StartChar: seven
Encoding: 55 55 628
Width: 1126
Flags: W
LayerCount: 2
Back
Fore
SplineSet
1128 1145 m 1,0,-1
 360 0 l 1,1,-1
 152 0 l 1,2,-1
 938 1145 l 1,3,-1
 244 1145 l 1,4,-1
 276 1307 l 1,5,-1
 1161 1307 l 1,6,-1
 1128 1145 l 1,0,-1
EndSplineSet
Substitution2: "'subs' Subscript lookup 22 subtable" uni2087
Substitution2: "'onum' Oldstyle Figures lookup 21 subtable" seven.oldstyle
Substitution2: "'numr' Numerators lookup 20 subtable" uni2077
Substitution2: "'dnom' Denominators lookup 6 subtable" seven.dnom
EndChar
StartChar: eight
Encoding: 56 56 629
Width: 1126
Flags: W
LayerCount: 2
Back
Fore
SplineSet
602 760 m 1,0,1
 693 805 693 805 751 840 c 128,-1,2
 809 875 809 875 842.5 907.5 c 128,-1,3
 876 940 876 940 888.5 972 c 128,-1,4
 901 1004 901 1004 901 1042 c 0,5,6
 901 1107 901 1107 850 1143.5 c 128,-1,7
 799 1180 799 1180 700 1180 c 0,8,9
 638 1180 638 1180 587 1166 c 128,-1,10
 536 1152 536 1152 499 1124.5 c 128,-1,11
 462 1097 462 1097 442 1056.5 c 128,-1,12
 422 1016 422 1016 422 963 c 0,13,14
 422 934 422 934 432 908 c 128,-1,15
 442 882 442 882 463.5 858 c 128,-1,16
 485 834 485 834 519.5 810 c 128,-1,17
 554 786 554 786 602 760 c 1,0,1
762 682 m 1,18,19
 865 625 865 625 920 552.5 c 128,-1,20
 975 480 975 480 975 381 c 0,21,22
 975 304 975 304 942 232 c 128,-1,23
 909 160 909 160 843.5 104.5 c 128,-1,24
 778 49 778 49 680.5 15.5 c 128,-1,25
 583 -18 583 -18 453 -18 c 0,26,27
 357 -18 357 -18 286 3.5 c 128,-1,28
 215 25 215 25 168.5 62.5 c 128,-1,29
 122 100 122 100 99 152 c 128,-1,30
 76 204 76 204 76 266 c 0,31,32
 76 322 76 322 92 373 c 128,-1,33
 108 424 108 424 147.5 473 c 128,-1,34
 187 522 187 522 254 570.5 c 128,-1,35
 321 619 321 619 424 672 c 1,36,37
 330 724 330 724 284 790.5 c 128,-1,38
 238 857 238 857 238 944 c 0,39,40
 238 1016 238 1016 268 1085 c 128,-1,41
 298 1154 298 1154 358.5 1207 c 128,-1,42
 419 1260 419 1260 510 1292.5 c 128,-1,43
 601 1325 601 1325 723 1325 c 0,44,45
 814 1325 814 1325 882 1306 c 128,-1,46
 950 1287 950 1287 995 1252.5 c 128,-1,47
 1040 1218 1040 1218 1062.5 1169.5 c 128,-1,48
 1085 1121 1085 1121 1085 1063 c 0,49,50
 1085 1009 1085 1009 1070 961 c 128,-1,51
 1055 913 1055 913 1018.5 866.5 c 128,-1,52
 982 820 982 820 919.5 775 c 128,-1,53
 857 730 857 730 762 682 c 1,18,19
584 594 m 1,54,55
 487 550 487 550 425 513.5 c 128,-1,56
 363 477 363 477 327 441.5 c 128,-1,57
 291 406 291 406 277.5 368.5 c 128,-1,58
 264 331 264 331 264 285 c 0,59,60
 264 207 264 207 321 169 c 128,-1,61
 378 131 378 131 483 131 c 0,62,63
 541 131 541 131 595.5 146 c 128,-1,64
 650 161 650 161 692.5 190 c 128,-1,65
 735 219 735 219 760.5 261.5 c 128,-1,66
 786 304 786 304 786 358 c 0,67,68
 786 389 786 389 775.5 419.5 c 128,-1,69
 765 450 765 450 741.5 479 c 128,-1,70
 718 508 718 508 679.5 536.5 c 128,-1,71
 641 565 641 565 584 594 c 1,54,55
EndSplineSet
Substitution2: "'subs' Subscript lookup 22 subtable" uni2088
Substitution2: "'onum' Oldstyle Figures lookup 21 subtable" eight.oldstyle
Substitution2: "'numr' Numerators lookup 20 subtable" uni2078
Substitution2: "'dnom' Denominators lookup 6 subtable" eight.dnom
EndChar
StartChar: nine
Encoding: 57 57 630
Width: 1126
Flags: W
LayerCount: 2
Back
Fore
SplineSet
1065 932 m 0,0,1
 1065 883 1065 883 1059.5 817 c 128,-1,2
 1054 751 1054 751 1038 676 c 128,-1,3
 1022 601 1022 601 993.5 522 c 128,-1,4
 965 443 965 443 919.5 368 c 128,-1,5
 874 293 874 293 809.5 226 c 128,-1,6
 745 159 745 159 656.5 109 c 128,-1,7
 568 59 568 59 454 29.5 c 128,-1,8
 340 0 340 0 195 0 c 2,9,-1
 78 0 l 1,10,-1
 109 152 l 1,11,-1
 209 152 l 2,12,13
 343 152 343 152 447 183 c 128,-1,14
 551 214 551 214 627 268.5 c 128,-1,15
 703 323 703 323 752 398.5 c 128,-1,16
 801 474 801 474 825 563 c 2,17,-1
 831 582 l 1,18,19
 763 547 763 547 685.5 524.5 c 128,-1,20
 608 502 608 502 524 502 c 0,21,22
 425 502 425 502 357.5 527 c 128,-1,23
 290 552 290 552 248 594 c 128,-1,24
 206 636 206 636 188 691 c 128,-1,25
 170 746 170 746 170 805 c 0,26,27
 170 906 170 906 208 1000 c 128,-1,28
 246 1094 246 1094 316 1166 c 128,-1,29
 386 1238 386 1238 485.5 1281.5 c 128,-1,30
 585 1325 585 1325 709 1325 c 0,31,32
 878 1325 878 1325 971.5 1229.5 c 128,-1,33
 1065 1134 1065 1134 1065 932 c 0,0,1
684 1182 m 0,34,35
 603 1182 603 1182 541 1149 c 128,-1,36
 479 1116 479 1116 437 1064.5 c 128,-1,37
 395 1013 395 1013 373.5 948.5 c 128,-1,38
 352 884 352 884 352 821 c 0,39,40
 352 788 352 788 361.5 756 c 128,-1,41
 371 724 371 724 394.5 699 c 128,-1,42
 418 674 418 674 457.5 658.5 c 128,-1,43
 497 643 497 643 557 643 c 0,44,45
 597 643 597 643 639 650 c 128,-1,46
 681 657 681 657 721 669 c 128,-1,47
 761 681 761 681 797.5 697 c 128,-1,48
 834 713 834 713 864 731 c 1,49,50
 875 784 875 784 880 842 c 128,-1,51
 885 900 885 900 885 948 c 0,52,53
 885 1014 885 1014 871.5 1059 c 128,-1,54
 858 1104 858 1104 832.5 1131 c 128,-1,55
 807 1158 807 1158 769.5 1170 c 128,-1,56
 732 1182 732 1182 684 1182 c 0,34,35
EndSplineSet
Substitution2: "'subs' Subscript lookup 22 subtable" uni2089
Substitution2: "'onum' Oldstyle Figures lookup 21 subtable" nine.oldstyle
Substitution2: "'numr' Numerators lookup 20 subtable" uni2079
Substitution2: "'dnom' Denominators lookup 6 subtable" nine.dnom
EndChar
StartChar: colon
Encoding: 58 58 347
Width: 1126
Flags: W
LayerCount: 2
Back
Fore
SplineSet
492 289 m 0,0,1
 524 289 524 289 551.5 277 c 128,-1,2
 579 265 579 265 599 244 c 128,-1,3
 619 223 619 223 630 196 c 128,-1,4
 641 169 641 169 641 139 c 256,5,6
 641 109 641 109 628.5 80.5 c 128,-1,7
 616 52 616 52 594 30.5 c 128,-1,8
 572 9 572 9 543 -4.5 c 128,-1,9
 514 -18 514 -18 481 -18 c 256,10,11
 448 -18 448 -18 421 -6 c 128,-1,12
 394 6 394 6 374.5 26 c 128,-1,13
 355 46 355 46 344.5 73 c 128,-1,14
 334 100 334 100 334 129 c 0,15,16
 334 163 334 163 347 192 c 128,-1,17
 360 221 360 221 382 242.5 c 128,-1,18
 404 264 404 264 432.5 276.5 c 128,-1,19
 461 289 461 289 492 289 c 0,0,1
639 1022 m 0,20,21
 671 1022 671 1022 698.5 1010 c 128,-1,22
 726 998 726 998 746 977 c 128,-1,23
 766 956 766 956 777 929 c 128,-1,24
 788 902 788 902 788 872 c 256,25,26
 788 842 788 842 775.5 814 c 128,-1,27
 763 786 763 786 741.5 764 c 128,-1,28
 720 742 720 742 691 728.5 c 128,-1,29
 662 715 662 715 629 715 c 256,30,31
 596 715 596 715 568.5 727 c 128,-1,32
 541 739 541 739 521.5 759 c 128,-1,33
 502 779 502 779 491.5 806 c 128,-1,34
 481 833 481 833 481 862 c 0,35,36
 481 896 481 896 494 925 c 128,-1,37
 507 954 507 954 529 975.5 c 128,-1,38
 551 997 551 997 579.5 1009.5 c 128,-1,39
 608 1022 608 1022 639 1022 c 0,20,21
EndSplineSet
EndChar
StartChar: semicolon
Encoding: 59 59 346
Width: 1126
Flags: W
LayerCount: 2
Back
Fore
SplineSet
92 -205 m 1,0,1
 143 -207 143 -207 199 -195 c 128,-1,2
 255 -183 255 -183 301.5 -157 c 128,-1,3
 348 -131 348 -131 378 -91.5 c 128,-1,4
 408 -52 408 -52 408 2 c 0,5,6
 408 28 408 28 399.5 46.5 c 128,-1,7
 391 65 391 65 381 82 c 128,-1,8
 371 99 371 99 362.5 119 c 128,-1,9
 354 139 354 139 354 168 c 0,10,11
 354 205 354 205 367.5 234 c 128,-1,12
 381 263 381 263 402 282.5 c 128,-1,13
 423 302 423 302 449.5 312 c 128,-1,14
 476 322 476 322 502 322 c 0,15,16
 568 322 568 322 610.5 278 c 128,-1,17
 653 234 653 234 653 147 c 0,18,19
 653 97 653 97 638.5 42 c 128,-1,20
 624 -13 624 -13 594 -67.5 c 128,-1,21
 564 -122 564 -122 518.5 -171.5 c 128,-1,22
 473 -221 473 -221 410.5 -259 c 128,-1,23
 348 -297 348 -297 268.5 -319.5 c 128,-1,24
 189 -342 189 -342 92 -342 c 1,25,-1
 92 -205 l 1,0,1
639 1022 m 0,26,27
 671 1022 671 1022 698.5 1010 c 128,-1,28
 726 998 726 998 746 977 c 128,-1,29
 766 956 766 956 777 929 c 128,-1,30
 788 902 788 902 788 872 c 256,31,32
 788 842 788 842 775.5 814 c 128,-1,33
 763 786 763 786 741.5 764 c 128,-1,34
 720 742 720 742 691 728.5 c 128,-1,35
 662 715 662 715 629 715 c 256,36,37
 596 715 596 715 568.5 727 c 128,-1,38
 541 739 541 739 521.5 759 c 128,-1,39
 502 779 502 779 491.5 806 c 128,-1,40
 481 833 481 833 481 862 c 0,41,42
 481 896 481 896 494 925 c 128,-1,43
 507 954 507 954 529 975.5 c 128,-1,44
 551 997 551 997 579.5 1009.5 c 128,-1,45
 608 1022 608 1022 639 1022 c 0,26,27
EndSplineSet
EndChar
StartChar: less
Encoding: 60 60 697
Width: 1126
Flags: W
LayerCount: 2
Back
Fore
SplineSet
834 86 m 1,0,-1
 711 -16 l 1,1,-1
 143 551 l 1,2,-1
 920 1106 l 1,3,-1
 1014 987 l 1,4,-1
 379 541 l 1,5,-1
 834 86 l 1,0,-1
EndSplineSet
EndChar
StartChar: equal
Encoding: 61 61 694
Width: 1126
Flags: W
LayerCount: 2
Back
Fore
SplineSet
1020 646 m 1,0,-1
 160 646 l 1,1,-1
 188 793 l 1,2,-1
 1049 793 l 1,3,-1
 1020 646 l 1,0,-1
950 298 m 1,4,-1
 90 298 l 1,5,-1
 119 445 l 1,6,-1
 979 445 l 1,7,-1
 950 298 l 1,4,-1
EndSplineSet
Substitution2: "'sups' Superscript lookup 34 subtable" uni207C
Substitution2: "'subs' Subscript lookup 22 subtable" uni208C
EndChar
StartChar: greater
Encoding: 62 62 698
Width: 1126
Flags: W
LayerCount: 2
Back
Fore
SplineSet
305 1004 m 1,0,-1
 428 1106 l 1,1,-1
 995 539 l 1,2,-1
 219 -16 l 1,3,-1
 125 102 l 1,4,-1
 760 549 l 1,5,-1
 305 1004 l 1,0,-1
EndSplineSet
EndChar
StartChar: question
Encoding: 63 63 355
Width: 1126
Flags: W
LayerCount: 2
Back
Fore
SplineSet
539 383 m 1,0,-1
 387 383 l 1,1,-1
 451 766 l 1,2,-1
 553 766 l 2,3,4
 640 766 640 766 694 790.5 c 128,-1,5
 748 815 748 815 777.5 851.5 c 128,-1,6
 807 888 807 888 817 930 c 128,-1,7
 827 972 827 972 827 1008 c 0,8,9
 827 1072 827 1072 801.5 1118.5 c 128,-1,10
 776 1165 776 1165 730.5 1196 c 128,-1,11
 685 1227 685 1227 621.5 1242 c 128,-1,12
 558 1257 558 1257 483 1257 c 2,13,-1
 451 1257 l 1,14,-1
 481 1413 l 1,15,-1
 506 1413 l 2,16,17
 636 1413 636 1413 733 1380.5 c 128,-1,18
 830 1348 830 1348 893.5 1293.5 c 128,-1,19
 957 1239 957 1239 988.5 1168.5 c 128,-1,20
 1020 1098 1020 1098 1020 1022 c 0,21,22
 1020 939 1020 939 992.5 868.5 c 128,-1,23
 965 798 965 798 911 745.5 c 128,-1,24
 857 693 857 693 777 662.5 c 128,-1,25
 697 632 697 632 592 629 c 1,26,-1
 539 383 l 1,0,-1
414 246 m 0,27,28
 441 246 441 246 464.5 235.5 c 128,-1,29
 488 225 488 225 505 207.5 c 128,-1,30
 522 190 522 190 531.5 166.5 c 128,-1,31
 541 143 541 143 541 117 c 0,32,33
 541 88 541 88 530 63.5 c 128,-1,34
 519 39 519 39 500 21 c 128,-1,35
 481 3 481 3 457 -7.5 c 128,-1,36
 433 -18 433 -18 406 -18 c 0,37,38
 377 -18 377 -18 353.5 -7.5 c 128,-1,39
 330 3 330 3 312.5 20 c 128,-1,40
 295 37 295 37 285.5 60 c 128,-1,41
 276 83 276 83 276 109 c 0,42,43
 276 138 276 138 287 163 c 128,-1,44
 298 188 298 188 317 206.5 c 128,-1,45
 336 225 336 225 361 235.5 c 128,-1,46
 386 246 386 246 414 246 c 0,27,28
EndSplineSet
EndChar
StartChar: at
Encoding: 64 64 600
Width: 1126
Flags: W
LayerCount: 2
Back
Fore
SplineSet
1165 956 m 0,0,1
 1165 853 1165 853 1152.5 746.5 c 128,-1,2
 1140 640 1140 640 1116 541 c 128,-1,3
 1092 442 1092 442 1057 355 c 128,-1,4
 1022 268 1022 268 976 203 c 128,-1,5
 930 138 930 138 874.5 100.5 c 128,-1,6
 819 63 819 63 754 63 c 0,7,8
 710 63 710 63 680 75.5 c 128,-1,9
 650 88 650 88 632.5 109 c 128,-1,10
 615 130 615 130 609.5 156.5 c 128,-1,11
 604 183 604 183 610 211 c 1,12,13
 568 134 568 134 518.5 98.5 c 128,-1,14
 469 63 469 63 412 63 c 0,15,16
 376 63 376 63 346 73 c 128,-1,17
 316 83 316 83 294.5 105.5 c 128,-1,18
 273 128 273 128 260.5 165 c 128,-1,19
 248 202 248 202 248 256 c 0,20,21
 248 316 248 316 259.5 389 c 128,-1,22
 271 462 271 462 294.5 536 c 128,-1,23
 318 610 318 610 353 680 c 128,-1,24
 388 750 388 750 434.5 804 c 128,-1,25
 481 858 481 858 539 891 c 128,-1,26
 597 924 597 924 666 924 c 0,27,28
 709 924 709 924 741.5 915 c 128,-1,29
 774 906 774 906 788 897 c 1,30,-1
 924 928 l 1,31,-1
 768 436 l 2,32,33
 747 367 747 367 738 320.5 c 128,-1,34
 729 274 729 274 729.5 245.5 c 128,-1,35
 730 217 730 217 740 205 c 128,-1,36
 750 193 750 193 766 193 c 0,37,38
 796 193 796 193 827 225.5 c 128,-1,39
 858 258 858 258 887 314 c 128,-1,40
 916 370 916 370 941.5 444 c 128,-1,41
 967 518 967 518 985.5 601 c 128,-1,42
 1004 684 1004 684 1015 771.5 c 128,-1,43
 1026 859 1026 859 1026 942 c 0,44,45
 1026 1119 1026 1119 966 1211 c 128,-1,46
 906 1303 906 1303 774 1303 c 0,47,48
 690 1303 690 1303 607 1250.5 c 128,-1,49
 524 1198 524 1198 448.5 1108.5 c 128,-1,50
 373 1019 373 1019 309 899.5 c 128,-1,51
 245 780 245 780 198 646 c 128,-1,52
 151 512 151 512 124.5 370.5 c 128,-1,53
 98 229 98 229 98 96 c 0,54,55
 98 -101 98 -101 170.5 -197 c 128,-1,56
 243 -293 243 -293 381 -293 c 0,57,58
 426 -293 426 -293 467 -288 c 128,-1,59
 508 -283 508 -283 548.5 -272.5 c 128,-1,60
 589 -262 589 -262 630.5 -247 c 128,-1,61
 672 -232 672 -232 717 -211 c 1,62,-1
 717 -340 l 1,63,64
 543 -416 543 -416 367 -416 c 0,65,66
 161 -416 161 -416 60 -292 c 128,-1,67
 -41 -168 -41 -168 -41 78 c 0,68,69
 -41 235 -41 235 -10.5 395.5 c 128,-1,70
 20 556 20 556 74.5 706 c 128,-1,71
 129 856 129 856 206 987 c 128,-1,72
 283 1118 283 1118 375.5 1215.5 c 128,-1,73
 468 1313 468 1313 574 1369 c 128,-1,74
 680 1425 680 1425 793 1425 c 0,75,76
 982 1425 982 1425 1073.5 1306 c 128,-1,77
 1165 1187 1165 1187 1165 956 c 0,0,1
713 764 m 1,78,79
 707 776 707 776 693 785.5 c 128,-1,80
 679 795 679 795 651 795 c 0,81,82
 614 795 614 795 581 765.5 c 128,-1,83
 548 736 548 736 520.5 688.5 c 128,-1,84
 493 641 493 641 471 581.5 c 128,-1,85
 449 522 449 522 434 463 c 128,-1,86
 419 404 419 404 411 351.5 c 128,-1,87
 403 299 403 299 403 264 c 0,88,89
 403 226 403 226 412.5 209.5 c 128,-1,90
 422 193 422 193 442 193 c 0,91,92
 459 193 459 193 481 209 c 128,-1,93
 503 225 503 225 529.5 266.5 c 128,-1,94
 556 308 556 308 586.5 379 c 128,-1,95
 617 450 617 450 651 561 c 2,96,-1
 713 764 l 1,78,79
EndSplineSet
Substitution2: "'case' Case-Sensitive Forms lookup 0 subtable" at.case
EndChar
StartChar: A
Encoding: 65 65 4
Width: 1126
GlyphClass: 2
Flags: W
AnchorPoint: "Anchor-11" 0 1700 basechar 0
AnchorPoint: "Anchor-10" 1126 1700 basechar 0
AnchorPoint: "Anchor-9" 1045 0 basechar 0
AnchorPoint: "Anchor-8" 563 -50 basechar 0
AnchorPoint: "Anchor-7" 600 1300 basechar 0
AnchorPoint: "Anchor-6" 1126 -350 basechar 0
AnchorPoint: "Anchor-5" 1126 1700 basechar 0
AnchorPoint: "Anchor-4" 640 1300 basechar 0
AnchorPoint: "Anchor-2" 563 -180 basechar 0
AnchorPoint: "Anchor-1" 916 1390 basechar 0
AnchorPoint: "Anchor-0" 563 1430 basechar 0
LayerCount: 2
Back
Fore
SplineSet
1014 0 m 1,0,-1
 825 0 l 1,1,-1
 793 285 l 1,2,-1
 248 285 l 1,3,-1
 98 0 l 1,4,-1
 -92 0 l 1,5,-1
 604 1307 l 1,6,-1
 848 1307 l 1,7,-1
 1014 0 l 1,0,-1
772 444 m 1,8,-1
 692 1143 l 1,9,-1
 330 444 l 1,10,-1
 772 444 l 1,8,-1
EndSplineSet
Substitution2: "'sups' Superscript lookup 34 subtable" A.superior
EndChar
StartChar: B
Encoding: 66 66 5
Width: 1126
GlyphClass: 2
Flags: W
AnchorPoint: "Anchor-11" 0 1700 basechar 0
AnchorPoint: "Anchor-10" 1126 1700 basechar 0
AnchorPoint: "Anchor-9" 660 25 basechar 0
AnchorPoint: "Anchor-7" 770 1250 basechar 0
AnchorPoint: "Anchor-6" 1126 -350 basechar 0
AnchorPoint: "Anchor-5" 1126 1700 basechar 0
AnchorPoint: "Anchor-4" 850 1230 basechar 0
AnchorPoint: "Anchor-2" 563 -180 basechar 0
AnchorPoint: "Anchor-1" 996 1390 basechar 0
AnchorPoint: "Anchor-0" 563 1430 basechar 0
LayerCount: 2
Back
Fore
SplineSet
55 0 m 1,0,-1
 317 1307 l 1,1,-1
 680 1307 l 2,2,3
 873 1307 873 1307 971 1242.5 c 128,-1,4
 1069 1178 1069 1178 1069 1053 c 0,5,6
 1069 998 1069 998 1054.5 942.5 c 128,-1,7
 1040 887 1040 887 1007 838 c 128,-1,8
 974 789 974 789 920 749 c 128,-1,9
 866 709 866 709 788 686 c 1,10,11
 832 678 832 678 870 659 c 128,-1,12
 908 640 908 640 936.5 610 c 128,-1,13
 965 580 965 580 981 540 c 128,-1,14
 997 500 997 500 997 449 c 256,15,16
 997 398 997 398 984 345 c 128,-1,17
 971 292 971 292 941 242 c 128,-1,18
 911 192 911 192 865.5 148 c 128,-1,19
 820 104 820 104 755 71 c 128,-1,20
 690 38 690 38 604 19 c 128,-1,21
 518 0 518 0 410 0 c 2,22,-1
 55 0 l 1,0,-1
881 1014 m 0,23,24
 881 1045 881 1045 869 1071.5 c 128,-1,25
 857 1098 857 1098 830 1117 c 128,-1,26
 803 1136 803 1136 758.5 1146.5 c 128,-1,27
 714 1157 714 1157 649 1157 c 2,28,-1
 465 1157 l 1,29,-1
 383 748 l 1,30,-1
 553 748 l 2,31,32
 650 748 650 748 713 775 c 128,-1,33
 776 802 776 802 813.5 842 c 128,-1,34
 851 882 851 882 866 928.5 c 128,-1,35
 881 975 881 975 881 1014 c 0,23,24
807 432 m 0,36,37
 807 511 807 511 740 555.5 c 128,-1,38
 673 600 673 600 545 600 c 2,39,-1
 354 600 l 1,40,-1
 264 150 l 1,41,-1
 438 150 l 2,42,43
 517 150 517 150 575 164 c 128,-1,44
 633 178 633 178 674 201.5 c 128,-1,45
 715 225 715 225 741 254.5 c 128,-1,46
 767 284 767 284 781.5 315.5 c 128,-1,47
 796 347 796 347 801.5 377 c 128,-1,48
 807 407 807 407 807 432 c 0,36,37
EndSplineSet
Substitution2: "'sups' Superscript lookup 34 subtable" B.superior
EndChar
StartChar: C
Encoding: 67 67 6
Width: 1126
GlyphClass: 2
Flags: W
AnchorPoint: "Anchor-11" 0 1700 basechar 0
AnchorPoint: "Anchor-10" 1126 1700 basechar 0
AnchorPoint: "Anchor-9" 730 0 basechar 0
AnchorPoint: "Anchor-8" 640 0 basechar 0
AnchorPoint: "Anchor-7" 900 1250 basechar 0
AnchorPoint: "Anchor-6" 1126 -350 basechar 0
AnchorPoint: "Anchor-5" 1126 1700 basechar 0
AnchorPoint: "Anchor-4" 900 1270 basechar 0
AnchorPoint: "Anchor-2" 623 -180 basechar 0
AnchorPoint: "Anchor-1" 1045 1390 basechar 0
AnchorPoint: "Anchor-0" 623 1430 basechar 0
LayerCount: 2
Back
Fore
SplineSet
903 49 m 1,0,1
 818 17 818 17 737.5 0.5 c 128,-1,2
 657 -16 657 -16 569 -16 c 0,3,4
 342 -16 342 -16 219 98 c 128,-1,5
 96 212 96 212 96 442 c 0,6,7
 96 538 96 538 115 640.5 c 128,-1,8
 134 743 134 743 173.5 841 c 128,-1,9
 213 939 213 939 273 1026.5 c 128,-1,10
 333 1114 333 1114 414 1180 c 128,-1,11
 495 1246 495 1246 598 1284.5 c 128,-1,12
 701 1323 701 1323 827 1323 c 0,13,14
 918 1323 918 1323 998.5 1307.5 c 128,-1,15
 1079 1292 1079 1292 1145 1260 c 1,16,-1
 1110 1085 l 1,17,18
 1047 1124 1047 1124 977 1144.5 c 128,-1,19
 907 1165 907 1165 817 1165 c 0,20,21
 723 1165 723 1165 647 1133 c 128,-1,22
 571 1101 571 1101 512.5 1047.5 c 128,-1,23
 454 994 454 994 411.5 923.5 c 128,-1,24
 369 853 369 853 342 775.5 c 128,-1,25
 315 698 315 698 302 618.5 c 128,-1,26
 289 539 289 539 289 467 c 0,27,28
 289 143 289 143 602 143 c 0,29,30
 686 143 686 143 772.5 162.5 c 128,-1,31
 859 182 859 182 936 217 c 1,32,-1
 903 49 l 1,0,1
EndSplineSet
Substitution2: "'sups' Superscript lookup 34 subtable" C.superior
EndChar
StartChar: D
Encoding: 68 68 7
Width: 1126
GlyphClass: 2
Flags: W
AnchorPoint: "Anchor-11" 0 1700 basechar 0
AnchorPoint: "Anchor-10" 1126 1700 basechar 0
AnchorPoint: "Anchor-9" 570 25 basechar 0
AnchorPoint: "Anchor-7" 770 1230 basechar 0
AnchorPoint: "Anchor-6" 1126 -350 basechar 0
AnchorPoint: "Anchor-5" 1126 1700 basechar 0
AnchorPoint: "Anchor-4" 860 1170 basechar 0
AnchorPoint: "Anchor-2" 523 -180 basechar 0
AnchorPoint: "Anchor-1" 1003 1390 basechar 0
AnchorPoint: "Anchor-0" 523 1430 basechar 0
LayerCount: 2
Back
Fore
SplineSet
6 0 m 1,0,-1
 268 1307 l 1,1,-1
 596 1307 l 2,2,3
 848 1307 848 1307 976 1199.5 c 128,-1,4
 1104 1092 1104 1092 1104 866 c 0,5,6
 1104 826 1104 826 1099 767 c 128,-1,7
 1094 708 1094 708 1080 640 c 128,-1,8
 1066 572 1066 572 1040.5 497.5 c 128,-1,9
 1015 423 1015 423 974 352 c 128,-1,10
 933 281 933 281 874 217 c 128,-1,11
 815 153 815 153 734.5 105 c 128,-1,12
 654 57 654 57 550 28.5 c 128,-1,13
 446 0 446 0 313 0 c 2,14,-1
 6 0 l 1,0,-1
920 858 m 0,15,16
 920 939 920 939 898.5 995.5 c 128,-1,17
 877 1052 877 1052 834 1088 c 128,-1,18
 791 1124 791 1124 726 1140.5 c 128,-1,19
 661 1157 661 1157 575 1157 c 2,20,-1
 416 1157 l 1,21,-1
 215 154 l 1,22,-1
 336 154 l 2,23,24
 434 154 434 154 511 177 c 128,-1,25
 588 200 588 200 647.5 239.5 c 128,-1,26
 707 279 707 279 750 331 c 128,-1,27
 793 383 793 383 823.5 441 c 128,-1,28
 854 499 854 499 873 559 c 128,-1,29
 892 619 892 619 902.5 674.5 c 128,-1,30
 913 730 913 730 916.5 777.5 c 128,-1,31
 920 825 920 825 920 858 c 0,15,16
EndSplineSet
Substitution2: "'sups' Superscript lookup 34 subtable" D.superior
EndChar
StartChar: E
Encoding: 69 69 8
Width: 1126
GlyphClass: 2
Flags: W
AnchorPoint: "Anchor-11" 0 1700 basechar 0
AnchorPoint: "Anchor-10" 1126 1700 basechar 0
AnchorPoint: "Anchor-9" 890 0 basechar 0
AnchorPoint: "Anchor-8" 563 0 basechar 0
AnchorPoint: "Anchor-7" 840 1300 basechar 0
AnchorPoint: "Anchor-6" 1126 -350 basechar 0
AnchorPoint: "Anchor-5" 1126 1700 basechar 0
AnchorPoint: "Anchor-4" 870 1300 basechar 0
AnchorPoint: "Anchor-2" 563 -180 basechar 0
AnchorPoint: "Anchor-1" 994 1390 basechar 0
AnchorPoint: "Anchor-0" 563 1430 basechar 0
LayerCount: 2
Back
Fore
SplineSet
842 0 m 1,0,-1
 98 0 l 1,1,-1
 360 1307 l 1,2,-1
 1104 1307 l 1,3,-1
 1073 1157 l 1,4,-1
 508 1157 l 1,5,-1
 426 752 l 1,6,-1
 969 752 l 1,7,-1
 940 602 l 1,8,-1
 397 602 l 1,9,-1
 307 152 l 1,10,-1
 872 152 l 1,11,-1
 842 0 l 1,0,-1
EndSplineSet
Substitution2: "'sups' Superscript lookup 34 subtable" E.superior
EndChar
StartChar: F
Encoding: 70 70 9
Width: 1126
GlyphClass: 2
Flags: W
AnchorPoint: "Anchor-11" 0 1700 basechar 0
AnchorPoint: "Anchor-10" 1126 1700 basechar 0
AnchorPoint: "Anchor-9" 320 0 basechar 0
AnchorPoint: "Anchor-7" 840 1300 basechar 0
AnchorPoint: "Anchor-6" 1126 -350 basechar 0
AnchorPoint: "Anchor-5" 1126 1700 basechar 0
AnchorPoint: "Anchor-4" 870 1300 basechar 0
AnchorPoint: "Anchor-2" 563 -180 basechar 0
AnchorPoint: "Anchor-1" 992 1390 basechar 0
AnchorPoint: "Anchor-0" 563 1430 basechar 0
LayerCount: 2
Back
Fore
SplineSet
1071 1155 m 1,0,-1
 516 1155 l 1,1,-1
 430 731 l 1,2,-1
 956 731 l 1,3,-1
 928 582 l 1,4,-1
 401 582 l 1,5,-1
 285 0 l 1,6,-1
 102 0 l 1,7,-1
 365 1307 l 1,8,-1
 1102 1307 l 1,9,-1
 1071 1155 l 1,0,-1
EndSplineSet
Substitution2: "'sups' Superscript lookup 34 subtable" F.superior
EndChar
StartChar: G
Encoding: 71 71 10
Width: 1126
GlyphClass: 2
Flags: W
AnchorPoint: "Anchor-11" 0 1700 basechar 0
AnchorPoint: "Anchor-10" 1126 1700 basechar 0
AnchorPoint: "Anchor-9" 750 0 basechar 0
AnchorPoint: "Anchor-8" 640 0 basechar 0
AnchorPoint: "Anchor-7" 900 1250 basechar 0
AnchorPoint: "Anchor-6" 1126 -350 basechar 0
AnchorPoint: "Anchor-5" 1126 1700 basechar 0
AnchorPoint: "Anchor-4" 920 1270 basechar 0
AnchorPoint: "Anchor-2" 623 -180 basechar 0
AnchorPoint: "Anchor-1" 1062 1390 basechar 0
AnchorPoint: "Anchor-0" 623 1430 basechar 0
LayerCount: 2
Back
Fore
SplineSet
1120 1083 m 1,0,1
 1088 1102 1088 1102 1055.5 1117.5 c 128,-1,2
 1023 1133 1023 1133 987.5 1143.5 c 128,-1,3
 952 1154 952 1154 913 1159.5 c 128,-1,4
 874 1165 874 1165 829 1165 c 0,5,6
 728 1165 728 1165 646 1133.5 c 128,-1,7
 564 1102 564 1102 501 1048.5 c 128,-1,8
 438 995 438 995 392 924.5 c 128,-1,9
 346 854 346 854 316 775.5 c 128,-1,10
 286 697 286 697 272 616 c 128,-1,11
 258 535 258 535 258 461 c 0,12,13
 258 385 258 385 277 325 c 128,-1,14
 296 265 296 265 336 224 c 128,-1,15
 376 183 376 183 438.5 161 c 128,-1,16
 501 139 501 139 588 139 c 0,17,18
 607 139 607 139 631 141 c 128,-1,19
 655 143 655 143 679.5 146.5 c 128,-1,20
 704 150 704 150 726.5 155 c 128,-1,21
 749 160 749 160 766 166 c 1,22,-1
 850 582 l 1,23,-1
 584 582 l 1,24,-1
 612 729 l 1,25,-1
 1055 729 l 1,26,-1
 922 61 l 1,27,28
 832 23 832 23 735.5 2.5 c 128,-1,29
 639 -18 639 -18 551 -18 c 0,30,31
 439 -18 439 -18 350 11 c 128,-1,32
 261 40 261 40 199.5 98.5 c 128,-1,33
 138 157 138 157 105 245 c 128,-1,34
 72 333 72 333 72 451 c 0,35,36
 72 556 72 556 93.5 662 c 128,-1,37
 115 768 115 768 158.5 865 c 128,-1,38
 202 962 202 962 266 1046 c 128,-1,39
 330 1130 330 1130 415.5 1192 c 128,-1,40
 501 1254 501 1254 606.5 1289.5 c 128,-1,41
 712 1325 712 1325 838 1325 c 0,42,43
 926 1325 926 1325 1007.5 1309.5 c 128,-1,44
 1089 1294 1089 1294 1155 1260 c 1,45,-1
 1120 1083 l 1,0,1
EndSplineSet
Substitution2: "'sups' Superscript lookup 34 subtable" G.superior
EndChar
StartChar: H
Encoding: 72 72 11
Width: 1126
GlyphClass: 2
Flags: W
AnchorPoint: "Anchor-11" 0 1700 basechar 0
AnchorPoint: "Anchor-10" 1126 1700 basechar 0
AnchorPoint: "Anchor-9" 950 0 basechar 0
AnchorPoint: "Anchor-7" 940 1300 basechar 0
AnchorPoint: "Anchor-6" 1126 -350 basechar 0
AnchorPoint: "Anchor-5" 1126 1700 basechar 0
AnchorPoint: "Anchor-4" 940 1300 basechar 0
AnchorPoint: "Anchor-2" 563 -180 basechar 0
AnchorPoint: "Anchor-1" 1066 1390 basechar 0
AnchorPoint: "Anchor-0" 563 1430 basechar 0
LayerCount: 2
Back
Fore
SplineSet
913 0 m 1,0,-1
 735 0 l 1,1,-1
 856 600 l 1,2,-1
 307 600 l 1,3,-1
 186 0 l 1,4,-1
 8 0 l 1,5,-1
 270 1307 l 1,6,-1
 449 1307 l 1,7,-1
 338 754 l 1,8,-1
 887 754 l 1,9,-1
 997 1307 l 1,10,-1
 1176 1307 l 1,11,-1
 913 0 l 1,0,-1
EndSplineSet
Substitution2: "'sups' Superscript lookup 34 subtable" H.superior
EndChar
StartChar: I
Encoding: 73 73 12
Width: 1126
GlyphClass: 2
Flags: W
AnchorPoint: "Anchor-11" 0 1700 basechar 0
AnchorPoint: "Anchor-10" 1126 1700 basechar 0
AnchorPoint: "Anchor-9" 890 0 basechar 0
AnchorPoint: "Anchor-8" 563 0 basechar 0
AnchorPoint: "Anchor-7" 840 1300 basechar 0
AnchorPoint: "Anchor-6" 1126 -350 basechar 0
AnchorPoint: "Anchor-5" 1126 1700 basechar 0
AnchorPoint: "Anchor-4" 880 1300 basechar 0
AnchorPoint: "Anchor-2" 563 -180 basechar 0
AnchorPoint: "Anchor-1" 1004 1390 basechar 0
AnchorPoint: "Anchor-0" 563 1430 basechar 0
LayerCount: 2
Back
Fore
SplineSet
602 1157 m 1,0,-1
 301 1157 l 1,1,-1
 332 1307 l 1,2,-1
 1114 1307 l 1,3,-1
 1083 1157 l 1,4,-1
 782 1157 l 1,5,-1
 582 152 l 1,6,-1
 883 152 l 1,7,-1
 852 0 l 1,8,-1
 70 0 l 1,9,-1
 100 152 l 1,10,-1
 401 152 l 1,11,-1
 602 1157 l 1,0,-1
EndSplineSet
Substitution2: "'sups' Superscript lookup 34 subtable" I.superior
EndChar
StartChar: J
Encoding: 74 74 13
Width: 1126
GlyphClass: 2
Flags: W
AnchorPoint: "Anchor-11" 0 1700 basechar 0
AnchorPoint: "Anchor-10" 1126 1700 basechar 0
AnchorPoint: "Anchor-9" 550 0 basechar 0
AnchorPoint: "Anchor-7" 790 1300 basechar 0
AnchorPoint: "Anchor-6" 1126 -350 basechar 0
AnchorPoint: "Anchor-5" 1126 1700 basechar 0
AnchorPoint: "Anchor-4" 800 1300 basechar 0
AnchorPoint: "Anchor-2" 563 -180 basechar 0
AnchorPoint: "Anchor-1" 927 1390 basechar 0
AnchorPoint: "Anchor-0" 563 1430 basechar 0
LayerCount: 2
Back
Fore
SplineSet
1036 1307 m 1,0,-1
 850 379 l 2,1,2
 835 301 835 301 799 231 c 128,-1,3
 763 161 763 161 703 107 c 128,-1,4
 643 53 643 53 558.5 19.5 c 128,-1,5
 474 -14 474 -14 369 -14 c 0,6,7
 272 -14 272 -14 189.5 17 c 128,-1,8
 107 48 107 48 35 111 c 1,9,-1
 139 238 l 1,10,11
 189 195 189 195 250 167.5 c 128,-1,12
 311 140 311 140 389 140 c 0,13,14
 443 140 443 140 489.5 156.5 c 128,-1,15
 536 173 536 173 573 207 c 128,-1,16
 610 241 610 241 636 292.5 c 128,-1,17
 662 344 662 344 675 410 c 2,18,-1
 824 1153 l 1,19,-1
 327 1153 l 1,20,-1
 358 1307 l 1,21,-1
 1036 1307 l 1,0,-1
EndSplineSet
Substitution2: "'sups' Superscript lookup 34 subtable" J.superior
EndChar
StartChar: K
Encoding: 75 75 14
Width: 1126
GlyphClass: 2
Flags: W
AnchorPoint: "Anchor-11" 0 1700 basechar 0
AnchorPoint: "Anchor-10" 1126 1700 basechar 0
AnchorPoint: "Anchor-9" 980 0 basechar 0
AnchorPoint: "Anchor-8" 563 -50 basechar 0
AnchorPoint: "Anchor-7" 840 1300 basechar 0
AnchorPoint: "Anchor-6" 1126 -350 basechar 0
AnchorPoint: "Anchor-5" 1126 1700 basechar 0
AnchorPoint: "Anchor-4" 860 1300 basechar 0
AnchorPoint: "Anchor-2" 563 -180 basechar 0
AnchorPoint: "Anchor-1" 1077 1390 basechar 0
AnchorPoint: "Anchor-0" 563 1430 basechar 0
LayerCount: 2
Back
Fore
SplineSet
936 0 m 1,0,-1
 725 0 l 1,1,-1
 362 649 l 1,2,-1
 231 0 l 1,3,-1
 53 0 l 1,4,-1
 315 1307 l 1,5,-1
 494 1307 l 1,6,-1
 373 707 l 1,7,-1
 969 1307 l 1,8,-1
 1194 1307 l 1,9,-1
 541 676 l 1,10,-1
 936 0 l 1,0,-1
EndSplineSet
Substitution2: "'sups' Superscript lookup 34 subtable" K.superior
EndChar
StartChar: L
Encoding: 76 76 15
Width: 1126
GlyphClass: 2
Flags: W
AnchorPoint: "Anchor-11" 0 1700 basechar 0
AnchorPoint: "Anchor-10" 1126 1700 basechar 0
AnchorPoint: "Anchor-9" 920 0 basechar 0
AnchorPoint: "Anchor-8" 640 0 basechar 0
AnchorPoint: "Anchor-7" 320 1300 basechar 0
AnchorPoint: "Anchor-6" 1126 -350 basechar 0
AnchorPoint: "Anchor-5" 1126 1700 basechar 0
AnchorPoint: "Anchor-4" 340 1300 basechar 0
AnchorPoint: "Anchor-2" 563 -180 basechar 0
AnchorPoint: "Anchor-1" 985 1390 basechar 0
AnchorPoint: "Anchor-0" 563 1430 basechar 0
LayerCount: 2
Back
Fore
SplineSet
883 0 m 1,0,-1
 131 0 l 1,1,-1
 393 1307 l 1,2,-1
 573 1307 l 1,3,-1
 341 152 l 1,4,-1
 913 152 l 1,5,-1
 883 0 l 1,0,-1
EndSplineSet
Substitution2: "'sups' Superscript lookup 34 subtable" L.superior
EndChar
StartChar: M
Encoding: 77 77 16
Width: 1126
GlyphClass: 2
Flags: W
AnchorPoint: "Anchor-11" 0 1700 basechar 0
AnchorPoint: "Anchor-10" 1126 1700 basechar 0
AnchorPoint: "Anchor-9" 1010 0 basechar 0
AnchorPoint: "Anchor-7" 940 1300 basechar 0
AnchorPoint: "Anchor-6" 1126 -350 basechar 0
AnchorPoint: "Anchor-5" 1126 1700 basechar 0
AnchorPoint: "Anchor-4" 935 1300 basechar 0
AnchorPoint: "Anchor-2" 563 -180 basechar 0
AnchorPoint: "Anchor-1" 1077 1390 basechar 0
AnchorPoint: "Anchor-0" 563 1430 basechar 0
LayerCount: 2
Back
Fore
SplineSet
975 0 m 1,0,-1
 801 0 l 1,1,-1
 938 815 l 1,2,-1
 989 1128 l 1,3,-1
 891 946 l 1,4,-1
 596 426 l 1,5,-1
 473 426 l 1,6,-1
 387 926 l 1,7,-1
 367 1128 l 1,8,-1
 297 801 l 1,9,-1
 115 0 l 1,10,-1
 -53 0 l 1,11,-1
 272 1307 l 1,12,-1
 475 1307 l 1,13,-1
 553 815 l 1,14,-1
 575 649 l 1,15,-1
 666 815 l 1,16,-1
 948 1307 l 1,17,-1
 1174 1307 l 1,18,-1
 975 0 l 1,0,-1
EndSplineSet
Substitution2: "'sups' Superscript lookup 34 subtable" M.superior
EndChar
StartChar: N
Encoding: 78 78 17
Width: 1126
GlyphClass: 2
Flags: W
AnchorPoint: "Anchor-11" 0 1700 basechar 0
AnchorPoint: "Anchor-10" 1126 1700 basechar 0
AnchorPoint: "Anchor-9" 940 0 basechar 0
AnchorPoint: "Anchor-8" 563 -50 basechar 0
AnchorPoint: "Anchor-7" 930 1300 basechar 0
AnchorPoint: "Anchor-6" 1126 -350 basechar 0
AnchorPoint: "Anchor-5" 1126 1700 basechar 0
AnchorPoint: "Anchor-4" 930 1300 basechar 0
AnchorPoint: "Anchor-2" 563 -180 basechar 0
AnchorPoint: "Anchor-1" 1058 1390 basechar 0
AnchorPoint: "Anchor-0" 563 1430 basechar 0
LayerCount: 2
Back
Fore
SplineSet
900 0 m 1,0,-1
 677 0 l 1,1,-1
 460 815 l 1,2,-1
 400 1077 l 1,3,-1
 269 418 l 1,4,-1
 185 0 l 1,5,-1
 19 0 l 1,6,-1
 282 1307 l 1,7,-1
 503 1307 l 1,8,-1
 710 535 l 1,9,-1
 781 236 l 1,10,-1
 921 936 l 1,11,-1
 996 1307 l 1,12,-1
 1162 1307 l 1,13,-1
 900 0 l 1,0,-1
EndSplineSet
Substitution2: "'sups' Superscript lookup 34 subtable" N.superior
EndChar
StartChar: O
Encoding: 79 79 18
Width: 1126
GlyphClass: 2
Flags: W
AnchorPoint: "Anchor-11" 0 1700 basechar 0
AnchorPoint: "Anchor-10" 1126 1700 basechar 0
AnchorPoint: "Anchor-9" 650 0 basechar 0
AnchorPoint: "Anchor-8" 563 0 basechar 0
AnchorPoint: "Anchor-7" 880 1170 basechar 0
AnchorPoint: "Anchor-6" 1126 -350 basechar 0
AnchorPoint: "Anchor-5" 1126 1700 basechar 0
AnchorPoint: "Anchor-4" 905 1170 basechar 0
AnchorPoint: "Anchor-2" 563 -180 basechar 0
AnchorPoint: "Anchor-1" 1026 1390 basechar 0
AnchorPoint: "Anchor-0" 563 1430 basechar 0
LayerCount: 2
Back
Fore
SplineSet
461 -18 m 0,0,1
 261 -18 261 -18 161 96.5 c 128,-1,2
 61 211 61 211 61 422 c 0,3,4
 61 523 61 523 79 629.5 c 128,-1,5
 97 736 97 736 133.5 836 c 128,-1,6
 170 936 170 936 225 1025 c 128,-1,7
 280 1114 280 1114 353.5 1180.5 c 128,-1,8
 427 1247 427 1247 520 1286 c 128,-1,9
 613 1325 613 1325 725 1325 c 0,10,11
 924 1325 924 1325 1024 1210 c 128,-1,12
 1124 1095 1124 1095 1124 885 c 0,13,14
 1124 784 1124 784 1106 677.5 c 128,-1,15
 1088 571 1088 571 1051.5 470.5 c 128,-1,16
 1015 370 1015 370 960.5 281 c 128,-1,17
 906 192 906 192 832 125.5 c 128,-1,18
 758 59 758 59 665.5 20.5 c 128,-1,19
 573 -18 573 -18 461 -18 c 0,0,1
942 872 m 0,20,21
 942 940 942 940 928.5 995 c 128,-1,22
 915 1050 915 1050 886 1088.5 c 128,-1,23
 857 1127 857 1127 812.5 1148.5 c 128,-1,24
 768 1170 768 1170 705 1170 c 0,25,26
 624 1170 624 1170 558 1133 c 128,-1,27
 492 1096 492 1096 440.5 1035.5 c 128,-1,28
 389 975 389 975 352 897.5 c 128,-1,29
 315 820 315 820 291 738.5 c 128,-1,30
 267 657 267 657 255.5 577.5 c 128,-1,31
 244 498 244 498 244 434 c 0,32,33
 244 366 244 366 257.5 311.5 c 128,-1,34
 271 257 271 257 299.5 218 c 128,-1,35
 328 179 328 179 373 158 c 128,-1,36
 418 137 418 137 481 137 c 0,37,38
 562 137 562 137 628 173.5 c 128,-1,39
 694 210 694 210 745.5 270.5 c 128,-1,40
 797 331 797 331 834 408.5 c 128,-1,41
 871 486 871 486 895 567.5 c 128,-1,42
 919 649 919 649 930.5 728.5 c 128,-1,43
 942 808 942 808 942 872 c 0,20,21
EndSplineSet
Substitution2: "'sups' Superscript lookup 34 subtable" O.superior
EndChar
StartChar: P
Encoding: 80 80 19
Width: 1126
GlyphClass: 2
Flags: W
AnchorPoint: "Anchor-11" 0 1700 basechar 0
AnchorPoint: "Anchor-10" 1126 1700 basechar 0
AnchorPoint: "Anchor-9" 270 0 basechar 0
AnchorPoint: "Anchor-7" 770 1250 basechar 0
AnchorPoint: "Anchor-6" 1126 -350 basechar 0
AnchorPoint: "Anchor-5" 1126 1700 basechar 0
AnchorPoint: "Anchor-4" 880 1210 basechar 0
AnchorPoint: "Anchor-2" 563 -180 basechar 0
AnchorPoint: "Anchor-1" 1016 1390 basechar 0
AnchorPoint: "Anchor-0" 563 1430 basechar 0
LayerCount: 2
Back
Fore
SplineSet
328 469 m 1,0,-1
 233 0 l 1,1,-1
 55 0 l 1,2,-1
 317 1307 l 1,3,-1
 676 1307 l 2,4,5
 765 1307 765 1307 842.5 1288.5 c 128,-1,6
 920 1270 920 1270 978 1231 c 128,-1,7
 1036 1192 1036 1192 1069 1131 c 128,-1,8
 1102 1070 1102 1070 1102 985 c 0,9,10
 1102 923 1102 923 1085 860.5 c 128,-1,11
 1068 798 1068 798 1034 741 c 128,-1,12
 1000 684 1000 684 949.5 634 c 128,-1,13
 899 584 899 584 832.5 547.5 c 128,-1,14
 766 511 766 511 682.5 490 c 128,-1,15
 599 469 599 469 500 469 c 2,16,-1
 328 469 l 1,0,-1
915 969 m 0,17,18
 915 1059 915 1059 850 1108 c 128,-1,19
 785 1157 785 1157 655 1157 c 2,20,-1
 465 1157 l 1,21,-1
 358 619 l 1,22,-1
 516 619 l 2,23,24
 595 619 595 619 655.5 635.5 c 128,-1,25
 716 652 716 652 760.5 679.5 c 128,-1,26
 805 707 805 707 834.5 742.5 c 128,-1,27
 864 778 864 778 882 817 c 128,-1,28
 900 856 900 856 907.5 895.5 c 128,-1,29
 915 935 915 935 915 969 c 0,17,18
EndSplineSet
Substitution2: "'sups' Superscript lookup 34 subtable" P.superior
EndChar
StartChar: Q
Encoding: 81 81 20
Width: 1126
GlyphClass: 2
Flags: W
AnchorPoint: "Anchor-11" 0 1700 basechar 0
AnchorPoint: "Anchor-10" 1126 1700 basechar 0
AnchorPoint: "Anchor-9" 700 -300 basechar 0
AnchorPoint: "Anchor-7" 880 1170 basechar 0
AnchorPoint: "Anchor-6" 1126 -350 basechar 0
AnchorPoint: "Anchor-5" 1126 1700 basechar 0
AnchorPoint: "Anchor-4" 905 1170 basechar 0
AnchorPoint: "Anchor-2" 563 -500 basechar 0
AnchorPoint: "Anchor-1" 1026 1390 basechar 0
AnchorPoint: "Anchor-0" 563 1430 basechar 0
LayerCount: 2
Back
Fore
SplineSet
528 -14 m 1,0,1
 526 -57 526 -57 535 -92.5 c 128,-1,2
 544 -128 544 -128 565.5 -153.5 c 128,-1,3
 587 -179 587 -179 622 -193 c 128,-1,4
 657 -207 657 -207 707 -207 c 0,5,6
 755 -207 755 -207 804.5 -191 c 128,-1,7
 854 -175 854 -175 909 -137 c 1,8,-1
 981 -260 l 1,9,10
 904 -314 904 -314 830 -337 c 128,-1,11
 756 -360 756 -360 682 -360 c 0,12,13
 602 -360 602 -360 538 -338 c 128,-1,14
 474 -316 474 -316 431 -272 c 128,-1,15
 388 -228 388 -228 369.5 -162.5 c 128,-1,16
 351 -97 351 -97 362 -10 c 1,17,18
 212 16 212 16 136.5 127.5 c 128,-1,19
 61 239 61 239 61 422 c 0,20,21
 61 523 61 523 79 629.5 c 128,-1,22
 97 736 97 736 133.5 836 c 128,-1,23
 170 936 170 936 225 1025 c 128,-1,24
 280 1114 280 1114 353.5 1180.5 c 128,-1,25
 427 1247 427 1247 520 1286 c 128,-1,26
 613 1325 613 1325 725 1325 c 0,27,28
 924 1325 924 1325 1024 1210 c 128,-1,29
 1124 1095 1124 1095 1124 885 c 0,30,31
 1124 789 1124 789 1108 688.5 c 128,-1,32
 1092 588 1092 588 1059.5 492.5 c 128,-1,33
 1027 397 1027 397 977.5 310.5 c 128,-1,34
 928 224 928 224 862 156 c 128,-1,35
 796 88 796 88 712.5 43 c 128,-1,36
 629 -2 629 -2 528 -14 c 1,0,1
942 872 m 0,37,38
 942 940 942 940 928.5 995 c 128,-1,39
 915 1050 915 1050 886 1089 c 128,-1,40
 857 1128 857 1128 812.5 1149 c 128,-1,41
 768 1170 768 1170 705 1170 c 0,42,43
 624 1170 624 1170 558 1133 c 128,-1,44
 492 1096 492 1096 440.5 1035.5 c 128,-1,45
 389 975 389 975 352 897.5 c 128,-1,46
 315 820 315 820 291 738.5 c 128,-1,47
 267 657 267 657 255.5 577.5 c 128,-1,48
 244 498 244 498 244 434 c 0,49,50
 244 366 244 366 257.5 311.5 c 128,-1,51
 271 257 271 257 299.5 218 c 128,-1,52
 328 179 328 179 373 158 c 128,-1,53
 418 137 418 137 481 137 c 0,54,55
 562 137 562 137 628 173.5 c 128,-1,56
 694 210 694 210 745.5 270.5 c 128,-1,57
 797 331 797 331 834 408.5 c 128,-1,58
 871 486 871 486 895 567.5 c 128,-1,59
 919 649 919 649 930.5 728.5 c 128,-1,60
 942 808 942 808 942 872 c 0,37,38
EndSplineSet
Substitution2: "'sups' Superscript lookup 34 subtable" Q.superior
EndChar
StartChar: R
Encoding: 82 82 21
Width: 1126
GlyphClass: 2
Flags: W
AnchorPoint: "Anchor-11" 0 1700 basechar 0
AnchorPoint: "Anchor-10" 1126 1700 basechar 0
AnchorPoint: "Anchor-9" 990 0 basechar 0
AnchorPoint: "Anchor-8" 563 -50 basechar 0
AnchorPoint: "Anchor-7" 770 1250 basechar 0
AnchorPoint: "Anchor-6" 1126 -350 basechar 0
AnchorPoint: "Anchor-5" 1126 1700 basechar 0
AnchorPoint: "Anchor-4" 830 1210 basechar 0
AnchorPoint: "Anchor-2" 563 -180 basechar 0
AnchorPoint: "Anchor-1" 951 1390 basechar 0
AnchorPoint: "Anchor-0" 523 1430 basechar 0
LayerCount: 2
Back
Fore
SplineSet
944 0 m 1,0,-1
 752 0 l 1,1,-1
 641 418 l 2,2,3
 628 466 628 466 610.5 497.5 c 128,-1,4
 593 529 593 529 569.5 547.5 c 128,-1,5
 546 566 546 566 515.5 574 c 128,-1,6
 485 582 485 582 446 582 c 2,7,-1
 362 582 l 1,8,-1
 246 0 l 1,9,-1
 68 0 l 1,10,-1
 330 1307 l 1,11,-1
 668 1307 l 2,12,13
 765 1307 765 1307 836.5 1288 c 128,-1,14
 908 1269 908 1269 955 1233.5 c 128,-1,15
 1002 1198 1002 1198 1024.5 1146.5 c 128,-1,16
 1047 1095 1047 1095 1047 1030 c 0,17,18
 1047 953 1047 953 1022 887 c 128,-1,19
 997 821 997 821 951.5 768.5 c 128,-1,20
 906 716 906 716 841 678.5 c 128,-1,21
 776 641 776 641 696 621 c 1,22,23
 747 602 747 602 775.5 550 c 128,-1,24
 804 498 804 498 825 420 c 2,25,-1
 944 0 l 1,0,-1
860 1001 m 0,26,27
 860 1157 860 1157 649 1157 c 2,28,-1
 477 1157 l 1,29,-1
 391 725 l 1,30,-1
 524 725 l 2,31,32
 605 725 605 725 667.5 747 c 128,-1,33
 730 769 730 769 772.5 806.5 c 128,-1,34
 815 844 815 844 837.5 894 c 128,-1,35
 860 944 860 944 860 1001 c 0,26,27
EndSplineSet
Substitution2: "'sups' Superscript lookup 34 subtable" R.superior
EndChar
StartChar: S
Encoding: 83 83 22
Width: 1126
GlyphClass: 2
Flags: W
AnchorPoint: "Anchor-11" 0 1700 basechar 0
AnchorPoint: "Anchor-10" 1126 1700 basechar 0
AnchorPoint: "Anchor-9" 630 0 basechar 0
AnchorPoint: "Anchor-8" 563 0 basechar 0
AnchorPoint: "Anchor-7" 840 1275 basechar 0
AnchorPoint: "Anchor-6" 1126 -350 basechar 0
AnchorPoint: "Anchor-5" 1126 1700 basechar 0
AnchorPoint: "Anchor-4" 830 1280 basechar 0
AnchorPoint: "Anchor-2" 563 -180 basechar 0
AnchorPoint: "Anchor-1" 967 1390 basechar 0
AnchorPoint: "Anchor-0" 563 1430 basechar 0
LayerCount: 2
Back
Fore
SplineSet
385 -18 m 0,0,1
 333 -18 333 -18 280.5 -14 c 128,-1,2
 228 -10 228 -10 179 -4 c 128,-1,3
 130 2 130 2 87.5 10 c 128,-1,4
 45 18 45 18 14 27 c 1,5,-1
 47 199 l 1,6,7
 118 171 118 171 208.5 155 c 128,-1,8
 299 139 299 139 418 139 c 0,9,10
 515 139 515 139 583 157 c 128,-1,11
 651 175 651 175 694 206 c 128,-1,12
 737 237 737 237 756.5 279 c 128,-1,13
 776 321 776 321 776 369 c 0,14,15
 776 415 776 415 752 448.5 c 128,-1,16
 728 482 728 482 689 510 c 128,-1,17
 650 538 650 538 600 561.5 c 128,-1,18
 550 585 550 585 497.5 610 c 128,-1,19
 445 635 445 635 395 664 c 128,-1,20
 345 693 345 693 306 730.5 c 128,-1,21
 267 768 267 768 243 818 c 128,-1,22
 219 868 219 868 219 934 c 0,23,24
 219 1010 219 1010 254.5 1080.5 c 128,-1,25
 290 1151 290 1151 359.5 1205.5 c 128,-1,26
 429 1260 429 1260 530.5 1292.5 c 128,-1,27
 632 1325 632 1325 764 1325 c 0,28,29
 797 1325 797 1325 837 1322 c 128,-1,30
 877 1319 877 1319 918 1313.5 c 128,-1,31
 959 1308 959 1308 998 1301 c 128,-1,32
 1037 1294 1037 1294 1069 1286 c 1,33,-1
 1036 1126 l 1,34,35
 964 1148 964 1148 888.5 1159.5 c 128,-1,36
 813 1171 813 1171 741 1171 c 0,37,38
 654 1171 654 1171 591 1154.5 c 128,-1,39
 528 1138 528 1138 487 1109 c 128,-1,40
 446 1080 446 1080 426 1040.5 c 128,-1,41
 406 1001 406 1001 406 956 c 256,42,43
 406 911 406 911 430 877.5 c 128,-1,44
 454 844 454 844 493.5 817 c 128,-1,45
 533 790 533 790 583 766.5 c 128,-1,46
 633 743 633 743 685.5 718 c 128,-1,47
 738 693 738 693 788 664 c 128,-1,48
 838 635 838 635 877.5 596.5 c 128,-1,49
 917 558 917 558 941 507.5 c 128,-1,50
 965 457 965 457 965 389 c 0,51,52
 965 303 965 303 927.5 228.5 c 128,-1,53
 890 154 890 154 817 99.5 c 128,-1,54
 744 45 744 45 635.5 13.5 c 128,-1,55
 527 -18 527 -18 385 -18 c 0,0,1
EndSplineSet
Substitution2: "'sups' Superscript lookup 34 subtable" S.superior
EndChar
StartChar: T
Encoding: 84 84 23
Width: 1126
GlyphClass: 2
Flags: W
AnchorPoint: "Anchor-11" 0 1700 basechar 0
AnchorPoint: "Anchor-10" 1126 1700 basechar 0
AnchorPoint: "Anchor-9" 580 0 basechar 0
AnchorPoint: "Anchor-8" 563 0 basechar 0
AnchorPoint: "Anchor-7" 900 1300 basechar 0
AnchorPoint: "Anchor-6" 1126 -350 basechar 0
AnchorPoint: "Anchor-5" 1126 1700 basechar 0
AnchorPoint: "Anchor-4" 965 1300 basechar 0
AnchorPoint: "Anchor-2" 563 -180 basechar 0
AnchorPoint: "Anchor-1" 1090 1390 basechar 0
AnchorPoint: "Anchor-0" 563 1430 basechar 0
LayerCount: 2
Back
Fore
SplineSet
1169 1155 m 1,0,-1
 782 1155 l 1,1,-1
 551 0 l 1,2,-1
 371 0 l 1,3,-1
 602 1155 l 1,4,-1
 215 1155 l 1,5,-1
 246 1307 l 1,6,-1
 1200 1307 l 1,7,-1
 1169 1155 l 1,0,-1
EndSplineSet
Substitution2: "'sups' Superscript lookup 34 subtable" T.superior
EndChar
StartChar: U
Encoding: 85 85 24
Width: 1126
GlyphClass: 2
Flags: W
AnchorPoint: "Anchor-11" 0 1700 basechar 0
AnchorPoint: "Anchor-10" 1126 1700 basechar 0
AnchorPoint: "Anchor-9" 670 0 basechar 0
AnchorPoint: "Anchor-8" 563 0 basechar 0
AnchorPoint: "Anchor-7" 930 1300 basechar 0
AnchorPoint: "Anchor-6" 1126 -350 basechar 0
AnchorPoint: "Anchor-5" 1126 1700 basechar 0
AnchorPoint: "Anchor-4" 940 1300 basechar 0
AnchorPoint: "Anchor-2" 563 -180 basechar 0
AnchorPoint: "Anchor-1" 1068 1390 basechar 0
AnchorPoint: "Anchor-0" 563 1430 basechar 0
LayerCount: 2
Back
Fore
SplineSet
1006 455 m 2,0,1
 984 347 984 347 938.5 259.5 c 128,-1,2
 893 172 893 172 824.5 110.5 c 128,-1,3
 756 49 756 49 666 15.5 c 128,-1,4
 576 -18 576 -18 465 -18 c 0,5,6
 343 -18 343 -18 262.5 14 c 128,-1,7
 182 46 182 46 137.5 104.5 c 128,-1,8
 93 163 93 163 82.5 245 c 128,-1,9
 72 327 72 327 92 428 c 2,10,-1
 268 1307 l 1,11,-1
 446 1307 l 1,12,-1
 272 442 l 2,13,14
 257 365 257 365 259 307 c 128,-1,15
 261 249 261 249 285 210 c 128,-1,16
 309 171 309 171 357 151 c 128,-1,17
 405 131 405 131 481 131 c 0,18,19
 623 131 623 131 709.5 213 c 128,-1,20
 796 295 796 295 825 444 c 2,21,-1
 999 1307 l 1,22,-1
 1178 1307 l 1,23,-1
 1006 455 l 2,0,1
EndSplineSet
Substitution2: "'sups' Superscript lookup 34 subtable" U.superior
EndChar
StartChar: V
Encoding: 86 86 25
Width: 1126
GlyphClass: 2
Flags: W
AnchorPoint: "Anchor-11" 0 1700 basechar 0
AnchorPoint: "Anchor-10" 1126 1700 basechar 0
AnchorPoint: "Anchor-9" 610 0 basechar 0
AnchorPoint: "Anchor-7" 990 1300 basechar 0
AnchorPoint: "Anchor-6" 1126 -350 basechar 0
AnchorPoint: "Anchor-5" 1126 1700 basechar 0
AnchorPoint: "Anchor-4" 1000 1300 basechar 0
AnchorPoint: "Anchor-2" 563 -180 basechar 0
AnchorPoint: "Anchor-1" 1172 1390 basechar 0
AnchorPoint: "Anchor-0" 563 1430 basechar 0
LayerCount: 2
Back
Fore
SplineSet
1282 1307 m 1,0,-1
 575 0 l 1,1,-1
 336 0 l 1,2,-1
 164 1307 l 1,3,-1
 356 1307 l 1,4,-1
 463 426 l 1,5,-1
 489 168 l 1,6,-1
 625 426 l 1,7,-1
 1083 1307 l 1,8,-1
 1282 1307 l 1,0,-1
EndSplineSet
Substitution2: "'sups' Superscript lookup 34 subtable" V.superior
EndChar
StartChar: W
Encoding: 87 87 26
Width: 1126
GlyphClass: 2
Flags: W
AnchorPoint: "Anchor-11" 0 1700 basechar 0
AnchorPoint: "Anchor-10" 1126 1700 basechar 0
AnchorPoint: "Anchor-9" 920 0 basechar 0
AnchorPoint: "Anchor-7" 990 1300 basechar 0
AnchorPoint: "Anchor-6" 1126 -350 basechar 0
AnchorPoint: "Anchor-5" 1126 1700 basechar 0
AnchorPoint: "Anchor-4" 990 1300 basechar 0
AnchorPoint: "Anchor-2" 563 -180 basechar 0
AnchorPoint: "Anchor-1" 1131 1390 basechar 0
AnchorPoint: "Anchor-0" 563 1430 basechar 0
LayerCount: 2
Back
Fore
SplineSet
1241 1307 m 1,0,-1
 891 0 l 1,1,-1
 664 0 l 1,2,-1
 594 465 l 1,3,-1
 580 614 l 1,4,-1
 500 453 l 1,5,-1
 260 0 l 1,6,-1
 33 0 l 1,7,-1
 205 1307 l 1,8,-1
 371 1307 l 1,9,-1
 244 418 l 1,10,-1
 209 174 l 1,11,-1
 313 381 l 1,12,-1
 569 866 l 1,13,-1
 692 866 l 1,14,-1
 770 346 l 1,15,-1
 797 174 l 1,16,-1
 838 354 l 1,17,-1
 1079 1307 l 1,18,-1
 1241 1307 l 1,0,-1
EndSplineSet
Substitution2: "'sups' Superscript lookup 34 subtable" W.superior
EndChar
StartChar: X
Encoding: 88 88 27
Width: 1126
GlyphClass: 2
Flags: W
AnchorPoint: "Anchor-11" 0 1700 basechar 0
AnchorPoint: "Anchor-10" 1126 1700 basechar 0
AnchorPoint: "Anchor-9" 1030 0 basechar 0
AnchorPoint: "Anchor-7" 900 1300 basechar 0
AnchorPoint: "Anchor-6" 1126 -350 basechar 0
AnchorPoint: "Anchor-5" 1126 1700 basechar 0
AnchorPoint: "Anchor-4" 920 1300 basechar 0
AnchorPoint: "Anchor-2" 563 -180 basechar 0
AnchorPoint: "Anchor-1" 1122 1390 basechar 0
AnchorPoint: "Anchor-0" 563 1430 basechar 0
LayerCount: 2
Back
Fore
SplineSet
999 0 m 1,0,-1
 782 0 l 1,1,-1
 571 528 l 1,2,-1
 145 0 l 1,3,-1
 -84 0 l 1,4,-1
 483 668 l 1,5,-1
 213 1307 l 1,6,-1
 416 1307 l 1,7,-1
 616 815 l 1,8,-1
 1016 1307 l 1,9,-1
 1229 1307 l 1,10,-1
 700 676 l 1,11,-1
 999 0 l 1,0,-1
EndSplineSet
Substitution2: "'sups' Superscript lookup 34 subtable" X.superior
EndChar
StartChar: Y
Encoding: 89 89 28
Width: 1126
GlyphClass: 2
Flags: W
AnchorPoint: "Anchor-11" 0 1700 basechar 0
AnchorPoint: "Anchor-10" 1126 1700 basechar 0
AnchorPoint: "Anchor-9" 580 0 basechar 0
AnchorPoint: "Anchor-7" 960 1300 basechar 0
AnchorPoint: "Anchor-6" 1126 -350 basechar 0
AnchorPoint: "Anchor-5" 1126 1700 basechar 0
AnchorPoint: "Anchor-4" 980 1300 basechar 0
AnchorPoint: "Anchor-2" 563 -180 basechar 0
AnchorPoint: "Anchor-1" 1176 1390 basechar 0
AnchorPoint: "Anchor-0" 563 1430 basechar 0
LayerCount: 2
Back
Fore
SplineSet
1286 1307 m 1,0,-1
 645 467 l 1,1,-1
 551 0 l 1,2,-1
 371 0 l 1,3,-1
 465 471 l 1,4,-1
 160 1307 l 1,5,-1
 367 1307 l 1,6,-1
 530 829 l 1,7,-1
 588 637 l 1,8,-1
 711 811 l 1,9,-1
 1073 1307 l 1,10,-1
 1286 1307 l 1,0,-1
EndSplineSet
Substitution2: "'sups' Superscript lookup 34 subtable" Y.superior
EndChar
StartChar: Z
Encoding: 90 90 29
Width: 1126
GlyphClass: 2
Flags: W
AnchorPoint: "Anchor-11" 0 1700 basechar 0
AnchorPoint: "Anchor-10" 1126 1700 basechar 0
AnchorPoint: "Anchor-9" 950 0 basechar 0
AnchorPoint: "Anchor-7" 900 1300 basechar 0
AnchorPoint: "Anchor-6" 1126 -350 basechar 0
AnchorPoint: "Anchor-5" 1126 1700 basechar 0
AnchorPoint: "Anchor-4" 920 1300 basechar 0
AnchorPoint: "Anchor-2" 563 -180 basechar 0
AnchorPoint: "Anchor-1" 1064 1390 basechar 0
AnchorPoint: "Anchor-0" 563 1430 basechar 0
LayerCount: 2
Back
Fore
SplineSet
1133 1167 m 1,0,-1
 270 166 l 1,1,-1
 944 166 l 1,2,-1
 911 0 l 1,3,-1
 8 0 l 1,4,-1
 35 133 l 1,5,-1
 903 1145 l 1,6,-1
 256 1145 l 1,7,-1
 289 1307 l 1,8,-1
 1161 1307 l 1,9,-1
 1133 1167 l 1,0,-1
EndSplineSet
Substitution2: "'sups' Superscript lookup 34 subtable" Z.superior
EndChar
StartChar: bracketleft
Encoding: 91 91 387
Width: 1126
Flags: W
LayerCount: 2
Back
Fore
SplineSet
653 -410 m 1,0,-1
 160 -410 l 1,1,-1
 532 1448 l 1,2,-1
 1025 1448 l 1,3,-1
 997 1308 l 1,4,-1
 670 1308 l 1,5,-1
 354 -270 l 1,6,-1
 681 -270 l 1,7,-1
 653 -410 l 1,0,-1
EndSplineSet
Substitution2: "'case' Case-Sensitive Forms lookup 0 subtable" bracketleft.case
EndChar
StartChar: backslash
Encoding: 92 92 596
Width: 1126
Flags: W
LayerCount: 2
Back
Fore
SplineSet
864 -215 m 1,0,-1
 702 -215 l 1,1,-1
 344 1413 l 1,2,-1
 506 1413 l 1,3,-1
 864 -215 l 1,0,-1
EndSplineSet
EndChar
StartChar: bracketright
Encoding: 93 93 388
Width: 1126
Flags: W
LayerCount: 2
Back
Fore
SplineSet
596 -410 m 1,0,-1
 103 -410 l 1,1,-1
 131 -270 l 1,2,-1
 456 -270 l 1,3,-1
 772 1308 l 1,4,-1
 447 1308 l 1,5,-1
 475 1448 l 1,6,-1
 968 1448 l 1,7,-1
 596 -410 l 1,0,-1
EndSplineSet
Substitution2: "'case' Case-Sensitive Forms lookup 0 subtable" bracketright.case
EndChar
StartChar: asciicircum
Encoding: 94 94 593
Width: 1126
Flags: W
LayerCount: 2
Back
Fore
SplineSet
1044 668 m 1,0,-1
 881 668 l 1,1,-1
 692 1169 l 1,2,-1
 319 668 l 1,3,-1
 152 668 l 1,4,-1
 647 1307 l 1,5,-1
 788 1307 l 1,6,-1
 1044 668 l 1,0,-1
EndSplineSet
EndChar
StartChar: underscore
Encoding: 95 95 597
Width: 1126
Flags: W
LayerCount: 2
Back
Fore
SplineSet
942 -410 m 1,0,-1
 -184 -410 l 1,1,-1
 -156 -266 l 1,2,-1
 971 -266 l 1,3,-1
 942 -410 l 1,0,-1
EndSplineSet
EndChar
StartChar: grave
Encoding: 96 96 316
Width: 1126
Flags: W
LayerCount: 2
Back
Fore
SplineSet
797 1171 m 1,0,-1
 623 1171 l 1,1,-1
 315 1413 l 1,2,-1
 567 1413 l 1,3,-1
 797 1171 l 1,0,-1
0 1004 m 1024,4,-1
EndSplineSet
Substitution2: "'locl' Localized Forms in Greek lookup 36 subtable" uni1FEF
EndChar
StartChar: a
Encoding: 97 97 131
Width: 1126
GlyphClass: 2
Flags: W
AnchorPoint: "Anchor-11" 0 1700 basechar 0
AnchorPoint: "Anchor-10" 1126 1700 basechar 0
AnchorPoint: "Anchor-9" 950 0 basechar 0
AnchorPoint: "Anchor-8" 500 0 basechar 0
AnchorPoint: "Anchor-7" 800 990 basechar 0
AnchorPoint: "Anchor-6" 1126 -350 basechar 0
AnchorPoint: "Anchor-5" 1126 1700 basechar 0
AnchorPoint: "Anchor-4" 820 990 basechar 0
AnchorPoint: "Anchor-2" 563 -180 basechar 0
AnchorPoint: "Anchor-1" 961 1160 basechar 0
AnchorPoint: "Anchor-0" 563 1200 basechar 0
LayerCount: 2
Back
Fore
SplineSet
668 1016 m 0,0,1
 733 1016 733 1016 792 1007.5 c 128,-1,2
 851 999 851 999 905 983 c 1,3,-1
 1063 1022 l 1,4,-1
 950 461 l 2,5,6
 946 442 946 442 941.5 411 c 128,-1,7
 937 380 937 380 931 327.5 c 128,-1,8
 925 275 925 275 916 195.5 c 128,-1,9
 907 116 907 116 895 0 c 1,10,-1
 731 0 l 1,11,-1
 756 231 l 1,12,13
 687 111 687 111 588.5 46.5 c 128,-1,14
 490 -18 490 -18 375 -18 c 0,15,16
 303 -18 303 -18 249.5 6 c 128,-1,17
 196 30 196 30 161 74.5 c 128,-1,18
 126 119 126 119 109 181 c 128,-1,19
 92 243 92 243 92 319 c 0,20,21
 92 463 92 463 129.5 589.5 c 128,-1,22
 167 716 167 716 240 811 c 128,-1,23
 313 906 313 906 420.5 961 c 128,-1,24
 528 1016 528 1016 668 1016 c 0,0,1
268 336 m 0,25,26
 268 241 268 241 301 187 c 128,-1,27
 334 133 334 133 408 133 c 0,28,29
 451 133 451 133 494 153 c 128,-1,30
 537 173 537 173 578 208 c 128,-1,31
 619 243 619 243 655.5 290.5 c 128,-1,32
 692 338 692 338 722.5 392.5 c 128,-1,33
 753 447 753 447 775 506.5 c 128,-1,34
 797 566 797 566 809 625 c 2,35,-1
 850 831 l 1,36,37
 803 851 803 851 753.5 862.5 c 128,-1,38
 704 874 704 874 662 874 c 0,39,40
 580 874 580 874 519 846 c 128,-1,41
 458 818 458 818 414 773 c 128,-1,42
 370 728 370 728 342 670.5 c 128,-1,43
 314 613 314 613 297.5 553 c 128,-1,44
 281 493 281 493 274.5 436 c 128,-1,45
 268 379 268 379 268 336 c 0,25,26
EndSplineSet
Substitution2: "'locl' Localized Forms in Latin lookup 39 subtable" a.locl
Substitution2: "'ordn' Ordinals in Latin lookup 38 subtable" uni1D43
Substitution2: "'sups' Superscript lookup 34 subtable" uni1D43
EndChar
StartChar: b
Encoding: 98 98 132
Width: 1126
GlyphClass: 2
Flags: W
AnchorPoint: "Anchor-11" 0 1700 basechar 0
AnchorPoint: "Anchor-10" 1126 1700 basechar 0
AnchorPoint: "Anchor-9" 620 0 basechar 0
AnchorPoint: "Anchor-7" 750 970 basechar 0
AnchorPoint: "Anchor-6" 1126 -350 basechar 0
AnchorPoint: "Anchor-5" 1126 1700 basechar 0
AnchorPoint: "Anchor-4" 800 950 basechar 0
AnchorPoint: "Anchor-2" 563 -180 basechar 0
AnchorPoint: "Anchor-1" 938 1400 basechar 0
AnchorPoint: "Anchor-0" 563 1500 basechar 0
LayerCount: 2
Back
Fore
SplineSet
449 -12 m 0,0,1
 339 -12 339 -12 247 10 c 128,-1,2
 155 32 155 32 72 70 c 1,3,-1
 340 1413 l 1,4,-1
 514 1413 l 1,5,-1
 436 1024 l 1,6,-1
 371 782 l 1,7,8
 402 838 402 838 442 882.5 c 128,-1,9
 482 927 482 927 529.5 958 c 128,-1,10
 577 989 577 989 630.5 1005.5 c 128,-1,11
 684 1022 684 1022 741 1022 c 0,12,13
 813 1022 813 1022 866.5 997.5 c 128,-1,14
 920 973 920 973 955 929 c 128,-1,15
 990 885 990 885 1007 822.5 c 128,-1,16
 1024 760 1024 760 1024 684 c 0,17,18
 1024 540 1024 540 986.5 413.5 c 128,-1,19
 949 287 949 287 876 192.5 c 128,-1,20
 803 98 803 98 695.5 43 c 128,-1,21
 588 -12 588 -12 449 -12 c 0,0,1
848 668 m 0,22,23
 848 764 848 764 815.5 817 c 128,-1,24
 783 870 783 870 709 870 c 0,25,26
 666 870 666 870 623 850 c 128,-1,27
 580 830 580 830 539 795 c 128,-1,28
 498 760 498 760 461.5 713 c 128,-1,29
 425 666 425 666 394.5 612.5 c 128,-1,30
 364 559 364 559 342 502 c 128,-1,31
 320 445 320 445 309 389 c 2,32,-1
 266 172 l 1,33,34
 313 152 313 152 363 140.5 c 128,-1,35
 413 129 413 129 455 129 c 0,36,37
 537 129 537 129 598 157 c 128,-1,38
 659 185 659 185 702.5 230 c 128,-1,39
 746 275 746 275 774 333 c 128,-1,40
 802 391 802 391 818.5 451 c 128,-1,41
 835 511 835 511 841.5 567.5 c 128,-1,42
 848 624 848 624 848 668 c 0,22,23
EndSplineSet
Substitution2: "'ordn' Ordinals in Latin lookup 38 subtable" uni1D47
Substitution2: "'sups' Superscript lookup 34 subtable" uni1D47
EndChar
StartChar: c
Encoding: 99 99 133
Width: 1126
GlyphClass: 2
Flags: W
AnchorPoint: "Anchor-11" 0 1700 basechar 0
AnchorPoint: "Anchor-10" 1126 1700 basechar 0
AnchorPoint: "Anchor-9" 780 0 basechar 0
AnchorPoint: "Anchor-8" 640 0 basechar 0
AnchorPoint: "Anchor-7" 800 970 basechar 0
AnchorPoint: "Anchor-6" 1126 -350 basechar 0
AnchorPoint: "Anchor-5" 1126 1700 basechar 0
AnchorPoint: "Anchor-4" 800 970 basechar 0
AnchorPoint: "Anchor-2" 623 -180 basechar 0
AnchorPoint: "Anchor-1" 990 1160 basechar 0
AnchorPoint: "Anchor-0" 623 1200 basechar 0
LayerCount: 2
Back
Fore
SplineSet
860 41 m 1,0,1
 776 12 776 12 704 -1 c 128,-1,2
 632 -14 632 -14 557 -14 c 0,3,4
 357 -14 357 -14 249 78.5 c 128,-1,5
 141 171 141 171 141 356 c 0,6,7
 141 508 141 508 189 630.5 c 128,-1,8
 237 753 237 753 320 839 c 128,-1,9
 403 925 403 925 514 971.5 c 128,-1,10
 625 1018 625 1018 750 1018 c 0,11,12
 822 1018 822 1018 894.5 1007 c 128,-1,13
 967 996 967 996 1032 971 c 1,14,-1
 1001 813 l 1,15,16
 946 839 946 839 876 854.5 c 128,-1,17
 806 870 806 870 741 870 c 0,18,19
 640 870 640 870 562.5 828 c 128,-1,20
 485 786 485 786 432 716.5 c 128,-1,21
 379 647 379 647 351.5 558.5 c 128,-1,22
 324 470 324 470 324 377 c 0,23,24
 324 255 324 255 390 194 c 128,-1,25
 456 133 456 133 584 133 c 0,26,27
 650 133 650 133 722.5 147 c 128,-1,28
 795 161 795 161 860 188 c 1,29,-1
 860 41 l 1,0,1
EndSplineSet
Substitution2: "'ordn' Ordinals in Latin lookup 38 subtable" uni1D9C
Substitution2: "'sups' Superscript lookup 34 subtable" uni1D9C
EndChar
StartChar: d
Encoding: 100 100 134
Width: 1126
GlyphClass: 2
Flags: W
AnchorPoint: "Anchor-11" 0 1700 basechar 0
AnchorPoint: "Anchor-10" 1126 1700 basechar 0
AnchorPoint: "Anchor-9" 950 0 basechar 0
AnchorPoint: "Anchor-7" 880 1413 basechar 0
AnchorPoint: "Anchor-6" 1126 -350 basechar 0
AnchorPoint: "Anchor-5" 1126 1700 basechar 0
AnchorPoint: "Anchor-4" 900 1413 basechar 0
AnchorPoint: "Anchor-2" 563 -180 basechar 0
AnchorPoint: "Anchor-1" 1011 1500 basechar 0
AnchorPoint: "Anchor-0" 563 1500 basechar 0
LayerCount: 2
Back
Fore
SplineSet
668 1016 m 0,0,1
 740 1016 740 1016 789.5 1010 c 128,-1,2
 839 1004 839 1004 883 991 c 1,3,-1
 967 1413 l 1,4,-1
 1141 1413 l 1,5,-1
 950 461 l 2,6,7
 946 442 946 442 941.5 411 c 128,-1,8
 937 380 937 380 931 327.5 c 128,-1,9
 925 275 925 275 916 195.5 c 128,-1,10
 907 116 907 116 895 0 c 1,11,-1
 731 0 l 1,12,-1
 756 231 l 1,13,14
 687 111 687 111 588.5 46.5 c 128,-1,15
 490 -18 490 -18 375 -18 c 0,16,17
 303 -18 303 -18 249.5 6 c 128,-1,18
 196 30 196 30 161 74.5 c 128,-1,19
 126 119 126 119 109 181 c 128,-1,20
 92 243 92 243 92 319 c 0,21,22
 92 463 92 463 129.5 589.5 c 128,-1,23
 167 716 167 716 240 811 c 128,-1,24
 313 906 313 906 420.5 961 c 128,-1,25
 528 1016 528 1016 668 1016 c 0,0,1
268 336 m 0,26,27
 268 241 268 241 301 187 c 128,-1,28
 334 133 334 133 408 133 c 0,29,30
 451 133 451 133 494 153 c 128,-1,31
 537 173 537 173 578 208 c 128,-1,32
 619 243 619 243 655.5 290.5 c 128,-1,33
 692 338 692 338 722.5 392.5 c 128,-1,34
 753 447 753 447 775 506.5 c 128,-1,35
 797 566 797 566 809 625 c 2,36,-1
 850 831 l 1,37,38
 803 851 803 851 753.5 862.5 c 128,-1,39
 704 874 704 874 662 874 c 0,40,41
 580 874 580 874 519 846 c 128,-1,42
 458 818 458 818 414 773 c 128,-1,43
 370 728 370 728 342 670.5 c 128,-1,44
 314 613 314 613 297.5 553 c 128,-1,45
 281 493 281 493 274.5 436 c 128,-1,46
 268 379 268 379 268 336 c 0,26,27
EndSplineSet
Substitution2: "'ordn' Ordinals in Latin lookup 38 subtable" uni1D48
Substitution2: "'sups' Superscript lookup 34 subtable" uni1D48
EndChar
StartChar: e
Encoding: 101 101 135
Width: 1126
GlyphClass: 2
Flags: W
AnchorPoint: "Anchor-11" 0 1700 basechar 0
AnchorPoint: "Anchor-10" 1126 1700 basechar 0
AnchorPoint: "Anchor-9" 780 0 basechar 0
AnchorPoint: "Anchor-8" 640 0 basechar 0
AnchorPoint: "Anchor-7" 740 970 basechar 0
AnchorPoint: "Anchor-6" 1126 -350 basechar 0
AnchorPoint: "Anchor-5" 1126 1700 basechar 0
AnchorPoint: "Anchor-4" 810 930 basechar 0
AnchorPoint: "Anchor-2" 563 -180 basechar 0
AnchorPoint: "Anchor-1" 1008 1160 basechar 0
AnchorPoint: "Anchor-0" 563 1200 basechar 0
LayerCount: 2
Back
Fore
SplineSet
289 446 m 1,0,1
 284 420 284 420 281.5 397 c 128,-1,2
 279 374 279 374 279 352 c 0,3,4
 279 243 279 243 344 185 c 128,-1,5
 409 127 409 127 545 127 c 0,6,7
 633 127 633 127 719.5 140 c 128,-1,8
 806 153 806 153 874 170 c 1,9,-1
 874 27 l 1,10,11
 799 7 799 7 705.5 -5.5 c 128,-1,12
 612 -18 612 -18 516 -18 c 0,13,14
 304 -18 304 -18 203 76.5 c 128,-1,15
 102 171 102 171 102 350 c 0,16,17
 102 488 102 488 145 610 c 128,-1,18
 188 732 188 732 264 823.5 c 128,-1,19
 340 915 340 915 444.5 968.5 c 128,-1,20
 549 1022 549 1022 672 1022 c 0,21,22
 757 1022 757 1022 823.5 1002 c 128,-1,23
 890 982 890 982 936 947 c 128,-1,24
 982 912 982 912 1006 864.5 c 128,-1,25
 1030 817 1030 817 1030 762 c 0,26,27
 1030 690 1030 690 999.5 632 c 128,-1,28
 969 574 969 574 902.5 532.5 c 128,-1,29
 836 491 836 491 731 468.5 c 128,-1,30
 626 446 626 446 477 446 c 2,31,-1
 289 446 l 1,0,1
475 580 m 2,32,33
 586 580 586 580 658.5 593.5 c 128,-1,34
 731 607 731 607 773.5 630 c 128,-1,35
 816 653 816 653 833 683 c 128,-1,36
 850 713 850 713 850 745 c 0,37,38
 850 773 850 773 839 798 c 128,-1,39
 828 823 828 823 804.5 842 c 128,-1,40
 781 861 781 861 745.5 872 c 128,-1,41
 710 883 710 883 662 883 c 0,42,43
 597 883 597 883 543.5 861.5 c 128,-1,44
 490 840 490 840 447 800.5 c 128,-1,45
 404 761 404 761 371 705 c 128,-1,46
 338 649 338 649 315 580 c 1,47,-1
 475 580 l 2,32,33
EndSplineSet
Substitution2: "'ordn' Ordinals in Latin lookup 38 subtable" uni1D49
Substitution2: "'sups' Superscript lookup 34 subtable" uni1D49
EndChar
StartChar: f
Encoding: 102 102 136
Width: 1126
GlyphClass: 2
Flags: W
AnchorPoint: "Anchor-11" 0 1700 basechar 0
AnchorPoint: "Anchor-10" 1126 1700 basechar 0
AnchorPoint: "Anchor-9" 400 -300 basechar 0
AnchorPoint: "Anchor-7" 950 1413 basechar 0
AnchorPoint: "Anchor-6" 1126 -350 basechar 0
AnchorPoint: "Anchor-5" 1126 1700 basechar 0
AnchorPoint: "Anchor-4" 990 1413 basechar 0
AnchorPoint: "Anchor-2" 493 -480 basechar 0
AnchorPoint: "Anchor-1" 1101 1500 basechar 0
AnchorPoint: "Anchor-0" 663 1500 basechar 0
LayerCount: 2
Back
Fore
SplineSet
473 -18 m 2,0,1
 452 -122 452 -122 414 -197.5 c 128,-1,2
 376 -273 376 -273 317.5 -322.5 c 128,-1,3
 259 -372 259 -372 178.5 -396 c 128,-1,4
 98 -420 98 -420 -8 -420 c 0,5,6
 -28 -420 -28 -420 -56 -419 c 128,-1,7
 -84 -418 -84 -418 -104 -416 c 1,8,-1
 -76 -266 l 1,9,10
 -30 -272 -30 -272 10 -272 c 0,11,12
 129 -272 129 -272 200 -211 c 128,-1,13
 271 -150 271 -150 297 -18 c 2,14,-1
 444 713 l 1,15,-1
 121 713 l 1,16,-1
 150 858 l 1,17,-1
 473 858 l 1,18,-1
 506 1024 l 2,19,20
 546 1223 546 1223 662 1324 c 128,-1,21
 778 1425 778 1425 987 1425 c 0,22,23
 1040 1425 1040 1425 1103.5 1419 c 128,-1,24
 1167 1413 1167 1413 1229 1401 c 1,25,-1
 1198 1253 l 1,26,27
 1141 1266 1141 1266 1083.5 1273 c 128,-1,28
 1026 1280 1026 1280 969 1280 c 0,29,30
 850 1280 850 1280 779 1216 c 128,-1,31
 708 1152 708 1152 682 1024 c 2,32,-1
 649 858 l 1,33,-1
 1090 858 l 1,34,-1
 1061 713 l 1,35,-1
 621 713 l 1,36,-1
 473 -18 l 2,0,1
0 1004 m 1024,37,-1
EndSplineSet
Substitution2: "'ordn' Ordinals in Latin lookup 38 subtable" uni1DA0
Substitution2: "'sups' Superscript lookup 34 subtable" uni1DA0
AlternateSubs2: "'ss06' Style Set 6 lookup 31 subtable" f.ss05
Substitution2: "'ss05' Style Set 5 lookup 30 subtable" f.ss05
Substitution2: "'ss04' Style Set 4 lookup 29 subtable" f.ss04
AlternateSubs2: "'salt' Stylistic Alternatives lookup 23 subtable" f.ss04 f.ss05
EndChar
StartChar: g
Encoding: 103 103 137
Width: 1126
GlyphClass: 2
Flags: W
AnchorPoint: "Anchor-11" 0 1700 basechar 0
AnchorPoint: "Anchor-10" 1126 1700 basechar 0
AnchorPoint: "Anchor-9" 650 -385 basechar 0
AnchorPoint: "Anchor-8" 563 -400 basechar 0
AnchorPoint: "Anchor-7" 800 990 basechar 0
AnchorPoint: "Anchor-6" 1126 -350 basechar 0
AnchorPoint: "Anchor-5" 1126 1700 basechar 0
AnchorPoint: "Anchor-4" 820 1000 basechar 0
AnchorPoint: "Anchor-2" 563 -550 basechar 0
AnchorPoint: "Anchor-1" 1094 1160 basechar 0
AnchorPoint: "Anchor-0" 563 1200 basechar 0
LayerCount: 2
Back
Fore
SplineSet
680 -20 m 0,0,1
 695 45 695 45 711.5 106 c 128,-1,2
 728 167 728 167 745 221 c 1,3,4
 715 165 715 165 674.5 120.5 c 128,-1,5
 634 76 634 76 587 45.5 c 128,-1,6
 540 15 540 15 486 -1.5 c 128,-1,7
 432 -18 432 -18 375 -18 c 0,8,9
 303 -18 303 -18 249.5 6 c 128,-1,10
 196 30 196 30 161 74.5 c 128,-1,11
 126 119 126 119 109 181 c 128,-1,12
 92 243 92 243 92 319 c 0,13,14
 92 463 92 463 129.5 589.5 c 128,-1,15
 167 716 167 716 240 811 c 128,-1,16
 313 906 313 906 420.5 961 c 128,-1,17
 528 1016 528 1016 668 1016 c 0,18,19
 733 1016 733 1016 792 1007.5 c 128,-1,20
 851 999 851 999 905 983 c 1,21,-1
 1063 1022 l 1,22,-1
 848 -53 l 2,23,24
 832 -134 832 -134 798.5 -201 c 128,-1,25
 765 -268 765 -268 708 -317 c 128,-1,26
 651 -366 651 -366 568 -393 c 128,-1,27
 485 -420 485 -420 376 -420 c 0,28,29
 259 -420 259 -420 173 -389 c 128,-1,30
 87 -358 87 -358 37 -322 c 1,31,-1
 125 -194 l 1,32,33
 182 -233 182 -233 247.5 -257 c 128,-1,34
 313 -281 313 -281 391 -281 c 256,35,36
 469 -281 469 -281 519 -259.5 c 128,-1,37
 569 -238 569 -238 600.5 -202 c 128,-1,38
 632 -166 632 -166 650 -119 c 128,-1,39
 668 -72 668 -72 680 -20 c 0,0,1
268 336 m 0,40,41
 268 241 268 241 301 187 c 128,-1,42
 334 133 334 133 408 133 c 0,43,44
 451 133 451 133 494 153 c 128,-1,45
 537 173 537 173 577.5 208 c 128,-1,46
 618 243 618 243 655 290 c 128,-1,47
 692 337 692 337 722 390.5 c 128,-1,48
 752 444 752 444 774 501 c 128,-1,49
 796 558 796 558 807 614 c 2,50,-1
 850 831 l 1,51,52
 803 851 803 851 753.5 862.5 c 128,-1,53
 704 874 704 874 662 874 c 0,54,55
 580 874 580 874 519 846 c 128,-1,56
 458 818 458 818 414 773 c 128,-1,57
 370 728 370 728 342 670.5 c 128,-1,58
 314 613 314 613 297.5 553 c 128,-1,59
 281 493 281 493 274.5 436 c 128,-1,60
 268 379 268 379 268 336 c 0,40,41
EndSplineSet
Substitution2: "'locl' Localized Forms in Latin lookup 39 subtable" g.locl
Substitution2: "'ordn' Ordinals in Latin lookup 38 subtable" uni1D4D
Substitution2: "'sups' Superscript lookup 34 subtable" uni1D4D
EndChar
StartChar: h
Encoding: 104 104 138
Width: 1126
GlyphClass: 2
Flags: W
AnchorPoint: "Anchor-11" 0 1700 basechar 0
AnchorPoint: "Anchor-10" 1126 1700 basechar 0
AnchorPoint: "Anchor-9" 900 0 basechar 0
AnchorPoint: "Anchor-7" 750 970 basechar 0
AnchorPoint: "Anchor-6" 1126 -350 basechar 0
AnchorPoint: "Anchor-5" 1126 1700 basechar 0
AnchorPoint: "Anchor-4" 790 950 basechar 0
AnchorPoint: "Anchor-2" 563 -180 basechar 0
AnchorPoint: "Anchor-1" 938 1400 basechar 0
AnchorPoint: "Anchor-0" 563 1500 basechar 0
LayerCount: 2
Back
Fore
SplineSet
864 0 m 1,0,-1
 690 0 l 1,1,-1
 819 641 l 2,2,3
 844 763 844 763 815.5 817.5 c 128,-1,4
 787 872 787 872 707 872 c 0,5,6
 643 872 643 872 579.5 828 c 128,-1,7
 516 784 516 784 461 713.5 c 128,-1,8
 406 643 406 643 365.5 555 c 128,-1,9
 325 467 325 467 307 379 c 2,10,-1
 231 0 l 1,11,-1
 57 0 l 1,12,-1
 340 1413 l 1,13,-1
 514 1413 l 1,14,-1
 432 1004 l 1,15,-1
 377 791 l 1,16,17
 405 843 405 843 444 885.5 c 128,-1,18
 483 928 483 928 529.5 958.5 c 128,-1,19
 576 989 576 989 629 1005.5 c 128,-1,20
 682 1022 682 1022 739 1022 c 0,21,22
 898 1022 898 1022 964 926 c 128,-1,23
 1030 830 1030 830 993 643 c 2,24,-1
 864 0 l 1,0,-1
EndSplineSet
Substitution2: "'ordn' Ordinals in Latin lookup 38 subtable" uni02B0
Substitution2: "'sups' Superscript lookup 34 subtable" uni02B0
EndChar
StartChar: i
Encoding: 105 105 139
Width: 1126
GlyphClass: 2
Flags: W
AnchorPoint: "Anchor-11" 0 1700 basechar 0
AnchorPoint: "Anchor-10" 1126 1700 basechar 0
AnchorPoint: "Anchor-9" 870 0 basechar 0
AnchorPoint: "Anchor-8" 693 0 basechar 0
AnchorPoint: "Anchor-7" 530 900 basechar 0
AnchorPoint: "Anchor-6" 1126 -350 basechar 0
AnchorPoint: "Anchor-5" 1126 1700 basechar 0
AnchorPoint: "Anchor-4" 480 1000 basechar 0
AnchorPoint: "Anchor-2" 563 -180 basechar 0
AnchorPoint: "Anchor-1" 777 1500 basechar 0
AnchorPoint: "Anchor-0" 563 1500 basechar 0
LayerCount: 2
Back
Fore
SplineSet
543 1282 m 0,0,1
 543 1313 543 1313 554 1339 c 128,-1,2
 565 1365 565 1365 584.5 1384 c 128,-1,3
 604 1403 604 1403 630 1414 c 128,-1,4
 656 1425 656 1425 686 1425 c 0,5,6
 715 1425 715 1425 739 1414.5 c 128,-1,7
 763 1404 763 1404 780.5 1386.5 c 128,-1,8
 798 1369 798 1369 807.5 1345 c 128,-1,9
 817 1321 817 1321 817 1294 c 0,10,11
 817 1263 817 1263 806 1237 c 128,-1,12
 795 1211 795 1211 775.5 1192 c 128,-1,13
 756 1173 756 1173 730 1162 c 128,-1,14
 704 1151 704 1151 674 1151 c 0,15,16
 645 1151 645 1151 620.5 1161.5 c 128,-1,17
 596 1172 596 1172 579 1189.5 c 128,-1,18
 562 1207 562 1207 552.5 1231 c 128,-1,19
 543 1255 543 1255 543 1282 c 0,0,1
956 63 m 1,20,21
 887 25 887 25 810.5 3.5 c 128,-1,22
 734 -18 734 -18 647 -18 c 0,23,24
 576 -18 576 -18 528 2 c 128,-1,25
 480 22 480 22 454.5 65.5 c 128,-1,26
 429 109 429 109 426 177 c 128,-1,27
 423 245 423 245 442 342 c 2,28,-1
 510 678 l 2,29,30
 522 735 522 735 521.5 773.5 c 128,-1,31
 521 812 521 812 511 835 c 128,-1,32
 501 858 501 858 481.5 867.5 c 128,-1,33
 462 877 462 877 436 877 c 0,34,35
 368 877 368 877 302 850.5 c 128,-1,36
 236 824 236 824 168 786 c 1,37,-1
 168 940 l 1,38,39
 237 978 237 978 313.5 1000 c 128,-1,40
 390 1022 390 1022 477 1022 c 0,41,42
 548 1022 548 1022 596 1002 c 128,-1,43
 644 982 644 982 669.5 938.5 c 128,-1,44
 695 895 695 895 698 827 c 128,-1,45
 701 759 701 759 682 662 c 2,46,-1
 614 326 l 2,47,48
 603 268 603 268 603 230 c 128,-1,49
 603 192 603 192 613.5 169 c 128,-1,50
 624 146 624 146 643 136.5 c 128,-1,51
 662 127 662 127 688 127 c 0,52,53
 756 127 756 127 822 153.5 c 128,-1,54
 888 180 888 180 956 217 c 1,55,-1
 956 63 l 1,20,21
EndSplineSet
Substitution2: "'ss05' Style Set 5 lookup 30 subtable" i.ss05
Substitution2: "'ss04' Style Set 4 lookup 29 subtable" i.ss04
AlternateSubs2: "'salt' Stylistic Alternatives lookup 23 subtable" i.ss05 i.ss04
Substitution2: "Single Substitution lookup 15 subtable" dotlessi
EndChar
StartChar: j
Encoding: 106 106 140
Width: 1126
GlyphClass: 2
Flags: W
AnchorPoint: "Anchor-11" 0 1700 basechar 0
AnchorPoint: "Anchor-10" 1126 1700 basechar 0
AnchorPoint: "Anchor-9" 580 -350 basechar 0
AnchorPoint: "Anchor-7" 710 900 basechar 0
AnchorPoint: "Anchor-6" 1126 -350 basechar 0
AnchorPoint: "Anchor-5" 1126 1700 basechar 0
AnchorPoint: "Anchor-4" 670 1000 basechar 0
AnchorPoint: "Anchor-2" 563 -550 basechar 0
AnchorPoint: "Anchor-1" 937 1500 basechar 0
AnchorPoint: "Anchor-0" 733 1500 basechar 0
LayerCount: 2
Back
Fore
SplineSet
250 934 m 1,0,1
 339 975 339 975 431.5 998.5 c 128,-1,2
 524 1022 524 1022 635 1022 c 0,3,4
 719 1022 719 1022 773.5 1001 c 128,-1,5
 828 980 828 980 855.5 936.5 c 128,-1,6
 883 893 883 893 886 826 c 128,-1,7
 889 759 889 759 870 666 c 2,8,-1
 737 2 l 2,9,10
 716 -106 716 -106 669.5 -185 c 128,-1,11
 623 -264 623 -264 559.5 -316.5 c 128,-1,12
 496 -369 496 -369 419 -394.5 c 128,-1,13
 342 -420 342 -420 258 -420 c 0,14,15
 199 -420 199 -420 147.5 -409 c 128,-1,16
 96 -398 96 -398 52.5 -379 c 128,-1,17
 9 -360 9 -360 -27 -334.5 c 128,-1,18
 -63 -309 -63 -309 -92 -279 c 1,19,-1
 20 -166 l 1,20,21
 64 -214 64 -214 128.5 -244 c 128,-1,22
 193 -274 193 -274 268 -274 c 0,23,24
 379 -274 379 -274 457 -199 c 128,-1,25
 535 -124 535 -124 569 43 c 2,26,-1
 694 666 l 2,27,28
 707 730 707 730 706.5 771.5 c 128,-1,29
 706 813 706 813 693.5 836 c 128,-1,30
 681 859 681 859 656 868 c 128,-1,31
 631 877 631 877 596 877 c 0,32,33
 509 877 509 877 425 850 c 128,-1,34
 341 823 341 823 250 782 c 1,35,-1
 250 934 l 1,0,1
715 1282 m 0,36,37
 715 1313 715 1313 726 1339 c 128,-1,38
 737 1365 737 1365 756.5 1384 c 128,-1,39
 776 1403 776 1403 802 1414 c 128,-1,40
 828 1425 828 1425 858 1425 c 0,41,42
 887 1425 887 1425 911 1414.5 c 128,-1,43
 935 1404 935 1404 952.5 1386.5 c 128,-1,44
 970 1369 970 1369 979.5 1345 c 128,-1,45
 989 1321 989 1321 989 1294 c 0,46,47
 989 1263 989 1263 978 1237 c 128,-1,48
 967 1211 967 1211 947.5 1192 c 128,-1,49
 928 1173 928 1173 902 1162 c 128,-1,50
 876 1151 876 1151 846 1151 c 0,51,52
 817 1151 817 1151 792.5 1161.5 c 128,-1,53
 768 1172 768 1172 751 1189.5 c 128,-1,54
 734 1207 734 1207 724.5 1231 c 128,-1,55
 715 1255 715 1255 715 1282 c 0,36,37
EndSplineSet
Substitution2: "'ordn' Ordinals in Latin lookup 38 subtable" uni02B2
Substitution2: "'sups' Superscript lookup 34 subtable" uni02B2
Substitution2: "'ss05' Style Set 5 lookup 30 subtable" j.ss04
Substitution2: "'ss04' Style Set 4 lookup 29 subtable" j.ss04
AlternateSubs2: "'salt' Stylistic Alternatives lookup 23 subtable" j.ss04
Substitution2: "Single Substitution lookup 17 subtable" uni0237
EndChar
StartChar: k
Encoding: 107 107 141
Width: 1126
GlyphClass: 2
Flags: W
AnchorPoint: "Anchor-11" 0 1700 basechar 0
AnchorPoint: "Anchor-10" 1126 1700 basechar 0
AnchorPoint: "Anchor-9" 980 0 basechar 0
AnchorPoint: "Anchor-8" 563 -50 basechar 0
AnchorPoint: "Anchor-7" 750 970 basechar 0
AnchorPoint: "Anchor-6" 1126 -350 basechar 0
AnchorPoint: "Anchor-5" 1126 1700 basechar 0
AnchorPoint: "Anchor-4" 790 1000 basechar 0
AnchorPoint: "Anchor-2" 563 -180 basechar 0
AnchorPoint: "Anchor-1" 1063 1400 basechar 0
AnchorPoint: "Anchor-0" 563 1500 basechar 0
LayerCount: 2
Back
Fore
SplineSet
946 0 m 1,0,-1
 727 0 l 1,1,-1
 387 518 l 1,2,3
 518 527 518 527 606.5 548.5 c 128,-1,4
 695 570 695 570 748.5 601.5 c 128,-1,5
 802 633 802 633 825 672.5 c 128,-1,6
 848 712 848 712 848 756 c 0,7,8
 848 780 848 780 840.5 801 c 128,-1,9
 833 822 833 822 817.5 837.5 c 128,-1,10
 802 853 802 853 778.5 862.5 c 128,-1,11
 755 872 755 872 723 872 c 0,12,13
 659 872 659 872 595.5 828 c 128,-1,14
 532 784 532 784 477.5 713.5 c 128,-1,15
 423 643 423 643 382.5 555 c 128,-1,16
 342 467 342 467 324 379 c 2,17,-1
 248 0 l 1,18,-1
 74 0 l 1,19,-1
 356 1413 l 1,20,-1
 530 1413 l 1,21,-1
 449 1004 l 1,22,-1
 393 791 l 1,23,24
 421 843 421 843 460 885.5 c 128,-1,25
 499 928 499 928 546 958.5 c 128,-1,26
 593 989 593 989 646 1005.5 c 128,-1,27
 699 1022 699 1022 756 1022 c 0,28,29
 820 1022 820 1022 869.5 1003.5 c 128,-1,30
 919 985 919 985 953 951 c 128,-1,31
 987 917 987 917 1004.5 870 c 128,-1,32
 1022 823 1022 823 1022 766 c 0,33,34
 1022 691 1022 691 987.5 634 c 128,-1,35
 953 577 953 577 898.5 535.5 c 128,-1,36
 844 494 844 494 775.5 468 c 128,-1,37
 707 442 707 442 639 430 c 1,38,-1
 946 0 l 1,0,-1
EndSplineSet
Substitution2: "'ordn' Ordinals in Latin lookup 38 subtable" uni1D4F
Substitution2: "'sups' Superscript lookup 34 subtable" uni1D4F
EndChar
StartChar: l
Encoding: 108 108 142
Width: 1126
GlyphClass: 2
Flags: W
AnchorPoint: "Anchor-11" 0 1700 basechar 0
AnchorPoint: "Anchor-10" 1126 1700 basechar 0
AnchorPoint: "Anchor-9" 950 60 basechar 0
AnchorPoint: "Anchor-8" 563 0 basechar 0
AnchorPoint: "Anchor-7" 400 1413 basechar 0
AnchorPoint: "Anchor-6" 1126 -350 basechar 0
AnchorPoint: "Anchor-5" 1126 1700 basechar 0
AnchorPoint: "Anchor-4" 410 1413 basechar 0
AnchorPoint: "Anchor-2" 563 -180 basechar 0
AnchorPoint: "Anchor-1" 733 1500 basechar 0
AnchorPoint: "Anchor-0" 563 1500 basechar 0
LayerCount: 2
Back
Fore
SplineSet
909 68 m 1,0,1
 813 29 813 29 717.5 7.5 c 128,-1,2
 622 -14 622 -14 522 -14 c 0,3,4
 428 -14 428 -14 368 9 c 128,-1,5
 308 32 308 32 278 84.5 c 128,-1,6
 248 137 248 137 247 222 c 128,-1,7
 246 307 246 307 270 430 c 2,8,-1
 469 1413 l 1,9,-1
 647 1413 l 1,10,-1
 451 430 l 2,11,12
 433 341 433 341 428.5 284 c 128,-1,13
 424 227 424 227 435 194 c 128,-1,14
 446 161 446 161 472.5 148 c 128,-1,15
 499 135 499 135 543 135 c 0,16,17
 617 135 617 135 707.5 156 c 128,-1,18
 798 177 798 177 909 223 c 1,19,-1
 909 68 l 1,0,1
EndSplineSet
AlternateSubs2: "'ss06' Style Set 6 lookup 31 subtable" glyph296
Substitution2: "'ss04' Style Set 4 lookup 29 subtable" l.ss04
AlternateSubs2: "'salt' Stylistic Alternatives lookup 23 subtable" l.ss04 glyph296
EndChar
StartChar: m
Encoding: 109 109 143
Width: 1126
GlyphClass: 2
Flags: W
AnchorPoint: "Anchor-11" 0 1700 basechar 0
AnchorPoint: "Anchor-10" 1126 1700 basechar 0
AnchorPoint: "Anchor-9" 980 0 basechar 0
AnchorPoint: "Anchor-7" 870 970 basechar 0
AnchorPoint: "Anchor-6" 1126 -350 basechar 0
AnchorPoint: "Anchor-5" 1126 1700 basechar 0
AnchorPoint: "Anchor-4" 880 970 basechar 0
AnchorPoint: "Anchor-2" 563 -180 basechar 0
AnchorPoint: "Anchor-1" 1086 1160 basechar 0
AnchorPoint: "Anchor-0" 563 1200 basechar 0
LayerCount: 2
Back
Fore
SplineSet
774 0 m 1,0,-1
 915 702 l 2,1,2
 926 757 926 757 930 791 c 128,-1,3
 934 825 934 825 932.5 844 c 128,-1,4
 931 863 931 863 924.5 870 c 128,-1,5
 918 877 918 877 907 877 c 0,6,7
 887 877 887 877 860.5 854 c 128,-1,8
 834 831 834 831 805 793 c 128,-1,9
 776 755 776 755 747 705.5 c 128,-1,10
 718 656 718 656 692.5 602.5 c 128,-1,11
 667 549 667 549 648 496.5 c 128,-1,12
 629 444 629 444 621 399 c 2,13,-1
 541 0 l 1,14,-1
 381 0 l 1,15,-1
 522 702 l 2,16,17
 533 757 533 757 537 791 c 128,-1,18
 541 825 541 825 539.5 844 c 128,-1,19
 538 863 538 863 531.5 870 c 128,-1,20
 525 877 525 877 514 877 c 0,21,22
 494 877 494 877 467.5 854 c 128,-1,23
 441 831 441 831 412 793 c 128,-1,24
 383 755 383 755 353.5 705.5 c 128,-1,25
 324 656 324 656 299 602.5 c 128,-1,26
 274 549 274 549 255 496.5 c 128,-1,27
 236 444 236 444 227 399 c 2,28,-1
 147 0 l 1,29,-1
 -12 0 l 1,30,-1
 96 543 l 2,31,32
 100 562 100 562 104.5 593 c 128,-1,33
 109 624 109 624 115.5 676.5 c 128,-1,34
 122 729 122 729 131 808.5 c 128,-1,35
 140 888 140 888 152 1004 c 1,36,-1
 301 1004 l 1,37,-1
 276 772 l 1,38,39
 304 823 304 823 334 868 c 128,-1,40
 364 913 364 913 396.5 947.5 c 128,-1,41
 429 982 429 982 466 1002 c 128,-1,42
 503 1022 503 1022 545 1022 c 0,43,44
 596 1022 596 1022 629.5 1002 c 128,-1,45
 663 982 663 982 678.5 948 c 128,-1,46
 694 914 694 914 692 868.5 c 128,-1,47
 690 823 690 823 670 772 c 1,48,49
 698 823 698 823 727.5 868 c 128,-1,50
 757 913 757 913 789.5 947.5 c 128,-1,51
 822 982 822 982 859 1002 c 128,-1,52
 896 1022 896 1022 938 1022 c 0,53,54
 1038 1022 1038 1022 1072.5 946.5 c 128,-1,55
 1107 871 1107 871 1075 711 c 2,56,-1
 934 0 l 1,57,-1
 774 0 l 1,0,-1
EndSplineSet
Substitution2: "'ordn' Ordinals in Latin lookup 38 subtable" uni1D50
Substitution2: "'sups' Superscript lookup 34 subtable" uni1D50
EndChar
StartChar: n
Encoding: 110 110 144
Width: 1126
GlyphClass: 2
Flags: W
AnchorPoint: "Anchor-11" 0 1700 basechar 0
AnchorPoint: "Anchor-10" 1126 1700 basechar 0
AnchorPoint: "Anchor-9" 910 0 basechar 0
AnchorPoint: "Anchor-8" 563 -50 basechar 0
AnchorPoint: "Anchor-7" 740 970 basechar 0
AnchorPoint: "Anchor-6" 1126 -350 basechar 0
AnchorPoint: "Anchor-5" 1126 1700 basechar 0
AnchorPoint: "Anchor-4" 790 970 basechar 0
AnchorPoint: "Anchor-2" 563 -180 basechar 0
AnchorPoint: "Anchor-1" 1017 1160 basechar 0
AnchorPoint: "Anchor-0" 563 1200 basechar 0
LayerCount: 2
Back
Fore
SplineSet
166 543 m 2,0,1
 170 562 170 562 174.5 593 c 128,-1,2
 179 624 179 624 185 676.5 c 128,-1,3
 191 729 191 729 200 808.5 c 128,-1,4
 209 888 209 888 221 1004 c 1,5,-1
 385 1004 l 1,6,-1
 360 772 l 1,7,8
 430 893 430 893 527.5 957.5 c 128,-1,9
 625 1022 625 1022 739 1022 c 0,10,11
 898 1022 898 1022 964.5 926 c 128,-1,12
 1031 830 1031 830 993 643 c 2,13,-1
 864 0 l 1,14,-1
 690 0 l 1,15,-1
 819 641 l 2,16,17
 844 763 844 763 815.5 817.5 c 128,-1,18
 787 872 787 872 707 872 c 0,19,20
 643 872 643 872 579.5 828 c 128,-1,21
 516 784 516 784 461 713.5 c 128,-1,22
 406 643 406 643 365.5 555 c 128,-1,23
 325 467 325 467 307 379 c 2,24,-1
 231 0 l 1,25,-1
 57 0 l 1,26,-1
 166 543 l 2,0,1
EndSplineSet
Substitution2: "'ordn' Ordinals in Latin lookup 38 subtable" uni207F
Substitution2: "'sups' Superscript lookup 34 subtable" uni207F
EndChar
StartChar: o
Encoding: 111 111 145
Width: 1126
GlyphClass: 2
Flags: W
AnchorPoint: "Anchor-11" 0 1700 basechar 0
AnchorPoint: "Anchor-10" 1126 1700 basechar 0
AnchorPoint: "Anchor-9" 660 0 basechar 0
AnchorPoint: "Anchor-8" 563 0 basechar 0
AnchorPoint: "Anchor-7" 750 950 basechar 0
AnchorPoint: "Anchor-6" 1126 -350 basechar 0
AnchorPoint: "Anchor-5" 1126 1700 basechar 0
AnchorPoint: "Anchor-4" 810 930 basechar 0
AnchorPoint: "Anchor-2" 563 -180 basechar 0
AnchorPoint: "Anchor-1" 994 1160 basechar 0
AnchorPoint: "Anchor-0" 563 1200 basechar 0
LayerCount: 2
Back
Fore
SplineSet
461 -18 m 0,0,1
 281 -18 281 -18 180.5 74.5 c 128,-1,2
 80 167 80 167 80 352 c 0,3,4
 80 435 80 435 97.5 516.5 c 128,-1,5
 115 598 115 598 149 672.5 c 128,-1,6
 183 747 183 747 233 811 c 128,-1,7
 283 875 283 875 348 922 c 128,-1,8
 413 969 413 969 491.5 995.5 c 128,-1,9
 570 1022 570 1022 662 1022 c 0,10,11
 752 1022 752 1022 822.5 998.5 c 128,-1,12
 893 975 893 975 941.5 928.5 c 128,-1,13
 990 882 990 882 1016 812.5 c 128,-1,14
 1042 743 1042 743 1042 651 c 0,15,16
 1042 569 1042 569 1024.5 487.5 c 128,-1,17
 1007 406 1007 406 973 331.5 c 128,-1,18
 939 257 939 257 889 193 c 128,-1,19
 839 129 839 129 774.5 82 c 128,-1,20
 710 35 710 35 631 8.5 c 128,-1,21
 552 -18 552 -18 461 -18 c 0,0,1
864 633 m 0,22,23
 864 754 864 754 807 814 c 128,-1,24
 750 874 750 874 641 874 c 0,25,26
 579 874 579 874 526 852.5 c 128,-1,27
 473 831 473 831 430.5 793.5 c 128,-1,28
 388 756 388 756 355.5 706.5 c 128,-1,29
 323 657 323 657 301.5 601.5 c 128,-1,30
 280 546 280 546 269 486.5 c 128,-1,31
 258 427 258 427 258 371 c 0,32,33
 258 250 258 250 315 189.5 c 128,-1,34
 372 129 372 129 481 129 c 0,35,36
 544 129 544 129 596.5 150.5 c 128,-1,37
 649 172 649 172 691.5 209.5 c 128,-1,38
 734 247 734 247 766.5 296.5 c 128,-1,39
 799 346 799 346 820.5 402 c 128,-1,40
 842 458 842 458 853 517.5 c 128,-1,41
 864 577 864 577 864 633 c 0,22,23
EndSplineSet
Substitution2: "'ordn' Ordinals in Latin lookup 38 subtable" uni1D52
Substitution2: "'sups' Superscript lookup 34 subtable" uni1D52
EndChar
StartChar: p
Encoding: 112 112 146
Width: 1126
GlyphClass: 2
Flags: W
AnchorPoint: "Anchor-11" 0 1700 basechar 0
AnchorPoint: "Anchor-10" 1126 1700 basechar 0
AnchorPoint: "Anchor-9" 200 -400 basechar 0
AnchorPoint: "Anchor-7" 740 970 basechar 0
AnchorPoint: "Anchor-6" 1126 -350 basechar 0
AnchorPoint: "Anchor-5" 1126 1700 basechar 0
AnchorPoint: "Anchor-4" 810 930 basechar 0
AnchorPoint: "Anchor-2" 563 -510 basechar 0
AnchorPoint: "Anchor-1" 988 1160 basechar 0
AnchorPoint: "Anchor-0" 563 1200 basechar 0
LayerCount: 2
Back
Fore
SplineSet
455 -12 m 0,0,1
 382 -12 382 -12 332.5 -6 c 128,-1,2
 283 0 283 0 240 12 c 1,3,-1
 156 -410 l 1,4,-1
 -18 -410 l 1,5,-1
 172 543 l 2,6,7
 176 562 176 562 180.5 593 c 128,-1,8
 185 624 185 624 191.5 676.5 c 128,-1,9
 198 729 198 729 206.5 808.5 c 128,-1,10
 215 888 215 888 227 1004 c 1,11,-1
 391 1004 l 1,12,-1
 367 772 l 1,13,14
 436 893 436 893 534 957.5 c 128,-1,15
 632 1022 632 1022 748 1022 c 0,16,17
 820 1022 820 1022 873 997.5 c 128,-1,18
 926 973 926 973 961 929 c 128,-1,19
 996 885 996 885 1013 822.5 c 128,-1,20
 1030 760 1030 760 1030 684 c 0,21,22
 1030 540 1030 540 992.5 413.5 c 128,-1,23
 955 287 955 287 882 192.5 c 128,-1,24
 809 98 809 98 701.5 43 c 128,-1,25
 594 -12 594 -12 455 -12 c 0,0,1
854 668 m 0,26,27
 854 764 854 764 821.5 817 c 128,-1,28
 789 870 789 870 715 870 c 0,29,30
 672 870 672 870 629 850 c 128,-1,31
 586 830 586 830 545 795 c 128,-1,32
 504 760 504 760 467 712.5 c 128,-1,33
 430 665 430 665 400 610.5 c 128,-1,34
 370 556 370 556 347.5 497 c 128,-1,35
 325 438 325 438 313 379 c 2,36,-1
 272 172 l 1,37,38
 319 152 319 152 369 140.5 c 128,-1,39
 419 129 419 129 461 129 c 0,40,41
 543 129 543 129 604 157 c 128,-1,42
 665 185 665 185 708.5 230 c 128,-1,43
 752 275 752 275 780 333 c 128,-1,44
 808 391 808 391 824.5 451 c 128,-1,45
 841 511 841 511 847.5 567.5 c 128,-1,46
 854 624 854 624 854 668 c 0,26,27
EndSplineSet
Substitution2: "'ordn' Ordinals in Latin lookup 38 subtable" uni1D56
Substitution2: "'sups' Superscript lookup 34 subtable" uni1D56
EndChar
StartChar: q
Encoding: 113 113 147
Width: 1126
GlyphClass: 2
Flags: W
AnchorPoint: "Anchor-11" 0 1700 basechar 0
AnchorPoint: "Anchor-10" 1126 1700 basechar 0
AnchorPoint: "Anchor-9" 820 -400 basechar 0
AnchorPoint: "Anchor-7" 800 990 basechar 0
AnchorPoint: "Anchor-6" 1126 -350 basechar 0
AnchorPoint: "Anchor-5" 1126 1700 basechar 0
AnchorPoint: "Anchor-4" 820 990 basechar 0
AnchorPoint: "Anchor-2" 563 -500 basechar 0
AnchorPoint: "Anchor-1" 1011 1160 basechar 0
AnchorPoint: "Anchor-0" 563 1200 basechar 0
LayerCount: 2
Back
Fore
SplineSet
1063 1022 m 1,0,-1
 776 -410 l 1,1,-1
 602 -410 l 1,2,-1
 680 -20 l 1,3,-1
 745 221 l 1,4,5
 715 165 715 165 674.5 120.5 c 128,-1,6
 634 76 634 76 587 45.5 c 128,-1,7
 540 15 540 15 486 -1.5 c 128,-1,8
 432 -18 432 -18 375 -18 c 0,9,10
 303 -18 303 -18 249.5 6 c 128,-1,11
 196 30 196 30 161 74.5 c 128,-1,12
 126 119 126 119 109 181 c 128,-1,13
 92 243 92 243 92 319 c 0,14,15
 92 463 92 463 129.5 589.5 c 128,-1,16
 167 716 167 716 240 811 c 128,-1,17
 313 906 313 906 420.5 961 c 128,-1,18
 528 1016 528 1016 668 1016 c 0,19,20
 733 1016 733 1016 792 1007.5 c 128,-1,21
 851 999 851 999 905 983 c 1,22,-1
 1063 1022 l 1,0,-1
268 336 m 0,23,24
 268 241 268 241 301 187 c 128,-1,25
 334 133 334 133 408 133 c 0,26,27
 451 133 451 133 494 153 c 128,-1,28
 537 173 537 173 577.5 208 c 128,-1,29
 618 243 618 243 655 290 c 128,-1,30
 692 337 692 337 722 390.5 c 128,-1,31
 752 444 752 444 774 501 c 128,-1,32
 796 558 796 558 807 614 c 2,33,-1
 850 831 l 1,34,35
 803 851 803 851 753.5 862.5 c 128,-1,36
 704 874 704 874 662 874 c 0,37,38
 580 874 580 874 519 846 c 128,-1,39
 458 818 458 818 414 773 c 128,-1,40
 370 728 370 728 342 670.5 c 128,-1,41
 314 613 314 613 297.5 553 c 128,-1,42
 281 493 281 493 274.5 436 c 128,-1,43
 268 379 268 379 268 336 c 0,23,24
EndSplineSet
EndChar
StartChar: r
Encoding: 114 114 148
Width: 1126
GlyphClass: 2
Flags: W
AnchorPoint: "Anchor-11" 0 1700 basechar 0
AnchorPoint: "Anchor-10" 1126 1700 basechar 0
AnchorPoint: "Anchor-9" 310 0 basechar 0
AnchorPoint: "Anchor-8" 280 0 basechar 0
AnchorPoint: "Anchor-7" 800 970 basechar 0
AnchorPoint: "Anchor-6" 1126 -350 basechar 0
AnchorPoint: "Anchor-5" 1126 1700 basechar 0
AnchorPoint: "Anchor-4" 850 950 basechar 0
AnchorPoint: "Anchor-2" 563 -180 basechar 0
AnchorPoint: "Anchor-1" 1052 1160 basechar 0
AnchorPoint: "Anchor-0" 563 1200 basechar 0
LayerCount: 2
Back
Fore
SplineSet
207 543 m 2,0,1
 211 562 211 562 215.5 593 c 128,-1,2
 220 624 220 624 226 676.5 c 128,-1,3
 232 729 232 729 241 808.5 c 128,-1,4
 250 888 250 888 262 1004 c 1,5,-1
 426 1004 l 1,6,-1
 401 772 l 1,7,8
 436 823 436 823 477 868.5 c 128,-1,9
 518 914 518 914 567 948 c 128,-1,10
 616 982 616 982 674 1002 c 128,-1,11
 732 1022 732 1022 801 1022 c 0,12,13
 966 1022 966 1022 1029 919 c 128,-1,14
 1092 816 1092 816 1049 621 c 1,15,-1
 872 621 l 1,16,17
 887 690 887 690 887 738 c 128,-1,18
 887 786 887 786 873.5 815.5 c 128,-1,19
 860 845 860 845 833.5 858.5 c 128,-1,20
 807 872 807 872 770 872 c 0,21,22
 698 872 698 872 630 828.5 c 128,-1,23
 562 785 562 785 505.5 714.5 c 128,-1,24
 449 644 449 644 408.5 556 c 128,-1,25
 368 468 368 468 350 379 c 2,26,-1
 274 0 l 1,27,-1
 98 0 l 1,28,-1
 207 543 l 2,0,1
EndSplineSet
Substitution2: "'ordn' Ordinals in Latin lookup 38 subtable" uni02B3
Substitution2: "'sups' Superscript lookup 34 subtable" uni02B3
AlternateSubs2: "'ss06' Style Set 6 lookup 31 subtable" glyph310
Substitution2: "'ss05' Style Set 5 lookup 30 subtable" r.ss05
Substitution2: "'ss04' Style Set 4 lookup 29 subtable" r.ss04
AlternateSubs2: "'salt' Stylistic Alternatives lookup 23 subtable" r.ss04 r.ss05 glyph310
EndChar
StartChar: s
Encoding: 115 115 149
Width: 1126
GlyphClass: 2
Flags: W
AnchorPoint: "Anchor-11" 0 1700 basechar 0
AnchorPoint: "Anchor-10" 1126 1700 basechar 0
AnchorPoint: "Anchor-9" 640 0 basechar 0
AnchorPoint: "Anchor-8" 563 0 basechar 0
AnchorPoint: "Anchor-7" 750 970 basechar 0
AnchorPoint: "Anchor-6" 1126 -350 basechar 0
AnchorPoint: "Anchor-5" 1126 1700 basechar 0
AnchorPoint: "Anchor-4" 770 980 basechar 0
AnchorPoint: "Anchor-2" 563 -180 basechar 0
AnchorPoint: "Anchor-1" 935 1160 basechar 0
AnchorPoint: "Anchor-0" 563 1200 basechar 0
LayerCount: 2
Back
Fore
SplineSet
971 836 m 1,0,1
 880 857 880 857 808 867 c 128,-1,2
 736 877 736 877 680 877 c 0,3,4
 611 877 611 877 561.5 866 c 128,-1,5
 512 855 512 855 480 835 c 128,-1,6
 448 815 448 815 433 786.5 c 128,-1,7
 418 758 418 758 418 723 c 0,8,9
 418 698 418 698 429.5 678.5 c 128,-1,10
 441 659 441 659 466 641.5 c 128,-1,11
 491 624 491 624 532.5 607 c 128,-1,12
 574 590 574 590 635 571 c 0,13,14
 708 547 708 547 759.5 521.5 c 128,-1,15
 811 496 811 496 844 464 c 128,-1,16
 877 432 877 432 892 393 c 128,-1,17
 907 354 907 354 907 303 c 0,18,19
 907 225 907 225 873 165 c 128,-1,20
 839 105 839 105 778 64.5 c 128,-1,21
 717 24 717 24 631.5 3 c 128,-1,22
 546 -18 546 -18 444 -18 c 0,23,24
 348 -18 348 -18 261.5 -10 c 128,-1,25
 175 -2 175 -2 100 16 c 1,26,-1
 100 186 l 1,27,28
 190 157 190 157 279 143 c 128,-1,29
 368 129 368 129 455 129 c 0,30,31
 597 129 597 129 662 169 c 128,-1,32
 727 209 727 209 727 293 c 0,33,34
 727 315 727 315 717 333.5 c 128,-1,35
 707 352 707 352 683 368.5 c 128,-1,36
 659 385 659 385 617 402 c 128,-1,37
 575 419 575 419 510 438 c 0,38,39
 450 456 450 456 400.5 478.5 c 128,-1,40
 351 501 351 501 315 532.5 c 128,-1,41
 279 564 279 564 259.5 606.5 c 128,-1,42
 240 649 240 649 240 705 c 0,43,44
 240 772 240 772 267 829.5 c 128,-1,45
 294 887 294 887 350.5 930 c 128,-1,46
 407 973 407 973 493 997.5 c 128,-1,47
 579 1022 579 1022 696 1022 c 0,48,49
 724 1022 724 1022 757.5 1020 c 128,-1,50
 791 1018 791 1018 827 1013.5 c 128,-1,51
 863 1009 863 1009 899.5 1003 c 128,-1,52
 936 997 936 997 971 989 c 1,53,-1
 971 836 l 1,0,1
EndSplineSet
EndChar
StartChar: t
Encoding: 116 116 150
Width: 1126
GlyphClass: 2
Flags: W
AnchorPoint: "Anchor-11" 0 1700 basechar 0
AnchorPoint: "Anchor-10" 1126 1700 basechar 0
AnchorPoint: "Anchor-9" 780 0 basechar 0
AnchorPoint: "Anchor-8" 680 0 basechar 0
AnchorPoint: "Anchor-7" 800 1000 basechar 0
AnchorPoint: "Anchor-6" 1126 -350 basechar 0
AnchorPoint: "Anchor-5" 1126 1700 basechar 0
AnchorPoint: "Anchor-4" 830 1000 basechar 0
AnchorPoint: "Anchor-2" 563 -180 basechar 0
AnchorPoint: "Anchor-1" 969 1400 basechar 0
AnchorPoint: "Anchor-0" 433 1450 basechar 0
LayerCount: 2
Back
Fore
SplineSet
885 14 m 1,0,1
 822 -1 822 -1 760.5 -7.5 c 128,-1,2
 699 -14 699 -14 651 -14 c 0,3,4
 549 -14 549 -14 476.5 8.5 c 128,-1,5
 404 31 404 31 362 80 c 128,-1,6
 320 129 320 129 309.5 206.5 c 128,-1,7
 299 284 299 284 322 395 c 2,8,-1
 414 858 l 1,9,-1
 133 858 l 1,10,-1
 162 1004 l 1,11,-1
 442 1004 l 1,12,-1
 498 1280 l 1,13,-1
 682 1325 l 1,14,-1
 616 1004 l 1,15,-1
 1067 1004 l 1,16,-1
 1038 858 l 1,17,-1
 588 858 l 1,18,-1
 494 389 l 2,19,20
 480 320 480 320 483 271.5 c 128,-1,21
 486 223 486 223 507 192 c 128,-1,22
 528 161 528 161 568 147 c 128,-1,23
 608 133 608 133 670 133 c 0,24,25
 707 133 707 133 763 140.5 c 128,-1,26
 819 148 819 148 885 164 c 1,27,-1
 885 14 l 1,0,1
EndSplineSet
Substitution2: "'ordn' Ordinals in Latin lookup 38 subtable" uni1D57
Substitution2: "'sups' Superscript lookup 34 subtable" uni1D57
EndChar
StartChar: u
Encoding: 117 117 151
Width: 1126
GlyphClass: 2
Flags: W
AnchorPoint: "Anchor-11" 0 1700 basechar 0
AnchorPoint: "Anchor-10" 1126 1700 basechar 0
AnchorPoint: "Anchor-9" 950 0 basechar 0
AnchorPoint: "Anchor-8" 500 0 basechar 0
AnchorPoint: "Anchor-7" 830 1000 basechar 0
AnchorPoint: "Anchor-6" 1126 -350 basechar 0
AnchorPoint: "Anchor-5" 1126 1700 basechar 0
AnchorPoint: "Anchor-4" 830 1000 basechar 0
AnchorPoint: "Anchor-2" 563 -180 basechar 0
AnchorPoint: "Anchor-1" 1017 1160 basechar 0
AnchorPoint: "Anchor-0" 563 1200 basechar 0
LayerCount: 2
Back
Fore
SplineSet
956 461 m 2,0,1
 952 442 952 442 947.5 411 c 128,-1,2
 943 380 943 380 937 327.5 c 128,-1,3
 931 275 931 275 922 195.5 c 128,-1,4
 913 116 913 116 901 0 c 1,5,-1
 737 0 l 1,6,-1
 762 231 l 1,7,8
 693 111 693 111 595.5 46.5 c 128,-1,9
 498 -18 498 -18 383 -18 c 0,10,11
 224 -18 224 -18 157.5 78 c 128,-1,12
 91 174 91 174 129 360 c 2,13,-1
 258 1004 l 1,14,-1
 432 1004 l 1,15,-1
 303 362 l 2,16,17
 278 241 278 241 306.5 186 c 128,-1,18
 335 131 335 131 416 131 c 0,19,20
 459 131 459 131 501.5 151 c 128,-1,21
 544 171 544 171 584.5 206.5 c 128,-1,22
 625 242 625 242 661.5 289.5 c 128,-1,23
 698 337 698 337 728.5 392 c 128,-1,24
 759 447 759 447 781 506.5 c 128,-1,25
 803 566 803 566 815 625 c 2,26,-1
 891 1004 l 1,27,-1
 1065 1004 l 1,28,-1
 956 461 l 2,0,1
EndSplineSet
Substitution2: "'ordn' Ordinals in Latin lookup 38 subtable" uni1D58
Substitution2: "'sups' Superscript lookup 34 subtable" uni1D58
EndChar
StartChar: v
Encoding: 118 118 152
Width: 1126
GlyphClass: 2
Flags: W
AnchorPoint: "Anchor-11" 0 1700 basechar 0
AnchorPoint: "Anchor-10" 1126 1700 basechar 0
AnchorPoint: "Anchor-9" 580 0 basechar 0
AnchorPoint: "Anchor-7" 810 1000 basechar 0
AnchorPoint: "Anchor-6" 1126 -350 basechar 0
AnchorPoint: "Anchor-5" 1126 1700 basechar 0
AnchorPoint: "Anchor-4" 840 1000 basechar 0
AnchorPoint: "Anchor-2" 563 -180 basechar 0
AnchorPoint: "Anchor-1" 1103 1160 basechar 0
AnchorPoint: "Anchor-0" 563 1200 basechar 0
LayerCount: 2
Back
Fore
SplineSet
164 1004 m 1,0,-1
 352 1004 l 1,1,-1
 463 340 l 1,2,-1
 487 170 l 1,3,4
 575 250 575 250 641.5 347 c 128,-1,5
 708 444 708 444 755.5 551.5 c 128,-1,6
 803 659 803 659 831 773.5 c 128,-1,7
 859 888 859 888 870 1004 c 1,8,-1
 1067 1004 l 1,9,10
 1051 864 1051 864 1005 725 c 128,-1,11
 959 586 959 586 888.5 456 c 128,-1,12
 818 326 818 326 724.5 210 c 128,-1,13
 631 94 631 94 520 0 c 1,14,-1
 352 0 l 1,15,-1
 164 1004 l 1,0,-1
EndSplineSet
Substitution2: "'ordn' Ordinals in Latin lookup 38 subtable" uni1D5B
Substitution2: "'sups' Superscript lookup 34 subtable" uni1D5B
EndChar
StartChar: w
Encoding: 119 119 153
Width: 1126
GlyphClass: 2
Flags: W
AnchorPoint: "Anchor-11" 0 1700 basechar 0
AnchorPoint: "Anchor-10" 1126 1700 basechar 0
AnchorPoint: "Anchor-9" 840 0 basechar 0
AnchorPoint: "Anchor-7" 920 1000 basechar 0
AnchorPoint: "Anchor-6" 1126 -350 basechar 0
AnchorPoint: "Anchor-5" 1126 1700 basechar 0
AnchorPoint: "Anchor-4" 930 1000 basechar 0
AnchorPoint: "Anchor-2" 563 -180 basechar 0
AnchorPoint: "Anchor-1" 1140 1160 basechar 0
AnchorPoint: "Anchor-0" 563 1200 basechar 0
LayerCount: 2
Back
Fore
SplineSet
1151 1004 m 1,0,1
 1142 871 1142 871 1114.5 729.5 c 128,-1,2
 1087 588 1087 588 1040.5 454 c 128,-1,3
 994 320 994 320 930.5 202.5 c 128,-1,4
 867 85 867 85 786 0 c 1,5,-1
 639 0 l 1,6,-1
 573 420 l 1,7,-1
 565 522 l 1,8,-1
 510 414 l 1,9,-1
 285 0 l 1,10,-1
 72 0 l 1,11,-1
 139 1004 l 1,12,-1
 307 1004 l 1,13,-1
 248 322 l 1,14,-1
 233 170 l 1,15,-1
 303 303 l 1,16,-1
 543 754 l 1,17,-1
 668 754 l 1,18,-1
 739 309 l 1,19,-1
 758 176 l 1,20,21
 809 253 809 253 848 349 c 128,-1,22
 887 445 887 445 914 552 c 128,-1,23
 941 659 941 659 957 774 c 128,-1,24
 973 889 973 889 979 1004 c 1,25,-1
 1151 1004 l 1,0,1
EndSplineSet
Substitution2: "'ordn' Ordinals in Latin lookup 38 subtable" uni02B7
Substitution2: "'sups' Superscript lookup 34 subtable" uni02B7
EndChar
StartChar: x
Encoding: 120 120 154
Width: 1126
GlyphClass: 2
Flags: W
AnchorPoint: "Anchor-11" 0 1700 basechar 0
AnchorPoint: "Anchor-10" 1126 1700 basechar 0
AnchorPoint: "Anchor-9" 990 0 basechar 0
AnchorPoint: "Anchor-7" 830 1000 basechar 0
AnchorPoint: "Anchor-6" 1126 -350 basechar 0
AnchorPoint: "Anchor-5" 1126 1700 basechar 0
AnchorPoint: "Anchor-4" 830 1000 basechar 0
AnchorPoint: "Anchor-2" 563 -180 basechar 0
AnchorPoint: "Anchor-1" 1085 1160 basechar 0
AnchorPoint: "Anchor-0" 563 1200 basechar 0
LayerCount: 2
Back
Fore
SplineSet
963 0 m 1,0,-1
 739 0 l 1,1,-1
 545 383 l 1,2,-1
 201 0 l 1,3,-1
 -33 0 l 1,4,-1
 457 504 l 1,5,-1
 186 1004 l 1,6,-1
 401 1004 l 1,7,-1
 588 618 l 1,8,-1
 924 1004 l 1,9,-1
 1147 1004 l 1,10,-1
 670 500 l 1,11,-1
 963 0 l 1,0,-1
EndSplineSet
EndChar
StartChar: y
Encoding: 121 121 155
Width: 1126
GlyphClass: 2
Flags: W
AnchorPoint: "Anchor-11" 0 1700 basechar 0
AnchorPoint: "Anchor-10" 1126 1700 basechar 0
AnchorPoint: "Anchor-9" 300 -350 basechar 0
AnchorPoint: "Anchor-7" 810 1000 basechar 0
AnchorPoint: "Anchor-6" 1126 -350 basechar 0
AnchorPoint: "Anchor-5" 1126 1700 basechar 0
AnchorPoint: "Anchor-4" 830 1000 basechar 0
AnchorPoint: "Anchor-2" 563 -500 basechar 0
AnchorPoint: "Anchor-1" 1103 1160 basechar 0
AnchorPoint: "Anchor-0" 563 1200 basechar 0
LayerCount: 2
Back
Fore
SplineSet
719 201 m 0,0,1
 631 75 631 75 558 -19.5 c 128,-1,2
 485 -114 485 -114 422.5 -183 c 128,-1,3
 360 -252 360 -252 305.5 -296.5 c 128,-1,4
 251 -341 251 -341 200 -368 c 128,-1,5
 149 -395 149 -395 99 -405.5 c 128,-1,6
 49 -416 49 -416 -4 -416 c 0,7,8
 -30 -416 -30 -416 -53 -414.5 c 128,-1,9
 -76 -413 -76 -413 -106 -410 c 1,10,-1
 -106 -252 l 1,11,12
 -79 -257 -79 -257 -50 -259.5 c 128,-1,13
 -21 -262 -21 -262 8 -262 c 0,14,15
 56 -262 56 -262 98.5 -248 c 128,-1,16
 141 -234 141 -234 183.5 -202.5 c 128,-1,17
 226 -171 226 -171 270.5 -121 c 128,-1,18
 315 -71 315 -71 367 0 c 1,19,-1
 164 1004 l 1,20,-1
 352 1004 l 1,21,-1
 483 340 l 1,22,-1
 508 168 l 1,23,24
 581 273 581 273 634.5 360.5 c 128,-1,25
 688 448 688 448 726.5 522 c 128,-1,26
 765 596 765 596 789.5 659.5 c 128,-1,27
 814 723 814 723 829.5 780.5 c 128,-1,28
 845 838 845 838 853 892.5 c 128,-1,29
 861 947 861 947 866 1004 c 1,30,-1
 1057 1004 l 1,31,32
 1045 906 1045 906 1024.5 816.5 c 128,-1,33
 1004 727 1004 727 966 633.5 c 128,-1,34
 928 540 928 540 868.5 435 c 128,-1,35
 809 330 809 330 719 201 c 0,0,1
EndSplineSet
Substitution2: "'ordn' Ordinals in Latin lookup 38 subtable" uni02B8
Substitution2: "'sups' Superscript lookup 34 subtable" uni02B8
EndChar
StartChar: z
Encoding: 122 122 156
Width: 1126
GlyphClass: 2
Flags: W
AnchorPoint: "Anchor-11" 0 1700 basechar 0
AnchorPoint: "Anchor-10" 1126 1700 basechar 0
AnchorPoint: "Anchor-9" 910 0 basechar 0
AnchorPoint: "Anchor-7" 780 1000 basechar 0
AnchorPoint: "Anchor-6" 1126 -350 basechar 0
AnchorPoint: "Anchor-5" 1126 1700 basechar 0
AnchorPoint: "Anchor-4" 810 1000 basechar 0
AnchorPoint: "Anchor-2" 563 -180 basechar 0
AnchorPoint: "Anchor-1" 983 1160 basechar 0
AnchorPoint: "Anchor-0" 563 1200 basechar 0
LayerCount: 2
Back
Fore
SplineSet
870 0 m 1,0,-1
 61 0 l 1,1,-1
 86 125 l 1,2,-1
 795 858 l 1,3,-1
 248 858 l 1,4,-1
 276 1004 l 1,5,-1
 1038 1004 l 1,6,-1
 1012 868 l 1,7,-1
 315 147 l 1,8,-1
 899 147 l 1,9,-1
 870 0 l 1,0,-1
EndSplineSet
Substitution2: "'ordn' Ordinals in Latin lookup 38 subtable" uni1DBB
Substitution2: "'sups' Superscript lookup 34 subtable" uni1DBB
EndChar
StartChar: braceleft
Encoding: 123 123 391
Width: 1126
Flags: W
LayerCount: 2
Back
Fore
SplineSet
713 -410 m 1,0,-1
 639 -410 l 2,1,2
 446 -410 446 -410 371.5 -314.5 c 128,-1,3
 297 -219 297 -219 334 -35 c 2,4,-1
 399 299 l 2,5,6
 409 348 409 348 405.5 386.5 c 128,-1,7
 402 425 402 425 380 451.5 c 128,-1,8
 358 478 358 478 315 492 c 128,-1,9
 272 506 272 506 203 506 c 2,10,-1
 160 506 l 1,11,-1
 188 645 l 1,12,-1
 231 645 l 2,13,14
 304 645 304 645 352.5 657 c 128,-1,15
 401 669 401 669 432.5 693.5 c 128,-1,16
 464 718 464 718 481.5 756 c 128,-1,17
 499 794 499 794 510 846 c 2,18,-1
 559 1094 l 2,19,20
 576 1178 576 1178 609 1243.5 c 128,-1,21
 642 1309 642 1309 696 1354.5 c 128,-1,22
 750 1400 750 1400 827.5 1424 c 128,-1,23
 905 1448 905 1448 1010 1448 c 2,24,-1
 1083 1448 l 1,25,-1
 1056 1308 l 1,26,-1
 996 1308 l 2,27,28
 765 1308 765 1308 721 1083 c 2,29,-1
 672 840 l 2,30,31
 647 716 647 716 582 650.5 c 128,-1,32
 517 585 517 585 408 569 c 1,33,34
 462 564 462 564 497 540.5 c 128,-1,35
 532 517 532 517 550.5 480.5 c 128,-1,36
 569 444 569 444 572 395.5 c 128,-1,37
 575 347 575 347 563 291 c 2,38,-1
 498 -41 l 2,39,40
 486 -98 486 -98 489.5 -141 c 128,-1,41
 493 -184 493 -184 514 -212.5 c 128,-1,42
 535 -241 535 -241 576 -255.5 c 128,-1,43
 617 -270 617 -270 682 -270 c 2,44,-1
 741 -270 l 1,45,-1
 713 -410 l 1,0,-1
EndSplineSet
Substitution2: "'case' Case-Sensitive Forms lookup 0 subtable" braceleft.case
EndChar
StartChar: bar
Encoding: 124 124 374
Width: 1126
Flags: W
LayerCount: 2
Back
Fore
SplineSet
461 -410 m 1,0,-1
 297 -410 l 1,1,-1
 707 1638 l 1,2,-1
 870 1638 l 1,3,-1
 461 -410 l 1,0,-1
EndSplineSet
EndChar
StartChar: braceright
Encoding: 125 125 392
Width: 1126
Flags: W
LayerCount: 2
Back
Fore
SplineSet
416 1448 m 1,0,-1
 489 1448 l 2,1,2
 682 1448 682 1448 758 1352.5 c 128,-1,3
 834 1257 834 1257 797 1073 c 2,4,-1
 750 842 l 2,5,6
 740 793 740 793 743.5 756 c 128,-1,7
 747 719 747 719 769.5 694.5 c 128,-1,8
 792 670 792 670 835.5 657.5 c 128,-1,9
 879 645 879 645 948 645 c 2,10,-1
 991 645 l 1,11,-1
 963 506 l 1,12,-1
 920 506 l 2,13,14
 847 506 847 506 798 492.5 c 128,-1,15
 749 479 749 479 717.5 452.5 c 128,-1,16
 686 426 686 426 668.5 386.5 c 128,-1,17
 651 347 651 347 641 295 c 2,18,-1
 571 -55 l 2,19,20
 554 -139 554 -139 520.5 -205 c 128,-1,21
 487 -271 487 -271 433 -316.5 c 128,-1,22
 379 -362 379 -362 301.5 -386 c 128,-1,23
 224 -410 224 -410 119 -410 c 2,24,-1
 45 -410 l 1,25,-1
 74 -270 l 1,26,-1
 133 -270 l 2,27,28
 363 -270 363 -270 410 -45 c 2,29,-1
 479 311 l 2,30,31
 504 435 504 435 569 501.5 c 128,-1,32
 634 568 634 568 743 584 c 1,33,34
 640 595 640 595 601.5 664 c 128,-1,35
 563 733 563 733 588 860 c 2,36,-1
 633 1090 l 2,37,38
 656 1204 656 1204 610 1256 c 128,-1,39
 564 1308 564 1308 449 1308 c 2,40,-1
 389 1308 l 1,41,-1
 416 1448 l 1,0,-1
EndSplineSet
Substitution2: "'case' Case-Sensitive Forms lookup 0 subtable" braceright.case
EndChar
StartChar: asciitilde
Encoding: 126 126 594
Width: 1126
Flags: W
LayerCount: 2
Back
Fore
SplineSet
1085 696 m 1,0,1
 1083 620 1083 620 1061.5 555.5 c 128,-1,2
 1040 491 1040 491 1001 444 c 128,-1,3
 962 397 962 397 905.5 370.5 c 128,-1,4
 849 344 849 344 776 344 c 0,5,6
 721 344 721 344 677.5 362.5 c 128,-1,7
 634 381 634 381 598 409 c 128,-1,8
 562 437 562 437 531.5 470 c 128,-1,9
 501 503 501 503 472 531 c 128,-1,10
 443 559 443 559 413.5 577.5 c 128,-1,11
 384 596 384 596 350 596 c 0,12,13
 291 596 291 596 257 549 c 128,-1,14
 223 502 223 502 215 401 c 1,15,-1
 55 401 l 1,16,17
 59 477 59 477 81 541.5 c 128,-1,18
 103 606 103 606 141.5 653.5 c 128,-1,19
 180 701 180 701 234.5 727.5 c 128,-1,20
 289 754 289 754 360 754 c 0,21,22
 415 754 415 754 458.5 735.5 c 128,-1,23
 502 717 502 717 538.5 689 c 128,-1,24
 575 661 575 661 606 628 c 128,-1,25
 637 595 637 595 666 567 c 128,-1,26
 695 539 695 539 724.5 520.5 c 128,-1,27
 754 502 754 502 788 502 c 0,28,29
 855 502 855 502 887 548 c 128,-1,30
 919 594 919 594 925 696 c 1,31,-1
 1085 696 l 1,0,1
EndSplineSet
EndChar
StartChar: exclamdown
Encoding: 161 161 353
Width: 1126
Flags: W
LayerCount: 2
Back
Fore
SplineSet
274 -410 m 1,0,-1
 508 621 l 1,1,-1
 662 621 l 1,2,-1
 485 -410 l 1,3,-1
 274 -410 l 1,0,-1
635 758 m 256,4,5
 607 758 607 758 584 768.5 c 128,-1,6
 561 779 561 779 544 796.5 c 128,-1,7
 527 814 527 814 517.5 837.5 c 128,-1,8
 508 861 508 861 508 887 c 0,9,10
 508 915 508 915 519 940 c 128,-1,11
 530 965 530 965 548.5 983 c 128,-1,12
 567 1001 567 1001 591.5 1011.5 c 128,-1,13
 616 1022 616 1022 643 1022 c 0,14,15
 671 1022 671 1022 695 1011.5 c 128,-1,16
 719 1001 719 1001 736 984 c 128,-1,17
 753 967 753 967 762.5 943.5 c 128,-1,18
 772 920 772 920 772 895 c 0,19,20
 772 866 772 866 761 841 c 128,-1,21
 750 816 750 816 731 797.5 c 128,-1,22
 712 779 712 779 687.5 768.5 c 128,-1,23
 663 758 663 758 635 758 c 256,4,5
EndSplineSet
Substitution2: "'case' Case-Sensitive Forms lookup 0 subtable" exclamdown.case
EndChar
StartChar: cent
Encoding: 162 162 611
Width: 1126
Flags: W
LayerCount: 2
Back
Fore
SplineSet
606 319 m 1,0,1
 641 319 641 319 673 322 c 128,-1,2
 705 325 705 325 736 331 c 128,-1,3
 767 337 767 337 798 347 c 128,-1,4
 829 357 829 357 864 371 c 1,5,-1
 864 221 l 1,6,7
 792 196 792 196 713 183 c 128,-1,8
 634 170 634 170 559 170 c 1,9,-1
 418 -250 l 1,10,-1
 264 -250 l 1,11,-1
 408 182 l 1,12,13
 274 211 274 211 208.5 302 c 128,-1,14
 143 393 143 393 143 535 c 0,15,16
 143 665 143 665 184.5 779 c 128,-1,17
 226 893 226 893 302.5 978.5 c 128,-1,18
 379 1064 379 1064 488.5 1113.5 c 128,-1,19
 598 1163 598 1163 735 1163 c 1,20,-1
 844 1495 l 1,21,-1
 999 1495 l 1,22,-1
 887 1155 l 1,23,24
 925 1150 925 1150 959.5 1140.5 c 128,-1,25
 994 1131 994 1131 1028 1118 c 1,26,-1
 995 961 l 1,27,28
 958 979 958 979 920 990.5 c 128,-1,29
 882 1002 882 1002 840 1010 c 1,30,-1
 606 319 l 1,0,1
684 1014 m 1,31,32
 602 1010 602 1010 535.5 970 c 128,-1,33
 469 930 469 930 422.5 866 c 128,-1,34
 376 802 376 802 351 720.5 c 128,-1,35
 326 639 326 639 326 553 c 0,36,37
 326 468 326 468 358 413 c 128,-1,38
 390 358 390 358 459 336 c 1,39,-1
 684 1014 l 1,31,32
EndSplineSet
EndChar
StartChar: sterling
Encoding: 163 163 612
Width: 1126
Flags: W
LayerCount: 2
Back
Fore
SplineSet
907 721 m 1,0,-1
 879 578 l 1,1,-1
 442 578 l 1,2,-1
 356 147 l 1,3,-1
 924 147 l 1,4,-1
 895 0 l 1,5,-1
 -10 0 l 1,6,-1
 18 147 l 1,7,-1
 178 147 l 1,8,-1
 264 578 l 1,9,-1
 104 578 l 1,10,-1
 133 721 l 1,11,-1
 293 721 l 1,12,-1
 332 907 l 2,13,14
 352 1009 352 1009 395 1087 c 128,-1,15
 438 1165 438 1165 501 1218 c 128,-1,16
 564 1271 564 1271 645 1298 c 128,-1,17
 726 1325 726 1325 823 1325 c 0,18,19
 930 1325 930 1325 1007.5 1287.5 c 128,-1,20
 1085 1250 1085 1250 1135 1194 c 1,21,-1
 1028 1083 l 1,22,23
 1007 1105 1007 1105 984 1122.5 c 128,-1,24
 961 1140 961 1140 934.5 1152 c 128,-1,25
 908 1164 908 1164 876.5 1170 c 128,-1,26
 845 1176 845 1176 805 1176 c 0,27,28
 751 1176 751 1176 703 1158 c 128,-1,29
 655 1140 655 1140 616 1104.5 c 128,-1,30
 577 1069 577 1069 549 1015.5 c 128,-1,31
 521 962 521 962 506 891 c 2,32,-1
 471 721 l 1,33,-1
 907 721 l 1,0,-1
EndSplineSet
EndChar
StartChar: currency
Encoding: 164 164 607
Width: 1126
Flags: W
LayerCount: 2
Back
Fore
SplineSet
700 291 m 1,0,1
 657 269 657 269 609.5 257.5 c 128,-1,2
 562 246 562 246 508 246 c 0,3,4
 406 246 406 246 336 283 c 1,5,-1
 154 61 l 1,6,-1
 12 152 l 1,7,-1
 236 391 l 1,8,9
 220 422 220 422 211.5 460 c 128,-1,10
 203 498 203 498 203 543 c 0,11,12
 203 595 203 595 213 649 c 128,-1,13
 223 703 223 703 242 755 c 128,-1,14
 261 807 261 807 289 853.5 c 128,-1,15
 317 900 317 900 352 938 c 1,16,-1
 217 1171 l 1,17,-1
 381 1262 l 1,18,-1
 481 1032 l 1,19,20
 525 1054 525 1054 573.5 1065.5 c 128,-1,21
 622 1077 622 1077 676 1077 c 0,22,23
 779 1077 779 1077 846 1040 c 1,24,-1
 1032 1262 l 1,25,-1
 1171 1171 l 1,26,-1
 950 932 l 1,27,28
 966 901 966 901 973.5 862 c 128,-1,29
 981 823 981 823 981 778 c 0,30,31
 981 726 981 726 971 672 c 128,-1,32
 961 618 961 618 942 567 c 128,-1,33
 923 516 923 516 895 469 c 128,-1,34
 867 422 867 422 831 385 c 1,35,-1
 967 152 l 1,36,-1
 805 61 l 1,37,-1
 700 291 l 1,0,1
799 754 m 0,38,39
 799 839 799 839 759 881.5 c 128,-1,40
 719 924 719 924 645 924 c 0,41,42
 580 924 580 924 531.5 889.5 c 128,-1,43
 483 855 483 855 450.5 803 c 128,-1,44
 418 751 418 751 401.5 688.5 c 128,-1,45
 385 626 385 626 385 571 c 0,46,47
 385 486 385 486 425.5 442.5 c 128,-1,48
 466 399 466 399 541 399 c 0,49,50
 606 399 606 399 654.5 434 c 128,-1,51
 703 469 703 469 735 522 c 128,-1,52
 767 575 767 575 783 637 c 128,-1,53
 799 699 799 699 799 754 c 0,38,39
EndSplineSet
EndChar
StartChar: yen
Encoding: 165 165 614
Width: 1126
Flags: W
LayerCount: 2
Back
Fore
SplineSet
1237 1307 m 1,0,-1
 672 602 l 1,1,-1
 666 573 l 1,2,-1
 973 573 l 1,3,-1
 946 438 l 1,4,-1
 639 438 l 1,5,-1
 606 276 l 1,6,-1
 913 276 l 1,7,-1
 887 141 l 1,8,-1
 580 141 l 1,9,-1
 551 0 l 1,10,-1
 371 0 l 1,11,-1
 399 141 l 1,12,-1
 92 141 l 1,13,-1
 119 276 l 1,14,-1
 426 276 l 1,15,-1
 459 438 l 1,16,-1
 150 438 l 1,17,-1
 176 573 l 1,18,-1
 485 573 l 1,19,-1
 492 602 l 1,20,-1
 215 1307 l 1,21,-1
 410 1307 l 1,22,-1
 545 940 l 1,23,-1
 608 752 l 1,24,-1
 752 944 l 1,25,-1
 1030 1307 l 1,26,-1
 1237 1307 l 1,0,-1
EndSplineSet
EndChar
StartChar: brokenbar
Encoding: 166 166 595
Width: 1126
Flags: W
LayerCount: 2
Back
Fore
SplineSet
461 -410 m 1,0,-1
 297 -410 l 1,1,-1
 465 426 l 1,2,-1
 629 426 l 1,3,-1
 461 -410 l 1,0,-1
545 827 m 1,4,-1
 707 1638 l 1,5,-1
 870 1638 l 1,6,-1
 709 827 l 1,7,-1
 545 827 l 1,4,-1
EndSplineSet
EndChar
StartChar: section
Encoding: 167 167 398
Width: 1126
Flags: W
LayerCount: 2
Back
Fore
SplineSet
756 225 m 1,0,1
 776 205 776 205 789.5 170.5 c 128,-1,2
 803 136 803 136 803 92 c 0,3,4
 803 16 803 16 764.5 -44.5 c 128,-1,5
 726 -105 726 -105 661.5 -147 c 128,-1,6
 597 -189 597 -189 512 -211 c 128,-1,7
 427 -233 427 -233 334 -233 c 0,8,9
 283 -233 283 -233 241.5 -231 c 128,-1,10
 200 -229 200 -229 164 -225 c 128,-1,11
 128 -221 128 -221 95.5 -214.5 c 128,-1,12
 63 -208 63 -208 31 -199 c 1,13,-1
 63 -39 l 1,14,15
 97 -51 97 -51 129 -60 c 128,-1,16
 161 -69 161 -69 194 -75 c 128,-1,17
 227 -81 227 -81 263.5 -83.5 c 128,-1,18
 300 -86 300 -86 342 -86 c 0,19,20
 405 -86 405 -86 457 -74.5 c 128,-1,21
 509 -63 509 -63 546.5 -42 c 128,-1,22
 584 -21 584 -21 604.5 9 c 128,-1,23
 625 39 625 39 625 76 c 0,24,25
 625 117 625 117 591 153.5 c 128,-1,26
 557 190 557 190 506 226.5 c 128,-1,27
 455 263 455 263 395.5 303 c 128,-1,28
 336 343 336 343 285 390.5 c 128,-1,29
 234 438 234 438 200 496 c 128,-1,30
 166 554 166 554 166 627 c 0,31,32
 166 676 166 676 184 725.5 c 128,-1,33
 202 775 202 775 235 820.5 c 128,-1,34
 268 866 268 866 313.5 905.5 c 128,-1,35
 359 945 359 945 414 975 c 1,36,37
 395 995 395 995 381 1027.5 c 128,-1,38
 367 1060 367 1060 367 1110 c 0,39,40
 367 1164 367 1164 391.5 1220 c 128,-1,41
 416 1276 416 1276 470 1321.5 c 128,-1,42
 524 1367 524 1367 611 1396 c 128,-1,43
 698 1425 698 1425 823 1425 c 0,44,45
 882 1425 882 1425 943 1419 c 128,-1,46
 1004 1413 1004 1413 1057 1401 c 1,47,-1
 1028 1251 l 1,48,49
 968 1268 968 1268 916.5 1275 c 128,-1,50
 865 1282 865 1282 809 1282 c 0,51,52
 679 1282 679 1282 611 1241.5 c 128,-1,53
 543 1201 543 1201 543 1122 c 0,54,55
 543 1090 543 1090 562.5 1061.5 c 128,-1,56
 582 1033 582 1033 614 1005 c 128,-1,57
 646 977 646 977 687 949 c 128,-1,58
 728 921 728 921 771 891 c 128,-1,59
 814 861 814 861 855 828 c 128,-1,60
 896 795 896 795 928 756 c 128,-1,61
 960 717 960 717 979.5 672 c 128,-1,62
 999 627 999 627 999 573 c 0,63,64
 999 521 999 521 981 472 c 128,-1,65
 963 423 963 423 931 378.5 c 128,-1,66
 899 334 899 334 854.5 295 c 128,-1,67
 810 256 810 256 756 225 c 1,0,1
653 322 m 1,68,69
 693 343 693 343 724.5 369 c 128,-1,70
 756 395 756 395 778 424.5 c 128,-1,71
 800 454 800 454 811.5 485.5 c 128,-1,72
 823 517 823 517 823 549 c 0,73,74
 823 601 823 601 793 643.5 c 128,-1,75
 763 686 763 686 717.5 724.5 c 128,-1,76
 672 763 672 763 617.5 799 c 128,-1,77
 563 835 563 835 514 874 c 1,78,79
 476 855 476 855 444 829.5 c 128,-1,80
 412 804 412 804 389.5 775.5 c 128,-1,81
 367 747 367 747 354.5 716 c 128,-1,82
 342 685 342 685 342 655 c 0,83,84
 342 602 342 602 371.5 558 c 128,-1,85
 401 514 401 514 446.5 474 c 128,-1,86
 492 434 492 434 547 397 c 128,-1,87
 602 360 602 360 653 322 c 1,68,69
EndSplineSet
EndChar
StartChar: dieresis
Encoding: 168 168 327
Width: 1126
Flags: W
LayerCount: 2
Back
Fore
SplineSet
508 1405 m 0,0,1
 556 1405 556 1405 586 1373.5 c 128,-1,2
 616 1342 616 1342 616 1298 c 0,3,4
 616 1272 616 1272 606.5 1250.5 c 128,-1,5
 597 1229 597 1229 580.5 1213 c 128,-1,6
 564 1197 564 1197 543 1188.5 c 128,-1,7
 522 1180 522 1180 498 1180 c 256,8,9
 474 1180 474 1180 454.5 1188.5 c 128,-1,10
 435 1197 435 1197 420.5 1211.5 c 128,-1,11
 406 1226 406 1226 398.5 1245.5 c 128,-1,12
 391 1265 391 1265 391 1286 c 0,13,14
 391 1312 391 1312 400.5 1334 c 128,-1,15
 410 1356 410 1356 425.5 1371.5 c 128,-1,16
 441 1387 441 1387 462.5 1396 c 128,-1,17
 484 1405 484 1405 508 1405 c 0,0,1
938 1405 m 256,18,19
 962 1405 962 1405 982 1396.5 c 128,-1,20
 1002 1388 1002 1388 1016.5 1373.5 c 128,-1,21
 1031 1359 1031 1359 1039 1339.5 c 128,-1,22
 1047 1320 1047 1320 1047 1298 c 0,23,24
 1047 1272 1047 1272 1037.5 1250.5 c 128,-1,25
 1028 1229 1028 1229 1011.5 1213 c 128,-1,26
 995 1197 995 1197 973.5 1188.5 c 128,-1,27
 952 1180 952 1180 928 1180 c 256,28,29
 904 1180 904 1180 884.5 1188.5 c 128,-1,30
 865 1197 865 1197 850.5 1211.5 c 128,-1,31
 836 1226 836 1226 828.5 1245.5 c 128,-1,32
 821 1265 821 1265 821 1286 c 0,33,34
 821 1312 821 1312 830.5 1334 c 128,-1,35
 840 1356 840 1356 855.5 1371.5 c 128,-1,36
 871 1387 871 1387 892.5 1396 c 128,-1,37
 914 1405 914 1405 938 1405 c 256,18,19
0 1004 m 1024,38,-1
EndSplineSet
EndChar
StartChar: copyright
Encoding: 169 169 602
Width: 1126
Flags: W
LayerCount: 2
Back
Fore
SplineSet
678 1323 m 0,0,1
 791 1323 791 1323 878.5 1281.5 c 128,-1,2
 966 1240 966 1240 1026 1166.5 c 128,-1,3
 1086 1093 1086 1093 1117.5 992 c 128,-1,4
 1149 891 1149 891 1149 772 c 0,5,6
 1149 689 1149 689 1132 598.5 c 128,-1,7
 1115 508 1115 508 1080.5 420.5 c 128,-1,8
 1046 333 1046 333 993 253.5 c 128,-1,9
 940 174 940 174 868 114.5 c 128,-1,10
 796 55 796 55 704 19.5 c 128,-1,11
 612 -16 612 -16 500 -16 c 0,12,13
 387 -16 387 -16 300 25 c 128,-1,14
 213 66 213 66 153.5 139 c 128,-1,15
 94 212 94 212 63 312 c 128,-1,16
 32 412 32 412 32 530 c 0,17,18
 32 629 32 629 52 726 c 128,-1,19
 72 823 72 823 109.5 911.5 c 128,-1,20
 147 1000 147 1000 202 1075 c 128,-1,21
 257 1150 257 1150 328.5 1205.5 c 128,-1,22
 400 1261 400 1261 487.5 1292 c 128,-1,23
 575 1323 575 1323 678 1323 c 0,0,1
657 1192 m 0,24,25
 577 1192 577 1192 511 1164.5 c 128,-1,26
 445 1137 445 1137 392 1090 c 128,-1,27
 339 1043 339 1043 299 979.5 c 128,-1,28
 259 916 259 916 232.5 843.5 c 128,-1,29
 206 771 206 771 193 693.5 c 128,-1,30
 180 616 180 616 180 541 c 0,31,32
 180 448 180 448 202.5 370 c 128,-1,33
 225 292 225 292 268 235 c 128,-1,34
 311 178 311 178 374.5 146.5 c 128,-1,35
 438 115 438 115 520 115 c 0,36,37
 597 115 597 115 662.5 141.5 c 128,-1,38
 728 168 728 168 781.5 213.5 c 128,-1,39
 835 259 835 259 876 321 c 128,-1,40
 917 383 917 383 944.5 454.5 c 128,-1,41
 972 526 972 526 986.5 603.5 c 128,-1,42
 1001 681 1001 681 1001 758 c 0,43,44
 1001 852 1001 852 978.5 932 c 128,-1,45
 956 1012 956 1012 912.5 1069.5 c 128,-1,46
 869 1127 869 1127 805 1159.5 c 128,-1,47
 741 1192 741 1192 657 1192 c 0,24,25
748 352 m 1,48,49
 658 319 658 319 563 319 c 0,50,51
 439 319 439 319 377 379.5 c 128,-1,52
 315 440 315 440 315 555 c 0,53,54
 315 634 315 634 338.5 711.5 c 128,-1,55
 362 789 362 789 409 850 c 128,-1,56
 456 911 456 911 526.5 949 c 128,-1,57
 597 987 597 987 692 987 c 256,58,59
 787 987 787 987 856 956 c 1,60,-1
 829 828 l 1,61,62
 798 845 798 845 764 853 c 128,-1,63
 730 861 730 861 692 861 c 0,64,65
 627 861 627 861 584 830.5 c 128,-1,66
 541 800 541 800 515.5 756 c 128,-1,67
 490 712 490 712 479.5 661.5 c 128,-1,68
 469 611 469 611 469 572 c 0,69,70
 469 506 469 506 501.5 475.5 c 128,-1,71
 534 445 534 445 602 445 c 0,72,73
 640 445 640 445 675 453 c 128,-1,74
 710 461 710 461 748 476 c 1,75,-1
 748 352 l 1,48,49
EndSplineSet
EndChar
StartChar: ordfeminine
Encoding: 170 170 615
Width: 1126
Flags: W
LayerCount: 2
Back
Fore
SplineSet
870 358 m 1,0,-1
 195 358 l 1,1,-1
 221 494 l 1,2,-1
 899 494 l 1,3,-1
 870 358 l 1,0,-1
518 614 m 0,4,5
 419 614 419 614 368 675.5 c 128,-1,6
 317 737 317 737 317 850 c 0,7,8
 317 953 317 953 344.5 1039.5 c 128,-1,9
 372 1126 372 1126 424.5 1188.5 c 128,-1,10
 477 1251 477 1251 552.5 1286 c 128,-1,11
 628 1321 628 1321 725 1321 c 0,12,13
 776 1321 776 1321 817 1314.5 c 128,-1,14
 858 1308 858 1308 887 1298 c 1,15,-1
 1001 1323 l 1,16,-1
 926 946 l 2,17,18
 922 925 922 925 918 900.5 c 128,-1,19
 914 876 914 876 910 840.5 c 128,-1,20
 906 805 906 805 901 754.5 c 128,-1,21
 896 704 896 704 889 631 c 1,22,-1
 760 631 l 1,23,-1
 764 754 l 1,24,25
 749 731 749 731 725 706 c 128,-1,26
 701 681 701 681 669.5 660.5 c 128,-1,27
 638 640 638 640 600 627 c 128,-1,28
 562 614 562 614 518 614 c 0,4,5
814 1175 m 1,29,30
 792 1181 792 1181 768.5 1185 c 128,-1,31
 745 1189 745 1189 720 1189 c 0,32,33
 672 1189 672 1189 636.5 1175.5 c 128,-1,34
 601 1162 601 1162 574.5 1134.5 c 128,-1,35
 548 1107 548 1107 530.5 1071.5 c 128,-1,36
 513 1036 513 1036 502.5 998.5 c 128,-1,37
 492 961 492 961 487.5 925.5 c 128,-1,38
 483 890 483 890 483 862 c 0,39,40
 483 808 483 808 502.5 778 c 128,-1,41
 522 748 522 748 559 748 c 0,42,43
 590 748 590 748 626 774 c 128,-1,44
 662 800 662 800 694 840.5 c 128,-1,45
 726 881 726 881 751 930 c 128,-1,46
 776 979 776 979 784 1024 c 2,47,-1
 814 1175 l 1,29,30
EndSplineSet
EndChar
StartChar: guillemotleft
Encoding: 171 171 369
Width: 1126
Flags: W
LayerCount: 2
Back
Fore
SplineSet
612 872 m 1,0,-1
 328 539 l 1,1,-1
 477 203 l 1,2,-1
 334 137 l 1,3,-1
 150 549 l 1,4,-1
 483 946 l 1,5,-1
 612 872 l 1,0,-1
1042 866 m 1,6,-1
 743 539 l 1,7,-1
 911 211 l 1,8,-1
 772 143 l 1,9,-1
 569 549 l 1,10,-1
 920 942 l 1,11,-1
 1042 866 l 1,6,-1
EndSplineSet
Substitution2: "'case' Case-Sensitive Forms lookup 0 subtable" guillemotleft.case
EndChar
StartChar: logicalnot
Encoding: 172 172 701
Width: 1126
Flags: W
LayerCount: 2
Back
Fore
SplineSet
903 174 m 1,0,-1
 733 174 l 1,1,-1
 793 469 l 1,2,-1
 109 469 l 1,3,-1
 139 621 l 1,4,-1
 993 621 l 1,5,-1
 903 174 l 1,0,-1
EndSplineSet
EndChar
StartChar: registered
Encoding: 174 174 604
Width: 1126
Flags: W
LayerCount: 2
Back
Fore
SplineSet
702 709 m 1,0,-1
 662 877 l 2,1,2
 655 900 655 900 640.5 912 c 128,-1,3
 626 924 626 924 600 924 c 2,4,-1
 580 924 l 1,5,-1
 537 709 l 1,6,-1
 436 709 l 1,7,-1
 541 1229 l 1,8,-1
 688 1229 l 2,9,10
 767 1229 767 1229 814.5 1202 c 128,-1,11
 862 1175 862 1175 862 1112 c 0,12,13
 862 1080 862 1080 850.5 1051.5 c 128,-1,14
 839 1023 839 1023 819 1001.5 c 128,-1,15
 799 980 799 980 772.5 966.5 c 128,-1,16
 746 953 746 953 717 950 c 1,17,18
 735 945 735 945 747 928 c 128,-1,19
 759 911 759 911 770 877 c 2,20,-1
 817 709 l 1,21,-1
 702 709 l 1,0,-1
756 1094 m 0,22,23
 756 1123 756 1123 734.5 1135 c 128,-1,24
 713 1147 713 1147 670 1147 c 2,25,-1
 625 1147 l 1,26,-1
 596 1001 l 1,27,-1
 637 1001 l 2,28,29
 693 1001 693 1001 724.5 1026.5 c 128,-1,30
 756 1052 756 1052 756 1094 c 0,22,23
674 1323 m 0,31,32
 602 1323 602 1323 536.5 1295 c 128,-1,33
 471 1267 471 1267 421 1216 c 128,-1,34
 371 1165 371 1165 341 1094 c 128,-1,35
 311 1023 311 1023 311 938 c 0,36,37
 311 876 311 876 334 817.5 c 128,-1,38
 357 759 357 759 399 714 c 128,-1,39
 441 669 441 669 500 641.5 c 128,-1,40
 559 614 559 614 631 614 c 0,41,42
 702 614 702 614 768 642.5 c 128,-1,43
 834 671 834 671 884.5 722 c 128,-1,44
 935 773 935 773 965 845 c 128,-1,45
 995 917 995 917 995 1004 c 0,46,47
 995 1064 995 1064 971.5 1121.5 c 128,-1,48
 948 1179 948 1179 905.5 1224 c 128,-1,49
 863 1269 863 1269 804 1296 c 128,-1,50
 745 1323 745 1323 674 1323 c 0,31,32
680 1425 m 0,51,52
 774 1425 774 1425 853 1390 c 128,-1,53
 932 1355 932 1355 989 1296.5 c 128,-1,54
 1046 1238 1046 1238 1077.5 1162.5 c 128,-1,55
 1109 1087 1109 1087 1109 1006 c 0,56,57
 1109 898 1109 898 1069 807.5 c 128,-1,58
 1029 717 1029 717 962 651.5 c 128,-1,59
 895 586 895 586 807 549 c 128,-1,60
 719 512 719 512 625 512 c 0,61,62
 530 512 530 512 451.5 547.5 c 128,-1,63
 373 583 373 583 316.5 641.5 c 128,-1,64
 260 700 260 700 228.5 776.5 c 128,-1,65
 197 853 197 853 197 934 c 0,66,67
 197 1042 197 1042 237 1132 c 128,-1,68
 277 1222 277 1222 344 1287 c 128,-1,69
 411 1352 411 1352 498 1388.5 c 128,-1,70
 585 1425 585 1425 680 1425 c 0,51,52
EndSplineSet
EndChar
StartChar: macron
Encoding: 175 175 329
AltUni2: 0002c9.ffffffff.0
Width: 1126
Flags: W
LayerCount: 2
Back
Fore
SplineSet
967 1225 m 1,0,-1
 442 1225 l 1,1,-1
 469 1358 l 1,2,-1
 993 1358 l 1,3,-1
 967 1225 l 1,0,-1
0 1004 m 1024,4,-1
EndSplineSet
EndChar
StartChar: degree
Encoding: 176 176 702
Width: 1126
Flags: W
LayerCount: 2
Back
Fore
SplineSet
1029 1157 m 0,0,1
 1029 1062 1029 1062 994 987 c 128,-1,2
 959 912 959 912 901.5 860 c 128,-1,3
 844 808 844 808 769.5 781 c 128,-1,4
 695 754 695 754 616 754 c 0,5,6
 533 754 533 754 477.5 777 c 128,-1,7
 422 800 422 800 388 837.5 c 128,-1,8
 354 875 354 875 340 922.5 c 128,-1,9
 326 970 326 970 326 1018 c 0,10,11
 326 1115 326 1115 360.5 1191 c 128,-1,12
 395 1267 395 1267 452.5 1319 c 128,-1,13
 510 1371 510 1371 584 1398 c 128,-1,14
 658 1425 658 1425 737 1425 c 0,15,16
 820 1425 820 1425 876 1402 c 128,-1,17
 932 1379 932 1379 966 1341.5 c 128,-1,18
 1000 1304 1000 1304 1014.5 1256 c 128,-1,19
 1029 1208 1029 1208 1029 1157 c 0,0,1
866 1155 m 0,20,21
 866 1174 866 1174 861.5 1197.5 c 128,-1,22
 857 1221 857 1221 841.5 1241.5 c 128,-1,23
 826 1262 826 1262 796.5 1276 c 128,-1,24
 767 1290 767 1290 717 1290 c 0,25,26
 672 1290 672 1290 631 1275 c 128,-1,27
 590 1260 590 1260 558.5 1227.5 c 128,-1,28
 527 1195 527 1195 508 1144.5 c 128,-1,29
 489 1094 489 1094 489 1024 c 0,30,31
 489 1006 489 1006 493.5 982.5 c 128,-1,32
 498 959 498 959 513 938 c 128,-1,33
 528 917 528 917 557.5 903 c 128,-1,34
 587 889 587 889 637 889 c 0,35,36
 682 889 682 889 723 905 c 128,-1,37
 764 921 764 921 796 954 c 128,-1,38
 828 987 828 987 847 1037 c 128,-1,39
 866 1087 866 1087 866 1155 c 0,20,21
EndSplineSet
EndChar
StartChar: plusminus
Encoding: 177 177 691
Width: 1126
Flags: W
LayerCount: 2
Back
Fore
SplineSet
1057 684 m 1,0,-1
 682 684 l 1,1,-1
 604 295 l 1,2,-1
 436 295 l 1,3,-1
 514 684 l 1,4,-1
 139 684 l 1,5,-1
 168 831 l 1,6,-1
 543 831 l 1,7,-1
 621 1219 l 1,8,-1
 788 1219 l 1,9,-1
 711 831 l 1,10,-1
 1085 831 l 1,11,-1
 1057 684 l 1,0,-1
891 0 m 1,12,-1
 31 0 l 1,13,-1
 59 145 l 1,14,-1
 920 145 l 1,15,-1
 891 0 l 1,12,-1
EndSplineSet
EndChar
StartChar: acute
Encoding: 180 180 318
Width: 1126
Flags: W
LayerCount: 2
Back
Fore
SplineSet
1104 1413 m 1,0,-1
 772 1171 l 1,1,-1
 598 1171 l 1,2,-1
 852 1413 l 1,3,-1
 1104 1413 l 1,0,-1
0 1004 m 1024,4,-1
EndSplineSet
Substitution2: "'locl' Localized Forms in Greek lookup 36 subtable" uni1FFD
EndChar
StartChar: paragraph
Encoding: 182 182 399
Width: 1126
Flags: W
LayerCount: 2
Back
Fore
SplineSet
668 571 m 1,0,1
 543 571 543 571 454.5 595.5 c 128,-1,2
 366 620 366 620 310 664.5 c 128,-1,3
 254 709 254 709 227.5 771.5 c 128,-1,4
 201 834 201 834 201 911 c 0,5,6
 201 1015 201 1015 237.5 1106.5 c 128,-1,7
 274 1198 274 1198 349 1266 c 128,-1,8
 424 1334 424 1334 539.5 1373.5 c 128,-1,9
 655 1413 655 1413 813 1413 c 2,10,-1
 1178 1413 l 1,11,-1
 932 184 l 2,12,13
 911 79 911 79 867.5 0.5 c 128,-1,14
 824 -78 824 -78 759.5 -129.5 c 128,-1,15
 695 -181 695 -181 612 -207 c 128,-1,16
 529 -233 529 -233 430 -233 c 256,17,18
 331 -233 331 -233 250.5 -201 c 128,-1,19
 170 -169 170 -169 109 -111 c 1,20,-1
 205 18 l 1,21,22
 248 -28 248 -28 311 -56 c 128,-1,23
 374 -84 374 -84 446 -84 c 0,24,25
 503 -84 503 -84 554 -66 c 128,-1,26
 605 -48 605 -48 646 -12.5 c 128,-1,27
 687 23 687 23 716.5 76 c 128,-1,28
 746 129 746 129 760 199 c 2,29,-1
 975 1270 l 1,30,-1
 807 1270 l 1,31,-1
 668 571 l 1,0,1
EndSplineSet
EndChar
StartChar: periodcentered
Encoding: 183 183 381
AltUni2: 002219.ffffffff.0
Width: 1126
Flags: W
LayerCount: 2
Back
Fore
SplineSet
575 713 m 0,0,1
 611 713 611 713 640.5 700 c 128,-1,2
 670 687 670 687 691 664.5 c 128,-1,3
 712 642 712 642 723.5 612.5 c 128,-1,4
 735 583 735 583 735 551 c 0,5,6
 735 515 735 515 721 483.5 c 128,-1,7
 707 452 707 452 683.5 429 c 128,-1,8
 660 406 660 406 628.5 392.5 c 128,-1,9
 597 379 597 379 563 379 c 0,10,11
 528 379 528 379 499 392 c 128,-1,12
 470 405 470 405 448.5 427.5 c 128,-1,13
 427 450 427 450 415 478.5 c 128,-1,14
 403 507 403 507 403 539 c 0,15,16
 403 576 403 576 417 607.5 c 128,-1,17
 431 639 431 639 455 662.5 c 128,-1,18
 479 686 479 686 510 699.5 c 128,-1,19
 541 713 541 713 575 713 c 0,0,1
EndSplineSet
Substitution2: "'case' Case-Sensitive Forms lookup 0 subtable" periodcentered.case
EndChar
StartChar: cedilla
Encoding: 184 184 340
Width: 1126
Flags: W
LayerCount: 2
Back
Fore
SplineSet
571 0 m 1,0,-1
 426 -295 l 1,1,-1
 274 -295 l 1,2,-1
 399 0 l 1,3,-1
 571 0 l 1,0,-1
EndSplineSet
EndChar
StartChar: ordmasculine
Encoding: 186 186 616
Width: 1126
Flags: W
LayerCount: 2
Back
Fore
SplineSet
870 358 m 1,0,-1
 195 358 l 1,1,-1
 221 494 l 1,2,-1
 897 494 l 1,3,-1
 870 358 l 1,0,-1
590 616 m 0,4,5
 528 616 528 616 474.5 631.5 c 128,-1,6
 421 647 421 647 382 678.5 c 128,-1,7
 343 710 343 710 321 758.5 c 128,-1,8
 299 807 299 807 299 872 c 0,9,10
 299 957 299 957 326 1038 c 128,-1,11
 353 1119 353 1119 406 1182 c 128,-1,12
 459 1245 459 1245 537.5 1283 c 128,-1,13
 616 1321 616 1321 719 1321 c 0,14,15
 782 1321 782 1321 835.5 1305.5 c 128,-1,16
 889 1290 889 1290 927.5 1258.5 c 128,-1,17
 966 1227 966 1227 988 1178.5 c 128,-1,18
 1010 1130 1010 1130 1010 1065 c 0,19,20
 1010 980 1010 980 983 899 c 128,-1,21
 956 818 956 818 903 755 c 128,-1,22
 850 692 850 692 771.5 654 c 128,-1,23
 693 616 693 616 590 616 c 0,4,5
840 1049 m 0,24,25
 840 1082 840 1082 828.5 1107.5 c 128,-1,26
 817 1133 817 1133 797.5 1150 c 128,-1,27
 778 1167 778 1167 752 1176 c 128,-1,28
 726 1185 726 1185 696 1185 c 0,29,30
 636 1185 636 1185 593 1155.5 c 128,-1,31
 550 1126 550 1126 522.5 1081.5 c 128,-1,32
 495 1037 495 1037 482 985 c 128,-1,33
 469 933 469 933 469 889 c 0,34,35
 469 856 469 856 480 830.5 c 128,-1,36
 491 805 491 805 510.5 787.5 c 128,-1,37
 530 770 530 770 556 761 c 128,-1,38
 582 752 582 752 612 752 c 0,39,40
 673 752 673 752 716.5 782 c 128,-1,41
 760 812 760 812 787.5 856.5 c 128,-1,42
 815 901 815 901 827.5 953 c 128,-1,43
 840 1005 840 1005 840 1049 c 0,24,25
EndSplineSet
EndChar
StartChar: guillemotright
Encoding: 187 187 370
Width: 1126
Flags: W
LayerCount: 2
Back
Fore
SplineSet
526 211 m 1,0,-1
 811 545 l 1,1,-1
 662 881 l 1,2,-1
 805 946 l 1,3,-1
 989 535 l 1,4,-1
 655 137 l 1,5,-1
 526 211 l 1,0,-1
96 217 m 1,6,-1
 395 545 l 1,7,-1
 227 872 l 1,8,-1
 367 940 l 1,9,-1
 569 535 l 1,10,-1
 219 141 l 1,11,-1
 96 217 l 1,6,-1
EndSplineSet
Substitution2: "'case' Case-Sensitive Forms lookup 0 subtable" guillemotright.case
EndChar
StartChar: onequarter
Encoding: 188 188 684
Width: 1126
Flags: W
LayerCount: 2
Back
Fore
SplineSet
1290 1413 m 1,0,-1
 86 0 l 1,1,-1
 -86 0 l 1,2,-1
 1116 1413 l 1,3,-1
 1290 1413 l 1,0,-1
311 844 m 1,4,-1
 395 1262 l 1,5,-1
 211 1171 l 1,6,-1
 180 1296 l 1,7,-1
 446 1425 l 1,8,-1
 588 1425 l 1,9,-1
 471 844 l 1,10,-1
 311 844 l 1,4,-1
995 109 m 1,11,-1
 905 109 l 1,12,-1
 885 0 l 1,13,-1
 731 0 l 1,14,-1
 752 109 l 1,15,-1
 453 109 l 1,16,-1
 477 231 l 1,17,-1
 758 569 l 1,18,-1
 997 569 l 1,19,-1
 930 231 l 1,20,-1
 1020 231 l 1,21,-1
 995 109 l 1,11,-1
821 457 m 1,22,-1
 635 231 l 1,23,-1
 776 231 l 1,24,-1
 821 457 l 1,22,-1
EndSplineSet
EndChar
StartChar: onehalf
Encoding: 189 189 685
Width: 1126
Flags: W
LayerCount: 2
Back
Fore
SplineSet
977 0 m 1,0,-1
 537 0 l 1,1,-1
 561 125 l 1,2,-1
 776 279 l 2,3,4
 829 316 829 316 854 344.5 c 128,-1,5
 879 373 879 373 879 408 c 0,6,7
 879 461 879 461 817 461 c 0,8,9
 785 461 785 461 754 447 c 128,-1,10
 723 433 723 433 680 401 c 1,11,-1
 625 502 l 1,12,13
 651 521 651 521 676 536.5 c 128,-1,14
 701 552 701 552 728 562.5 c 128,-1,15
 755 573 755 573 785 578.5 c 128,-1,16
 815 584 815 584 850 584 c 0,17,18
 938 584 938 584 988 541.5 c 128,-1,19
 1038 499 1038 499 1038 428 c 0,20,21
 1038 388 1038 388 1024.5 355 c 128,-1,22
 1011 322 1011 322 984.5 292 c 128,-1,23
 958 262 958 262 918 232 c 128,-1,24
 878 202 878 202 825 168 c 2,25,-1
 758 125 l 1,26,-1
 1001 125 l 1,27,-1
 977 0 l 1,0,-1
1290 1413 m 1,28,-1
 86 0 l 1,29,-1
 -86 0 l 1,30,-1
 1116 1413 l 1,31,-1
 1290 1413 l 1,28,-1
311 844 m 1,32,-1
 395 1262 l 1,33,-1
 211 1171 l 1,34,-1
 180 1296 l 1,35,-1
 446 1425 l 1,36,-1
 588 1425 l 1,37,-1
 471 844 l 1,38,-1
 311 844 l 1,32,-1
EndSplineSet
EndChar
StartChar: threequarters
Encoding: 190 190 686
Width: 1126
Flags: W
LayerCount: 2
Back
Fore
SplineSet
592 1044 m 0,0,1
 592 1013 592 1013 578 975.5 c 128,-1,2
 564 938 564 938 528 905.5 c 128,-1,3
 492 873 492 873 431 851 c 128,-1,4
 370 829 370 829 276 829 c 0,5,6
 246 829 246 829 211 832.5 c 128,-1,7
 176 836 176 836 152 842 c 1,8,-1
 176 961 l 1,9,10
 225 950 225 950 283 950 c 0,11,12
 355 950 355 950 386.5 974 c 128,-1,13
 418 998 418 998 418 1032 c 0,14,15
 418 1055 418 1055 400 1067 c 128,-1,16
 382 1079 382 1079 330 1079 c 2,17,-1
 236 1079 l 1,18,-1
 258 1192 l 1,19,-1
 336 1192 l 2,20,21
 392 1192 392 1192 415 1215.5 c 128,-1,22
 438 1239 438 1239 438 1268 c 0,23,24
 438 1274 438 1274 435 1281 c 128,-1,25
 432 1288 432 1288 424.5 1294.5 c 128,-1,26
 417 1301 417 1301 403.5 1305 c 128,-1,27
 390 1309 390 1309 369 1309 c 0,28,29
 344 1309 344 1309 316 1304.5 c 128,-1,30
 288 1300 288 1300 262 1292 c 1,31,-1
 262 1405 l 1,32,33
 297 1416 297 1416 337 1421.5 c 128,-1,34
 377 1427 377 1427 422 1427 c 0,35,36
 472 1427 472 1427 507 1416.5 c 128,-1,37
 542 1406 542 1406 564.5 1389 c 128,-1,38
 587 1372 587 1372 597.5 1350 c 128,-1,39
 608 1328 608 1328 608 1305 c 0,40,41
 608 1273 608 1273 599 1247 c 128,-1,42
 590 1221 590 1221 575 1201.5 c 128,-1,43
 560 1182 560 1182 540 1168.5 c 128,-1,44
 520 1155 520 1155 498 1147 c 1,45,46
 525 1142 525 1142 543 1131 c 128,-1,47
 561 1120 561 1120 572 1106 c 128,-1,48
 583 1092 583 1092 587.5 1076 c 128,-1,49
 592 1060 592 1060 592 1044 c 0,0,1
1290 1413 m 1,50,-1
 86 0 l 1,51,-1
 -86 0 l 1,52,-1
 1116 1413 l 1,53,-1
 1290 1413 l 1,50,-1
995 109 m 1,54,-1
 905 109 l 1,55,-1
 885 0 l 1,56,-1
 731 0 l 1,57,-1
 752 109 l 1,58,-1
 453 109 l 1,59,-1
 477 231 l 1,60,-1
 758 569 l 1,61,-1
 997 569 l 1,62,-1
 930 231 l 1,63,-1
 1020 231 l 1,64,-1
 995 109 l 1,54,-1
821 457 m 1,65,-1
 635 231 l 1,66,-1
 776 231 l 1,67,-1
 821 457 l 1,65,-1
EndSplineSet
EndChar
StartChar: questiondown
Encoding: 191 191 356
Width: 1126
Flags: W
LayerCount: 2
Back
Fore
SplineSet
582 621 m 1,0,-1
 733 621 l 1,1,-1
 670 238 l 1,2,-1
 565 238 l 2,3,4
 478 238 478 238 424 213.5 c 128,-1,5
 370 189 370 189 340.5 152.5 c 128,-1,6
 311 116 311 116 301 73.5 c 128,-1,7
 291 31 291 31 291 -4 c 0,8,9
 291 -68 291 -68 316.5 -115 c 128,-1,10
 342 -162 342 -162 387.5 -193 c 128,-1,11
 433 -224 433 -224 496.5 -239 c 128,-1,12
 560 -254 560 -254 635 -254 c 2,13,-1
 668 -254 l 1,14,-1
 637 -410 l 1,15,-1
 612 -410 l 2,16,17
 481 -410 481 -410 384.5 -377.5 c 128,-1,18
 288 -345 288 -345 224.5 -290.5 c 128,-1,19
 161 -236 161 -236 129.5 -165 c 128,-1,20
 98 -94 98 -94 98 -18 c 0,21,22
 98 65 98 65 125.5 135.5 c 128,-1,23
 153 206 153 206 207 258.5 c 128,-1,24
 261 311 261 311 341 341.5 c 128,-1,25
 421 372 421 372 526 375 c 1,26,-1
 582 621 l 1,0,-1
705 758 m 0,27,28
 677 758 677 758 654 768.5 c 128,-1,29
 631 779 631 779 614 796.5 c 128,-1,30
 597 814 597 814 587.5 837.5 c 128,-1,31
 578 861 578 861 578 887 c 0,32,33
 578 915 578 915 589 940 c 128,-1,34
 600 965 600 965 618.5 983 c 128,-1,35
 637 1001 637 1001 661.5 1011.5 c 128,-1,36
 686 1022 686 1022 713 1022 c 0,37,38
 741 1022 741 1022 764.5 1011.5 c 128,-1,39
 788 1001 788 1001 805.5 984 c 128,-1,40
 823 967 823 967 832.5 943.5 c 128,-1,41
 842 920 842 920 842 895 c 0,42,43
 842 866 842 866 831 841 c 128,-1,44
 820 816 820 816 801 797.5 c 128,-1,45
 782 779 782 779 757 768.5 c 128,-1,46
 732 758 732 758 705 758 c 0,27,28
EndSplineSet
Substitution2: "'case' Case-Sensitive Forms lookup 0 subtable" questiondown.case
EndChar
StartChar: AE
Encoding: 198 198 40
Width: 1126
GlyphClass: 2
Flags: W
AnchorPoint: "Anchor-11" 0 1700 basechar 0
AnchorPoint: "Anchor-10" 1126 1700 basechar 0
AnchorPoint: "Anchor-9" 1030 0 basechar 0
AnchorPoint: "Anchor-6" 1126 -350 basechar 0
AnchorPoint: "Anchor-5" 1126 1700 basechar 0
AnchorPoint: "Anchor-2" 663 -180 basechar 0
AnchorPoint: "Anchor-1" 1151 1390 basechar 0
AnchorPoint: "Anchor-0" 663 1430 basechar 0
LayerCount: 2
Back
Fore
SplineSet
983 0 m 1,0,-1
 481 0 l 1,1,-1
 537 281 l 1,2,-1
 195 281 l 1,3,-1
 31 0 l 1,4,-1
 -145 0 l 1,5,-1
 649 1307 l 1,6,-1
 1231 1307 l 1,7,-1
 1202 1165 l 1,8,-1
 881 1165 l 1,9,-1
 797 748 l 1,10,-1
 1104 748 l 1,11,-1
 1075 606 l 1,12,-1
 768 606 l 1,13,-1
 676 143 l 1,14,-1
 1012 143 l 1,15,-1
 983 0 l 1,0,-1
565 424 m 1,16,-1
 715 1167 l 1,17,-1
 279 424 l 1,18,-1
 565 424 l 1,16,-1
EndSplineSet
EndChar
StartChar: Ccedilla
Encoding: 199 199 46
Width: 1126
GlyphClass: 2
Flags: W
AnchorPoint: "Anchor-11" 0 1700 basechar 0
AnchorPoint: "Anchor-10" 1126 1700 basechar 0
AnchorPoint: "Anchor-9" 500 -295 basechar 0
AnchorPoint: "Anchor-6" 1126 -350 basechar 0
AnchorPoint: "Anchor-5" 1126 1700 basechar 0
AnchorPoint: "Anchor-2" 623 -385 basechar 0
AnchorPoint: "Anchor-1" 1045 1390 basechar 0
AnchorPoint: "Anchor-0" 623 1430 basechar 0
LayerCount: 2
Back
Fore
SplineSet
577 -16 m 1,0,-1
 440 -295 l 1,1,-1
 288 -295 l 1,2,-1
 413 0 l 1,3,4
 254 37 254 37 175 147.5 c 128,-1,5
 96 258 96 258 96 442 c 0,6,7
 96 538 96 538 115 640.5 c 128,-1,8
 134 743 134 743 173.5 841 c 128,-1,9
 213 939 213 939 273 1026.5 c 128,-1,10
 333 1114 333 1114 414 1180 c 128,-1,11
 495 1246 495 1246 598 1284.5 c 128,-1,12
 701 1323 701 1323 827 1323 c 0,13,14
 918 1323 918 1323 998.5 1307.5 c 128,-1,15
 1079 1292 1079 1292 1145 1260 c 1,16,-1
 1110 1085 l 1,17,18
 1047 1124 1047 1124 977 1144.5 c 128,-1,19
 907 1165 907 1165 817 1165 c 0,20,21
 723 1165 723 1165 647 1133 c 128,-1,22
 571 1101 571 1101 512.5 1047.5 c 128,-1,23
 454 994 454 994 411.5 923.5 c 128,-1,24
 369 853 369 853 342 775.5 c 128,-1,25
 315 698 315 698 302 618.5 c 128,-1,26
 289 539 289 539 289 467 c 0,27,28
 289 143 289 143 602 143 c 0,29,30
 686 143 686 143 772.5 162.5 c 128,-1,31
 859 182 859 182 936 217 c 1,32,-1
 903 49 l 1,33,34
 818 17 818 17 740 1 c 128,-1,35
 662 -15 662 -15 577 -16 c 1,0,-1
EndSplineSet
EndChar
StartChar: Eth
Encoding: 208 208 48
Width: 1126
GlyphClass: 2
Flags: W
AnchorPoint: "Anchor-11" 0 1700 basechar 0
AnchorPoint: "Anchor-10" 1126 1700 basechar 0
AnchorPoint: "Anchor-9" 570 25 basechar 0
AnchorPoint: "Anchor-6" 1126 -350 basechar 0
AnchorPoint: "Anchor-5" 1126 1700 basechar 0
AnchorPoint: "Anchor-2" 563 -180 basechar 0
AnchorPoint: "Anchor-1" 1003 1390 basechar 0
AnchorPoint: "Anchor-0" 563 1430 basechar 0
LayerCount: 2
Back
Fore
SplineSet
47 752 m 1,0,-1
 186 752 l 1,1,-1
 299 1307 l 1,2,-1
 612 1307 l 2,3,4
 856 1307 856 1307 980 1199.5 c 128,-1,5
 1104 1092 1104 1092 1104 866 c 0,6,7
 1104 826 1104 826 1099.5 767 c 128,-1,8
 1095 708 1095 708 1081 640 c 128,-1,9
 1067 572 1067 572 1042.5 497.5 c 128,-1,10
 1018 423 1018 423 978 352 c 128,-1,11
 938 281 938 281 880.5 217 c 128,-1,12
 823 153 823 153 744.5 105 c 128,-1,13
 666 57 666 57 563 28.5 c 128,-1,14
 460 0 460 0 330 0 c 2,15,-1
 37 0 l 1,16,-1
 158 602 l 1,17,-1
 18 602 l 1,18,-1
 47 752 l 1,0,-1
920 858 m 0,19,20
 920 939 920 939 899.5 995.5 c 128,-1,21
 879 1052 879 1052 838 1088 c 128,-1,22
 797 1124 797 1124 735.5 1140.5 c 128,-1,23
 674 1157 674 1157 592 1157 c 2,24,-1
 446 1157 l 1,25,-1
 365 752 l 1,26,-1
 590 752 l 1,27,-1
 561 602 l 1,28,-1
 336 602 l 1,29,-1
 246 154 l 1,30,-1
 352 154 l 2,31,32
 448 154 448 154 523.5 177 c 128,-1,33
 599 200 599 200 657 239.5 c 128,-1,34
 715 279 715 279 757 331 c 128,-1,35
 799 383 799 383 828 441 c 128,-1,36
 857 499 857 499 875 559 c 128,-1,37
 893 619 893 619 903 674.5 c 128,-1,38
 913 730 913 730 916.5 777.5 c 128,-1,39
 920 825 920 825 920 858 c 0,19,20
EndSplineSet
EndChar
StartChar: multiply
Encoding: 215 215 692
Width: 1126
Flags: W
LayerCount: 2
Back
Fore
SplineSet
1042 842 m 1,0,-1
 682 541 l 1,1,-1
 926 238 l 1,2,-1
 795 131 l 1,3,-1
 553 432 l 1,4,-1
 193 131 l 1,5,-1
 96 248 l 1,6,-1
 457 549 l 1,7,-1
 213 852 l 1,8,-1
 344 958 l 1,9,-1
 586 657 l 1,10,-1
 946 958 l 1,11,-1
 1042 842 l 1,0,-1
EndSplineSet
EndChar
StartChar: Oslash
Encoding: 216 216 95
Width: 1126
GlyphClass: 2
Flags: W
AnchorPoint: "Anchor-11" 0 1700 basechar 0
AnchorPoint: "Anchor-10" 1126 1700 basechar 0
AnchorPoint: "Anchor-9" 690 0 basechar 0
AnchorPoint: "Anchor-6" 1126 -350 basechar 0
AnchorPoint: "Anchor-5" 1126 1700 basechar 0
AnchorPoint: "Anchor-2" 563 -305 basechar 0
AnchorPoint: "Anchor-1" 1135 1612 basechar 0
AnchorPoint: "Anchor-0" 563 1612 basechar 0
LayerCount: 2
Back
Fore
SplineSet
465 -18 m 0,0,1
 430 -18 430 -18 398.5 -14 c 128,-1,2
 367 -10 367 -10 338 -4 c 1,3,-1
 233 -215 l 1,4,-1
 80 -215 l 1,5,-1
 213 51 l 1,6,7
 61 163 61 163 61 422 c 0,8,9
 61 523 61 523 78.5 629.5 c 128,-1,10
 96 736 96 736 132 836 c 128,-1,11
 168 936 168 936 222.5 1025 c 128,-1,12
 277 1114 277 1114 350.5 1180.5 c 128,-1,13
 424 1247 424 1247 516.5 1286 c 128,-1,14
 609 1325 609 1325 721 1325 c 0,15,16
 755 1325 755 1325 785.5 1322 c 128,-1,17
 816 1319 816 1319 844 1311 c 1,18,-1
 948 1522 l 1,19,-1
 1102 1522 l 1,20,-1
 969 1255 l 1,21,22
 1046 1201 1046 1201 1085 1108 c 128,-1,23
 1124 1015 1124 1015 1124 885 c 0,24,25
 1124 784 1124 784 1106.5 677.5 c 128,-1,26
 1089 571 1089 571 1053 470.5 c 128,-1,27
 1017 370 1017 370 962.5 281 c 128,-1,28
 908 192 908 192 835 125.5 c 128,-1,29
 762 59 762 59 669.5 20.5 c 128,-1,30
 577 -18 577 -18 465 -18 c 0,0,1
942 872 m 0,31,32
 942 941 942 941 929 996 c 128,-1,33
 916 1051 916 1051 887 1090 c 1,34,-1
 414 143 l 1,35,36
 444 137 444 137 485 137 c 0,37,38
 566 137 566 137 632 173.5 c 128,-1,39
 698 210 698 210 748.5 270.5 c 128,-1,40
 799 331 799 331 835.5 408.5 c 128,-1,41
 872 486 872 486 896 567.5 c 128,-1,42
 920 649 920 649 931 728.5 c 128,-1,43
 942 808 942 808 942 872 c 0,31,32
244 434 m 0,44,45
 244 366 244 366 255.5 311.5 c 128,-1,46
 267 257 267 257 295 219 c 1,47,-1
 768 1163 l 1,48,49
 738 1169 738 1169 700 1169 c 0,50,51
 619 1169 619 1169 553.5 1132.5 c 128,-1,52
 488 1096 488 1096 437.5 1035.5 c 128,-1,53
 387 975 387 975 350.5 897.5 c 128,-1,54
 314 820 314 820 290 738.5 c 128,-1,55
 266 657 266 657 255 577.5 c 128,-1,56
 244 498 244 498 244 434 c 0,44,45
EndSplineSet
EndChar
StartChar: Thorn
Encoding: 222 222 98
Width: 1126
GlyphClass: 2
Flags: W
AnchorPoint: "Anchor-11" 0 1700 basechar 0
AnchorPoint: "Anchor-10" 1126 1700 basechar 0
AnchorPoint: "Anchor-9" 270 0 basechar 0
AnchorPoint: "Anchor-6" 1126 -350 basechar 0
AnchorPoint: "Anchor-5" 1126 1700 basechar 0
AnchorPoint: "Anchor-2" 563 -180 basechar 0
AnchorPoint: "Anchor-1" 1016 1307 basechar 0
AnchorPoint: "Anchor-0" 563 1397 basechar 0
LayerCount: 2
Back
Fore
SplineSet
494 1307 m 1,0,-1
 455 1112 l 1,1,-1
 629 1112 l 2,2,3
 720 1112 720 1112 799 1092.5 c 128,-1,4
 878 1073 878 1073 936 1032.5 c 128,-1,5
 994 992 994 992 1027.5 929.5 c 128,-1,6
 1061 867 1061 867 1061 782 c 0,7,8
 1061 733 1061 733 1047 675.5 c 128,-1,9
 1033 618 1033 618 1003.5 559 c 128,-1,10
 974 500 974 500 926.5 445 c 128,-1,11
 879 390 879 390 812 347.5 c 128,-1,12
 745 305 745 305 656.5 279.5 c 128,-1,13
 568 254 568 254 457 254 c 2,14,-1
 283 254 l 1,15,-1
 233 0 l 1,16,-1
 55 0 l 1,17,-1
 315 1307 l 1,18,-1
 494 1307 l 1,0,-1
874 758 m 0,19,20
 874 858 874 858 810.5 910.5 c 128,-1,21
 747 963 747 963 612 963 c 2,22,-1
 426 963 l 1,23,-1
 313 403 l 1,24,-1
 473 403 l 2,25,26
 553 403 553 403 614 421 c 128,-1,27
 675 439 675 439 719.5 468 c 128,-1,28
 764 497 764 497 793.5 534.5 c 128,-1,29
 823 572 823 572 841 611.5 c 128,-1,30
 859 651 859 651 866.5 689 c 128,-1,31
 874 727 874 727 874 758 c 0,19,20
EndSplineSet
EndChar
StartChar: germandbls
Encoding: 223 223 239
Width: 1126
GlyphClass: 2
Flags: W
AnchorPoint: "Anchor-11" 0 1700 basechar 0
AnchorPoint: "Anchor-10" 1126 1700 basechar 0
AnchorPoint: "Anchor-9" 780 0 basechar 0
AnchorPoint: "Anchor-6" 1126 -350 basechar 0
AnchorPoint: "Anchor-5" 1126 1700 basechar 0
AnchorPoint: "Anchor-2" 693 -180 basechar 0
AnchorPoint: "Anchor-1" 932 1515 basechar 0
AnchorPoint: "Anchor-0" 563 1515 basechar 0
LayerCount: 2
Back
Fore
SplineSet
220 0 m 2,0,1
 200 -103 200 -103 164 -204.5 c 128,-1,2
 128 -306 128 -306 77 -410 c 1,3,-1
 -98 -410 l 1,4,5
 -46 -306 -46 -306 -10.5 -204 c 128,-1,6
 25 -102 25 -102 45 0 c 2,7,-1
 248 1014 l 2,8,9
 288 1213 288 1213 407 1319 c 128,-1,10
 526 1425 526 1425 725 1425 c 0,11,12
 887 1425 887 1425 973 1361 c 128,-1,13
 1059 1297 1059 1297 1059 1182 c 0,14,15
 1059 1111 1059 1111 1033.5 1061.5 c 128,-1,16
 1008 1012 1008 1012 970 975 c 128,-1,17
 932 938 932 938 887 910.5 c 128,-1,18
 842 883 842 883 804 856.5 c 128,-1,19
 766 830 766 830 740.5 801 c 128,-1,20
 715 772 715 772 715 733 c 0,21,22
 715 697 715 697 734.5 665 c 128,-1,23
 754 633 754 633 782.5 601.5 c 128,-1,24
 811 570 811 570 845 538 c 128,-1,25
 879 506 879 506 907.5 469.5 c 128,-1,26
 936 433 936 433 955.5 391 c 128,-1,27
 975 349 975 349 975 297 c 0,28,29
 975 252 975 252 953 198.5 c 128,-1,30
 931 145 931 145 882 98 c 128,-1,31
 833 51 833 51 755 19.5 c 128,-1,32
 677 -12 677 -12 565 -12 c 0,33,34
 514 -12 514 -12 469 -9 c 128,-1,35
 424 -6 424 -6 387 0 c 1,36,-1
 418 154 l 1,37,38
 449 144 449 144 489 138.5 c 128,-1,39
 529 133 529 133 567 133 c 0,40,41
 627 133 627 133 670 145.5 c 128,-1,42
 713 158 713 158 740 179 c 128,-1,43
 767 200 767 200 780 226.5 c 128,-1,44
 793 253 793 253 793 281 c 0,45,46
 793 319 793 319 774 351.5 c 128,-1,47
 755 384 755 384 726 414.5 c 128,-1,48
 697 445 697 445 664 476.5 c 128,-1,49
 631 508 631 508 602 543 c 128,-1,50
 573 578 573 578 554 619 c 128,-1,51
 535 660 535 660 535 711 c 0,52,53
 535 778 535 778 560.5 823 c 128,-1,54
 586 868 586 868 624.5 901.5 c 128,-1,55
 663 935 663 935 708 961 c 128,-1,56
 753 987 753 987 791.5 1016 c 128,-1,57
 830 1045 830 1045 855.5 1081 c 128,-1,58
 881 1117 881 1117 881 1171 c 0,59,60
 881 1224 881 1224 837 1254 c 128,-1,61
 793 1284 793 1284 715 1284 c 0,62,63
 596 1284 596 1284 523 1217 c 128,-1,64
 450 1150 450 1150 421 1008 c 2,65,-1
 220 0 l 2,0,1
EndSplineSet
EndChar
StartChar: ae
Encoding: 230 230 167
Width: 1126
GlyphClass: 2
Flags: W
AnchorPoint: "Anchor-11" 0 1700 basechar 0
AnchorPoint: "Anchor-10" 1126 1700 basechar 0
AnchorPoint: "Anchor-9" 900 0 basechar 0
AnchorPoint: "Anchor-6" 1126 -350 basechar 0
AnchorPoint: "Anchor-5" 1126 1700 basechar 0
AnchorPoint: "Anchor-4" 910 930 basechar 0
AnchorPoint: "Anchor-2" 563 -180 basechar 0
AnchorPoint: "Anchor-1" 1113 1160 basechar 0
AnchorPoint: "Anchor-0" 563 1200 basechar 0
LayerCount: 2
Back
Fore
SplineSet
422 1022 m 0,0,1
 511 1022 511 1022 571.5 993.5 c 128,-1,2
 632 965 632 965 647 901 c 1,3,4
 689 957 689 957 752 989.5 c 128,-1,5
 815 1022 815 1022 883 1022 c 0,6,7
 952 1022 952 1022 999 1000 c 128,-1,8
 1046 978 1046 978 1075 942 c 128,-1,9
 1104 906 1104 906 1116.5 860.5 c 128,-1,10
 1129 815 1129 815 1128 768 c 0,11,12
 1128 703 1128 703 1103 646.5 c 128,-1,13
 1078 590 1078 590 1028 548 c 128,-1,14
 978 506 978 506 903.5 481.5 c 128,-1,15
 829 457 829 457 731 457 c 2,16,-1
 629 457 l 1,17,18
 610 369 610 369 610 301 c 0,19,20
 610 213 610 213 645.5 167.5 c 128,-1,21
 681 122 681 122 762 122 c 0,22,23
 819 122 819 122 870.5 134 c 128,-1,24
 922 146 922 146 967 163 c 1,25,-1
 967 25 l 1,26,27
 916 5 916 5 849 -6.5 c 128,-1,28
 782 -18 782 -18 719 -18 c 0,29,30
 622 -18 622 -18 557.5 26.5 c 128,-1,31
 493 71 493 71 471 156 c 1,32,33
 426 72 426 72 355 27 c 128,-1,34
 284 -18 284 -18 207 -18 c 0,35,36
 97 -18 97 -18 36 38 c 128,-1,37
 -25 94 -25 94 -25 197 c 0,38,39
 -25 225 -25 225 -20 264.5 c 128,-1,40
 -15 304 -15 304 -0.5 347.5 c 128,-1,41
 14 391 14 391 41.5 433.5 c 128,-1,42
 69 476 69 476 113.5 510 c 128,-1,43
 158 544 158 544 222.5 565 c 128,-1,44
 287 586 287 586 377 586 c 2,45,-1
 500 586 l 1,46,-1
 516 670 l 2,47,48
 521 693 521 693 523.5 714 c 128,-1,49
 526 735 526 735 526 754 c 0,50,51
 526 816 526 816 495 849 c 128,-1,52
 464 882 464 882 393 882 c 0,53,54
 336 882 336 882 281 863 c 128,-1,55
 226 844 226 844 158 809 c 1,56,-1
 158 958 l 1,57,58
 184 970 184 970 216 981.5 c 128,-1,59
 248 993 248 993 283 1002 c 128,-1,60
 318 1011 318 1011 353.5 1016.5 c 128,-1,61
 389 1022 389 1022 422 1022 c 0,0,1
356 457 m 2,62,63
 289 457 289 457 247 429.5 c 128,-1,64
 205 402 205 402 181.5 364.5 c 128,-1,65
 158 327 158 327 149.5 286.5 c 128,-1,66
 141 246 141 246 141 221 c 0,67,68
 141 203 141 203 146 185 c 128,-1,69
 151 167 151 167 162 153 c 128,-1,70
 173 139 173 139 192 130.5 c 128,-1,71
 211 122 211 122 240 122 c 0,72,73
 271 122 271 122 305.5 143.5 c 128,-1,74
 340 165 340 165 370.5 202 c 128,-1,75
 401 239 401 239 426 289 c 128,-1,76
 451 339 451 339 463 397 c 2,77,-1
 475 457 l 1,78,-1
 356 457 l 2,62,63
864 882 m 0,79,80
 827 882 827 882 794.5 859.5 c 128,-1,81
 762 837 762 837 735 797.5 c 128,-1,82
 708 758 708 758 687 703.5 c 128,-1,83
 666 649 666 649 653 586 c 1,84,-1
 752 586 l 2,85,86
 796 586 796 586 835 598 c 128,-1,87
 874 610 874 610 903 632.5 c 128,-1,88
 932 655 932 655 948.5 687.5 c 128,-1,89
 965 720 965 720 965 762 c 0,90,91
 965 787 965 787 959 809 c 128,-1,92
 953 831 953 831 940 847.5 c 128,-1,93
 927 864 927 864 908 873 c 128,-1,94
 889 882 889 882 864 882 c 0,79,80
EndSplineSet
EndChar
StartChar: ccedilla
Encoding: 231 231 173
Width: 1126
GlyphClass: 2
Flags: W
AnchorPoint: "Anchor-11" 0 1700 basechar 0
AnchorPoint: "Anchor-10" 1126 1700 basechar 0
AnchorPoint: "Anchor-9" 500 -295 basechar 0
AnchorPoint: "Anchor-6" 1126 -350 basechar 0
AnchorPoint: "Anchor-5" 1126 1700 basechar 0
AnchorPoint: "Anchor-2" 623 -385 basechar 0
AnchorPoint: "Anchor-1" 990 1160 basechar 0
AnchorPoint: "Anchor-0" 623 1200 basechar 0
LayerCount: 2
Back
Fore
SplineSet
580 -14 m 1,0,-1
 442 -295 l 1,1,-1
 290 -295 l 1,2,-1
 415 0 l 1,3,4
 280 30 280 30 210.5 119 c 128,-1,5
 141 208 141 208 141 356 c 0,6,7
 141 508 141 508 189 630.5 c 128,-1,8
 237 753 237 753 320 839 c 128,-1,9
 403 925 403 925 514 971.5 c 128,-1,10
 625 1018 625 1018 750 1018 c 0,11,12
 822 1018 822 1018 894.5 1007 c 128,-1,13
 967 996 967 996 1032 971 c 1,14,-1
 1001 813 l 1,15,16
 946 839 946 839 876 854.5 c 128,-1,17
 806 870 806 870 741 870 c 0,18,19
 640 870 640 870 562.5 828 c 128,-1,20
 485 786 485 786 432 716.5 c 128,-1,21
 379 647 379 647 351.5 558.5 c 128,-1,22
 324 470 324 470 324 377 c 0,23,24
 324 255 324 255 390 194 c 128,-1,25
 456 133 456 133 584 133 c 0,26,27
 650 133 650 133 722.5 147 c 128,-1,28
 795 161 795 161 860 188 c 1,29,-1
 860 41 l 1,30,31
 779 13 779 13 712 0.5 c 128,-1,32
 645 -12 645 -12 580 -14 c 1,0,-1
EndSplineSet
EndChar
StartChar: eth
Encoding: 240 240 175
Width: 1126
GlyphClass: 2
Flags: W
AnchorPoint: "Anchor-11" 0 1700 basechar 0
AnchorPoint: "Anchor-10" 1126 1700 basechar 0
AnchorPoint: "Anchor-9" 700 20 basechar 0
AnchorPoint: "Anchor-6" 1126 -350 basechar 0
AnchorPoint: "Anchor-5" 1126 1700 basechar 0
AnchorPoint: "Anchor-2" 563 -180 basechar 0
AnchorPoint: "Anchor-1" 1072 1503 basechar 0
AnchorPoint: "Anchor-0" 563 1503 basechar 0
LayerCount: 2
Back
Fore
SplineSet
788 852 m 1,0,1
 748 861 748 861 714 864.5 c 128,-1,2
 680 868 680 868 651 868 c 0,3,4
 572 868 572 868 512.5 841 c 128,-1,5
 453 814 453 814 409.5 770.5 c 128,-1,6
 366 727 366 727 337.5 672 c 128,-1,7
 309 617 309 617 291.5 562 c 128,-1,8
 274 507 274 507 267 457 c 128,-1,9
 260 407 260 407 260 373 c 0,10,11
 260 313 260 313 275.5 267.5 c 128,-1,12
 291 222 291 222 319 191 c 128,-1,13
 347 160 347 160 387 144.5 c 128,-1,14
 427 129 427 129 475 129 c 0,15,16
 539 129 539 129 591 151 c 128,-1,17
 643 173 643 173 683 209.5 c 128,-1,18
 723 246 723 246 751.5 294.5 c 128,-1,19
 780 343 780 343 798.5 397 c 128,-1,20
 817 451 817 451 825.5 506 c 128,-1,21
 834 561 834 561 834 612 c 0,22,23
 834 671 834 671 822.5 729 c 128,-1,24
 811 787 811 787 788 852 c 1,0,1
721 1010 m 1,25,26
 707 1039 707 1039 690 1073.5 c 128,-1,27
 673 1108 673 1108 653 1143 c 1,28,-1
 369 1083 l 1,29,-1
 369 1229 l 1,30,-1
 582 1270 l 1,31,-1
 500 1413 l 1,32,-1
 700 1413 l 1,33,-1
 760 1309 l 1,34,-1
 1065 1370 l 1,35,-1
 1065 1225 l 1,36,-1
 831 1178 l 1,37,38
 873 1099 873 1099 906 1025.5 c 128,-1,39
 939 952 939 952 962 882.5 c 128,-1,40
 985 813 985 813 997.5 745.5 c 128,-1,41
 1010 678 1010 678 1010 610 c 0,42,43
 1010 539 1010 539 996 464.5 c 128,-1,44
 982 390 982 390 952.5 320 c 128,-1,45
 923 250 923 250 877.5 188.5 c 128,-1,46
 832 127 832 127 770 81 c 128,-1,47
 708 35 708 35 629 8.5 c 128,-1,48
 550 -18 550 -18 453 -18 c 0,49,50
 364 -18 364 -18 295 7.5 c 128,-1,51
 226 33 226 33 179 81 c 128,-1,52
 132 129 132 129 107 198.5 c 128,-1,53
 82 268 82 268 82 356 c 0,54,55
 82 434 82 434 99 513.5 c 128,-1,56
 116 593 116 593 149.5 666 c 128,-1,57
 183 739 183 739 231.5 802.5 c 128,-1,58
 280 866 280 866 343.5 913 c 128,-1,59
 407 960 407 960 484 987 c 128,-1,60
 561 1014 561 1014 651 1014 c 0,61,62
 654 1014 654 1014 663 1013.5 c 128,-1,63
 672 1013 672 1013 683 1012.5 c 128,-1,64
 694 1012 694 1012 704.5 1011.5 c 128,-1,65
 715 1011 715 1011 721 1010 c 1,25,26
EndSplineSet
EndChar
StartChar: divide
Encoding: 247 247 693
Width: 1126
Flags: W
LayerCount: 2
Back
Fore
SplineSet
1034 469 m 1,0,-1
 76 469 l 1,1,-1
 106 621 l 1,2,-1
 1065 621 l 1,3,-1
 1034 469 l 1,0,-1
641 803 m 0,4,5
 613 803 613 803 589 813.5 c 128,-1,6
 565 824 565 824 547.5 841.5 c 128,-1,7
 530 859 530 859 520 882.5 c 128,-1,8
 510 906 510 906 510 932 c 0,9,10
 510 960 510 960 521 985 c 128,-1,11
 532 1010 532 1010 550.5 1028 c 128,-1,12
 569 1046 569 1046 594 1056.5 c 128,-1,13
 619 1067 619 1067 647 1067 c 0,14,15
 674 1067 674 1067 697 1056.5 c 128,-1,16
 720 1046 720 1046 738 1029 c 128,-1,17
 756 1012 756 1012 765.5 988.5 c 128,-1,18
 775 965 775 965 775 940 c 0,19,20
 775 911 775 911 764.5 886 c 128,-1,21
 754 861 754 861 735 842.5 c 128,-1,22
 716 824 716 824 692 813.5 c 128,-1,23
 668 803 668 803 641 803 c 0,4,5
487 23 m 256,24,25
 460 23 460 23 436 33.5 c 128,-1,26
 412 44 412 44 394 61.5 c 128,-1,27
 376 79 376 79 366 102.5 c 128,-1,28
 356 126 356 126 356 152 c 0,29,30
 356 180 356 180 367 204.5 c 128,-1,31
 378 229 378 229 397 247.5 c 128,-1,32
 416 266 416 266 441 276.5 c 128,-1,33
 466 287 466 287 494 287 c 0,34,35
 521 287 521 287 544 276.5 c 128,-1,36
 567 266 567 266 584 248.5 c 128,-1,37
 601 231 601 231 611 208 c 128,-1,38
 621 185 621 185 621 160 c 0,39,40
 621 131 621 131 610 106 c 128,-1,41
 599 81 599 81 581 62.5 c 128,-1,42
 563 44 563 44 538.5 33.5 c 128,-1,43
 514 23 514 23 487 23 c 256,24,25
EndSplineSet
EndChar
StartChar: oslash
Encoding: 248 248 227
Width: 1126
GlyphClass: 2
Flags: W
AnchorPoint: "Anchor-11" 0 1700 basechar 0
AnchorPoint: "Anchor-10" 1126 1700 basechar 0
AnchorPoint: "Anchor-9" 690 0 basechar 0
AnchorPoint: "Anchor-6" 1126 -350 basechar 0
AnchorPoint: "Anchor-5" 1126 1700 basechar 0
AnchorPoint: "Anchor-4" 810 930 basechar 0
AnchorPoint: "Anchor-2" 563 -305 basechar 0
AnchorPoint: "Anchor-1" 1030 1309 basechar 0
AnchorPoint: "Anchor-0" 563 1309 basechar 0
LayerCount: 2
Back
Fore
SplineSet
467 -18 m 0,0,1
 439 -18 439 -18 414 -15.5 c 128,-1,2
 389 -13 389 -13 365 -10 c 1,3,-1
 256 -215 l 1,4,-1
 98 -215 l 1,5,-1
 231 35 l 1,6,7
 156 80 156 80 114 159 c 128,-1,8
 72 238 72 238 72 352 c 0,9,10
 72 435 72 435 90 516.5 c 128,-1,11
 108 598 108 598 142 672.5 c 128,-1,12
 176 747 176 747 226 811 c 128,-1,13
 276 875 276 875 341 922 c 128,-1,14
 406 969 406 969 484.5 995.5 c 128,-1,15
 563 1022 563 1022 655 1022 c 0,16,17
 681 1022 681 1022 707 1019.5 c 128,-1,18
 733 1017 733 1017 756 1014 c 1,19,-1
 866 1219 l 1,20,-1
 1024 1219 l 1,21,-1
 889 967 l 1,22,23
 966 923 966 923 1008.5 844.5 c 128,-1,24
 1051 766 1051 766 1051 651 c 0,25,26
 1051 569 1051 569 1033 487.5 c 128,-1,27
 1015 406 1015 406 981 331.5 c 128,-1,28
 947 257 947 257 896.5 193 c 128,-1,29
 846 129 846 129 781.5 82 c 128,-1,30
 717 35 717 35 638 8.5 c 128,-1,31
 559 -18 559 -18 467 -18 c 0,0,1
872 633 m 0,32,33
 872 759 872 759 809 819 c 1,34,-1
 440 131 l 1,35,36
 451 129 451 129 463 129 c 128,-1,37
 475 129 475 129 487 129 c 0,38,39
 549 129 549 129 602 150.5 c 128,-1,40
 655 172 655 172 698 209.5 c 128,-1,41
 741 247 741 247 773.5 296.5 c 128,-1,42
 806 346 806 346 828 402 c 128,-1,43
 850 458 850 458 861 517.5 c 128,-1,44
 872 577 872 577 872 633 c 0,32,33
250 371 m 0,45,46
 250 308 250 308 264.5 260.5 c 128,-1,47
 279 213 279 213 311 184 c 1,48,-1
 680 873 l 1,49,50
 669 875 669 875 658 875 c 128,-1,51
 647 875 647 875 635 875 c 0,52,53
 573 875 573 875 520 853.5 c 128,-1,54
 467 832 467 832 424 794 c 128,-1,55
 381 756 381 756 348.5 706.5 c 128,-1,56
 316 657 316 657 294 601.5 c 128,-1,57
 272 546 272 546 261 486.5 c 128,-1,58
 250 427 250 427 250 371 c 0,45,46
EndSplineSet
EndChar
StartChar: thorn
Encoding: 254 254 230
Width: 1126
GlyphClass: 2
Flags: W
AnchorPoint: "Anchor-11" 0 1700 basechar 0
AnchorPoint: "Anchor-10" 1126 1700 basechar 0
AnchorPoint: "Anchor-9" 190 -410 basechar 0
AnchorPoint: "Anchor-6" 1126 -350 basechar 0
AnchorPoint: "Anchor-5" 1126 1700 basechar 0
AnchorPoint: "Anchor-2" 563 -500 basechar 0
AnchorPoint: "Anchor-1" 978 1413 basechar 0
AnchorPoint: "Anchor-0" 563 1503 basechar 0
LayerCount: 2
Back
Fore
SplineSet
340 1413 m 1,0,-1
 514 1413 l 1,1,-1
 436 1024 l 1,2,-1
 371 782 l 1,3,4
 402 838 402 838 442 882.5 c 128,-1,5
 482 927 482 927 529.5 958 c 128,-1,6
 577 989 577 989 630.5 1005.5 c 128,-1,7
 684 1022 684 1022 741 1022 c 0,8,9
 813 1022 813 1022 866.5 997.5 c 128,-1,10
 920 973 920 973 955 929 c 128,-1,11
 990 885 990 885 1007 822.5 c 128,-1,12
 1024 760 1024 760 1024 684 c 0,13,14
 1024 540 1024 540 986.5 413.5 c 128,-1,15
 949 287 949 287 876 192.5 c 128,-1,16
 803 98 803 98 695.5 43 c 128,-1,17
 588 -12 588 -12 449 -12 c 0,18,19
 376 -12 376 -12 326.5 -6 c 128,-1,20
 277 0 277 0 233 12 c 1,21,-1
 150 -410 l 1,22,-1
 -25 -410 l 1,23,-1
 340 1413 l 1,0,-1
848 668 m 0,24,25
 848 764 848 764 815.5 817 c 128,-1,26
 783 870 783 870 709 870 c 0,27,28
 666 870 666 870 623 850 c 128,-1,29
 580 830 580 830 539 795 c 128,-1,30
 498 760 498 760 461.5 713 c 128,-1,31
 425 666 425 666 394.5 612.5 c 128,-1,32
 364 559 364 559 342 502 c 128,-1,33
 320 445 320 445 309 389 c 2,34,-1
 266 172 l 1,35,36
 313 152 313 152 363 140.5 c 128,-1,37
 413 129 413 129 455 129 c 0,38,39
 537 129 537 129 598 157 c 128,-1,40
 659 185 659 185 702.5 230 c 128,-1,41
 746 275 746 275 774 333 c 128,-1,42
 802 391 802 391 818.5 451 c 128,-1,43
 835 511 835 511 841.5 567.5 c 128,-1,44
 848 624 848 624 848 668 c 0,24,25
EndSplineSet
EndChar
StartChar: Aogonek
Encoding: 260 260 39
Width: 1126
GlyphClass: 2
Flags: W
AnchorPoint: "Anchor-11" 0 1700 basechar 0
AnchorPoint: "Anchor-10" 1126 1700 basechar 0
AnchorPoint: "Anchor-9" 1020 -385 basechar 0
AnchorPoint: "Anchor-6" 1126 -350 basechar 0
AnchorPoint: "Anchor-5" 1126 1700 basechar 0
AnchorPoint: "Anchor-2" 563 -475 basechar 0
AnchorPoint: "Anchor-1" 916 1390 basechar 0
AnchorPoint: "Anchor-0" 563 1430 basechar 0
LayerCount: 2
Back
Fore
SplineSet
981 -375 m 1,0,1
 956 -380 956 -380 924.5 -382.5 c 128,-1,2
 893 -385 893 -385 868 -385 c 0,3,4
 814 -385 814 -385 775.5 -373.5 c 128,-1,5
 737 -362 737 -362 712.5 -342.5 c 128,-1,6
 688 -323 688 -323 676 -297 c 128,-1,7
 664 -271 664 -271 664 -242 c 0,8,9
 664 -217 664 -217 670.5 -192 c 128,-1,10
 677 -167 677 -167 694.5 -138 c 128,-1,11
 712 -109 712 -109 743.5 -75.5 c 128,-1,12
 775 -42 775 -42 825 0 c 1,13,-1
 793 285 l 1,14,-1
 248 285 l 1,15,-1
 98 0 l 1,16,-1
 -92 0 l 1,17,-1
 604 1307 l 1,18,-1
 848 1307 l 1,19,-1
 1014 0 l 1,20,-1
 991 0 l 1,21,22
 941 -43 941 -43 910 -74.5 c 128,-1,23
 879 -106 879 -106 861.5 -130.5 c 128,-1,24
 844 -155 844 -155 838 -175 c 128,-1,25
 832 -195 832 -195 832 -215 c 256,26,27
 832 -235 832 -235 848.5 -250.5 c 128,-1,28
 865 -266 865 -266 911 -266 c 0,29,30
 925 -266 925 -266 944.5 -265 c 128,-1,31
 964 -264 964 -264 981 -262 c 1,32,-1
 981 -375 l 1,0,1
772 444 m 1,33,-1
 692 1143 l 1,34,-1
 330 444 l 1,35,-1
 772 444 l 1,33,-1
EndSplineSet
EndChar
StartChar: aogonek
Encoding: 261 261 166
Width: 1126
GlyphClass: 2
Flags: W
AnchorPoint: "Anchor-11" 0 1700 basechar 0
AnchorPoint: "Anchor-10" 1126 1700 basechar 0
AnchorPoint: "Anchor-9" 930 -385 basechar 0
AnchorPoint: "Anchor-6" 1126 -350 basechar 0
AnchorPoint: "Anchor-5" 1126 1700 basechar 0
AnchorPoint: "Anchor-2" 563 -475 basechar 0
AnchorPoint: "Anchor-1" 961 1160 basechar 0
AnchorPoint: "Anchor-0" 563 1200 basechar 0
LayerCount: 2
Back
Fore
SplineSet
885 -375 m 1,0,1
 860 -380 860 -380 828.5 -382.5 c 128,-1,2
 797 -385 797 -385 772 -385 c 0,3,4
 718 -385 718 -385 679.5 -373.5 c 128,-1,5
 641 -362 641 -362 616.5 -342.5 c 128,-1,6
 592 -323 592 -323 580 -297 c 128,-1,7
 568 -271 568 -271 568 -242 c 0,8,9
 568 -217 568 -217 574.5 -192 c 128,-1,10
 581 -167 581 -167 598.5 -138 c 128,-1,11
 616 -109 616 -109 647.5 -75.5 c 128,-1,12
 679 -42 679 -42 731 0 c 1,13,-1
 756 231 l 1,14,15
 687 111 687 111 588.5 46.5 c 128,-1,16
 490 -18 490 -18 375 -18 c 0,17,18
 303 -18 303 -18 249.5 6 c 128,-1,19
 196 30 196 30 161 74.5 c 128,-1,20
 126 119 126 119 109 181 c 128,-1,21
 92 243 92 243 92 319 c 0,22,23
 92 463 92 463 129.5 589.5 c 128,-1,24
 167 716 167 716 240 811 c 128,-1,25
 313 906 313 906 420.5 961 c 128,-1,26
 528 1016 528 1016 668 1016 c 0,27,28
 733 1016 733 1016 792 1007.5 c 128,-1,29
 851 999 851 999 905 983 c 1,30,-1
 1063 1022 l 1,31,-1
 950 461 l 2,32,33
 946 442 946 442 941.5 411 c 128,-1,34
 937 380 937 380 931 327.5 c 128,-1,35
 925 275 925 275 916 195.5 c 128,-1,36
 907 116 907 116 895 0 c 1,37,38
 845 -43 845 -43 814 -74.5 c 128,-1,39
 783 -106 783 -106 765.5 -130.5 c 128,-1,40
 748 -155 748 -155 742 -175 c 128,-1,41
 736 -195 736 -195 736 -215 c 256,42,43
 736 -235 736 -235 752.5 -250.5 c 128,-1,44
 769 -266 769 -266 815 -266 c 0,45,46
 829 -266 829 -266 848.5 -265 c 128,-1,47
 868 -264 868 -264 885 -262 c 1,48,-1
 885 -375 l 1,0,1
268 336 m 0,49,50
 268 241 268 241 301 187 c 128,-1,51
 334 133 334 133 408 133 c 0,52,53
 451 133 451 133 494 153 c 128,-1,54
 537 173 537 173 578 208 c 128,-1,55
 619 243 619 243 655.5 290.5 c 128,-1,56
 692 338 692 338 722.5 392.5 c 128,-1,57
 753 447 753 447 775 506.5 c 128,-1,58
 797 566 797 566 809 625 c 2,59,-1
 850 831 l 1,60,61
 803 851 803 851 753.5 862.5 c 128,-1,62
 704 874 704 874 662 874 c 0,63,64
 580 874 580 874 519 846 c 128,-1,65
 458 818 458 818 414 773 c 128,-1,66
 370 728 370 728 342 670.5 c 128,-1,67
 314 613 314 613 297.5 553 c 128,-1,68
 281 493 281 493 274.5 436 c 128,-1,69
 268 379 268 379 268 336 c 0,49,50
EndSplineSet
EndChar
StartChar: dcroat
Encoding: 273 273 176
Width: 1126
GlyphClass: 2
Flags: W
AnchorPoint: "Anchor-11" 0 1700 basechar 0
AnchorPoint: "Anchor-10" 1126 1700 basechar 0
AnchorPoint: "Anchor-9" 930 0 basechar 0
AnchorPoint: "Anchor-6" 1126 -350 basechar 0
AnchorPoint: "Anchor-5" 1126 1700 basechar 0
AnchorPoint: "Anchor-2" 563 -180 basechar 0
AnchorPoint: "Anchor-1" 1011 1500 basechar 0
AnchorPoint: "Anchor-0" 563 1500 basechar 0
LayerCount: 2
Back
Fore
SplineSet
631 1282 m 1,0,-1
 920 1282 l 1,1,-1
 946 1413 l 1,2,-1
 1120 1413 l 1,3,-1
 1094 1282 l 1,4,-1
 1280 1282 l 1,5,-1
 1251 1137 l 1,6,-1
 1065 1137 l 1,7,-1
 930 461 l 2,8,9
 926 442 926 442 921.5 411 c 128,-1,10
 917 380 917 380 910.5 327.5 c 128,-1,11
 904 275 904 275 895 195.5 c 128,-1,12
 886 116 886 116 874 0 c 1,13,-1
 711 0 l 1,14,-1
 735 231 l 1,15,16
 666 111 666 111 572.5 46.5 c 128,-1,17
 479 -18 479 -18 365 -18 c 0,18,19
 293 -18 293 -18 239.5 6 c 128,-1,20
 186 30 186 30 151 74.5 c 128,-1,21
 116 119 116 119 99 181 c 128,-1,22
 82 243 82 243 82 319 c 0,23,24
 82 463 82 463 119.5 589.5 c 128,-1,25
 157 716 157 716 230 811 c 128,-1,26
 303 906 303 906 410 961 c 128,-1,27
 517 1016 517 1016 657 1016 c 0,28,29
 693 1016 693 1016 721.5 1014.5 c 128,-1,30
 750 1013 750 1013 774 1010 c 128,-1,31
 798 1007 798 1007 819.5 1002 c 128,-1,32
 841 997 841 997 862 991 c 1,33,-1
 891 1137 l 1,34,-1
 602 1137 l 1,35,-1
 631 1282 l 1,0,-1
258 336 m 0,36,37
 258 240 258 240 290.5 186.5 c 128,-1,38
 323 133 323 133 397 133 c 0,39,40
 438 133 438 133 479.5 153 c 128,-1,41
 521 173 521 173 560.5 208 c 128,-1,42
 600 243 600 243 636 290.5 c 128,-1,43
 672 338 672 338 702 392.5 c 128,-1,44
 732 447 732 447 754 506.5 c 128,-1,45
 776 566 776 566 788 625 c 2,46,-1
 829 831 l 1,47,48
 783 851 783 851 738 862.5 c 128,-1,49
 693 874 693 874 651 874 c 0,50,51
 569 874 569 874 508 846 c 128,-1,52
 447 818 447 818 403.5 773 c 128,-1,53
 360 728 360 728 332 670.5 c 128,-1,54
 304 613 304 613 287.5 553 c 128,-1,55
 271 493 271 493 264.5 436 c 128,-1,56
 258 379 258 379 258 336 c 0,36,37
EndSplineSet
EndChar
StartChar: Eogonek
Encoding: 280 280 58
Width: 1126
GlyphClass: 2
Flags: W
AnchorPoint: "Anchor-11" 0 1700 basechar 0
AnchorPoint: "Anchor-10" 1126 1700 basechar 0
AnchorPoint: "Anchor-9" 880 -385 basechar 0
AnchorPoint: "Anchor-6" 1126 -350 basechar 0
AnchorPoint: "Anchor-5" 1126 1700 basechar 0
AnchorPoint: "Anchor-2" 563 -475 basechar 0
AnchorPoint: "Anchor-1" 994 1390 basechar 0
AnchorPoint: "Anchor-0" 563 1430 basechar 0
LayerCount: 2
Back
Fore
SplineSet
831 -375 m 1,0,1
 806 -380 806 -380 774.5 -382.5 c 128,-1,2
 743 -385 743 -385 718 -385 c 0,3,4
 664 -385 664 -385 625.5 -373.5 c 128,-1,5
 587 -362 587 -362 562.5 -342.5 c 128,-1,6
 538 -323 538 -323 526 -297 c 128,-1,7
 514 -271 514 -271 514 -242 c 0,8,9
 514 -217 514 -217 520.5 -192 c 128,-1,10
 527 -167 527 -167 544.5 -138 c 128,-1,11
 562 -109 562 -109 593.5 -75.5 c 128,-1,12
 625 -42 625 -42 675 0 c 1,13,-1
 98 0 l 1,14,-1
 360 1307 l 1,15,-1
 1104 1307 l 1,16,-1
 1073 1157 l 1,17,-1
 508 1157 l 1,18,-1
 426 752 l 1,19,-1
 969 752 l 1,20,-1
 940 602 l 1,21,-1
 397 602 l 1,22,-1
 307 152 l 1,23,-1
 872 152 l 1,24,-1
 842 0 l 1,25,-1
 841 0 l 1,26,27
 791 -43 791 -43 760 -74.5 c 128,-1,28
 729 -106 729 -106 711.5 -130.5 c 128,-1,29
 694 -155 694 -155 688 -175 c 128,-1,30
 682 -195 682 -195 682 -215 c 256,31,32
 682 -235 682 -235 698.5 -250.5 c 128,-1,33
 715 -266 715 -266 761 -266 c 0,34,35
 775 -266 775 -266 794.5 -265 c 128,-1,36
 814 -264 814 -264 831 -262 c 1,37,-1
 831 -375 l 1,0,1
EndSplineSet
EndChar
StartChar: eogonek
Encoding: 281 281 185
Width: 1126
GlyphClass: 2
Flags: W
AnchorPoint: "Anchor-11" 0 1700 basechar 0
AnchorPoint: "Anchor-10" 1126 1700 basechar 0
AnchorPoint: "Anchor-9" 780 -385 basechar 0
AnchorPoint: "Anchor-6" 1126 -350 basechar 0
AnchorPoint: "Anchor-5" 1126 1700 basechar 0
AnchorPoint: "Anchor-2" 563 -475 basechar 0
AnchorPoint: "Anchor-1" 1008 1160 basechar 0
AnchorPoint: "Anchor-0" 563 1200 basechar 0
LayerCount: 2
Back
Fore
SplineSet
735 -375 m 1,0,1
 710 -380 710 -380 678.5 -382.5 c 128,-1,2
 647 -385 647 -385 623 -385 c 0,3,4
 569 -385 569 -385 530 -373.5 c 128,-1,5
 491 -362 491 -362 466.5 -342.5 c 128,-1,6
 442 -323 442 -323 430 -297 c 128,-1,7
 418 -271 418 -271 418 -242 c 0,8,9
 418 -218 418 -218 423.5 -194.5 c 128,-1,10
 429 -171 429 -171 445 -144 c 128,-1,11
 461 -117 461 -117 488 -86 c 128,-1,12
 515 -55 515 -55 559 -17 c 1,13,14
 548 -18 548 -18 537.5 -18 c 128,-1,15
 527 -18 527 -18 516 -18 c 0,16,17
 304 -18 304 -18 203 76.5 c 128,-1,18
 102 171 102 171 102 350 c 0,19,20
 102 488 102 488 145 610 c 128,-1,21
 188 732 188 732 264 823.5 c 128,-1,22
 340 915 340 915 444.5 968.5 c 128,-1,23
 549 1022 549 1022 672 1022 c 0,24,25
 757 1022 757 1022 823.5 1002 c 128,-1,26
 890 982 890 982 936 947 c 128,-1,27
 982 912 982 912 1006 864.5 c 128,-1,28
 1030 817 1030 817 1030 762 c 0,29,30
 1030 690 1030 690 999.5 632 c 128,-1,31
 969 574 969 574 902.5 532.5 c 128,-1,32
 836 491 836 491 731 468.5 c 128,-1,33
 626 446 626 446 477 446 c 2,34,-1
 289 446 l 1,35,36
 284 420 284 420 281.5 397 c 128,-1,37
 279 374 279 374 279 352 c 0,38,39
 279 243 279 243 344 185 c 128,-1,40
 409 127 409 127 545 127 c 0,41,42
 633 127 633 127 719.5 140 c 128,-1,43
 806 153 806 153 874 170 c 1,44,-1
 874 27 l 1,45,46
 845 19 845 19 812.5 12 c 128,-1,47
 780 5 780 5 745 0 c 1,48,49
 695 -43 695 -43 664 -74.5 c 128,-1,50
 633 -106 633 -106 615.5 -130.5 c 128,-1,51
 598 -155 598 -155 592 -175 c 128,-1,52
 586 -195 586 -195 586 -215 c 256,53,54
 586 -235 586 -235 602.5 -250.5 c 128,-1,55
 619 -266 619 -266 666 -266 c 0,56,57
 680 -266 680 -266 699 -265 c 128,-1,58
 718 -264 718 -264 735 -262 c 1,59,-1
 735 -375 l 1,0,1
475 580 m 2,60,61
 586 580 586 580 658.5 593.5 c 128,-1,62
 731 607 731 607 773.5 630 c 128,-1,63
 816 653 816 653 833 683 c 128,-1,64
 850 713 850 713 850 745 c 0,65,66
 850 773 850 773 839 798 c 128,-1,67
 828 823 828 823 804.5 842 c 128,-1,68
 781 861 781 861 745.5 872 c 128,-1,69
 710 883 710 883 662 883 c 0,70,71
 597 883 597 883 543.5 861.5 c 128,-1,72
 490 840 490 840 447 800.5 c 128,-1,73
 404 761 404 761 371 705 c 128,-1,74
 338 649 338 649 315 580 c 1,75,-1
 475 580 l 2,60,61
EndSplineSet
EndChar
StartChar: Hbar
Encoding: 294 294 64
Width: 1126
GlyphClass: 2
Flags: W
AnchorPoint: "Anchor-11" 0 1700 basechar 0
AnchorPoint: "Anchor-10" 1126 1700 basechar 0
AnchorPoint: "Anchor-9" 920 0 basechar 0
AnchorPoint: "Anchor-6" 1126 -350 basechar 0
AnchorPoint: "Anchor-5" 1126 1700 basechar 0
AnchorPoint: "Anchor-2" 563 -180 basechar 0
AnchorPoint: "Anchor-1" 1162 1397 basechar 0
AnchorPoint: "Anchor-0" 563 1397 basechar 0
LayerCount: 2
Back
Fore
SplineSet
1069 940 m 1,0,-1
 883 0 l 1,1,-1
 705 0 l 1,2,-1
 817 571 l 1,3,-1
 330 571 l 1,4,-1
 217 0 l 1,5,-1
 39 0 l 1,6,-1
 225 940 l 1,7,-1
 115 940 l 1,8,-1
 145 1090 l 1,9,-1
 256 1090 l 1,10,-1
 299 1307 l 1,11,-1
 477 1307 l 1,12,-1
 434 1090 l 1,13,-1
 922 1090 l 1,14,-1
 965 1307 l 1,15,-1
 1143 1307 l 1,16,-1
 1100 1090 l 1,17,-1
 1210 1090 l 1,18,-1
 1180 940 l 1,19,-1
 1069 940 l 1,0,-1
848 721 m 1,20,-1
 891 940 l 1,21,-1
 403 940 l 1,22,-1
 360 721 l 1,23,-1
 848 721 l 1,20,-1
EndSplineSet
EndChar
StartChar: hbar
Encoding: 295 295 193
Width: 1126
GlyphClass: 2
Flags: W
AnchorPoint: "Anchor-11" 0 1700 basechar 0
AnchorPoint: "Anchor-10" 1126 1700 basechar 0
AnchorPoint: "Anchor-9" 900 0 basechar 0
AnchorPoint: "Anchor-6" 1126 -350 basechar 0
AnchorPoint: "Anchor-5" 1126 1700 basechar 0
AnchorPoint: "Anchor-2" 563 -180 basechar 0
AnchorPoint: "Anchor-1" 967 1413 basechar 0
AnchorPoint: "Anchor-0" 563 1503 basechar 0
LayerCount: 2
Back
Fore
SplineSet
864 0 m 1,0,-1
 690 0 l 1,1,-1
 809 592 l 2,2,3
 833 709 833 709 804.5 766 c 128,-1,4
 776 823 776 823 697 823 c 0,5,6
 633 823 633 823 569.5 779.5 c 128,-1,7
 506 736 506 736 451 665 c 128,-1,8
 396 594 396 594 355.5 506 c 128,-1,9
 315 418 315 418 297 330 c 2,10,-1
 231 0 l 1,11,-1
 57 0 l 1,12,-1
 285 1139 l 1,13,-1
 125 1139 l 1,14,-1
 154 1280 l 1,15,-1
 313 1280 l 1,16,-1
 340 1413 l 1,17,-1
 514 1413 l 1,18,-1
 487 1280 l 1,19,-1
 803 1280 l 1,20,-1
 774 1139 l 1,21,-1
 459 1139 l 1,22,-1
 422 954 l 1,23,-1
 367 741 l 1,24,25
 395 793 395 793 434 836 c 128,-1,26
 473 879 473 879 519.5 909.5 c 128,-1,27
 566 940 566 940 619 956.5 c 128,-1,28
 672 973 672 973 729 973 c 0,29,30
 888 973 888 973 954 875 c 128,-1,31
 1020 777 1020 777 983 590 c 2,32,-1
 864 0 l 1,0,-1
0 1004 m 1024,33,-1
EndSplineSet
EndChar
StartChar: Iogonek
Encoding: 302 302 73
Width: 1126
GlyphClass: 2
Flags: W
AnchorPoint: "Anchor-11" 0 1700 basechar 0
AnchorPoint: "Anchor-10" 1126 1700 basechar 0
AnchorPoint: "Anchor-9" 890 -385 basechar 0
AnchorPoint: "Anchor-6" 1126 -350 basechar 0
AnchorPoint: "Anchor-5" 1126 1700 basechar 0
AnchorPoint: "Anchor-2" 563 -475 basechar 0
AnchorPoint: "Anchor-1" 1004 1390 basechar 0
AnchorPoint: "Anchor-0" 563 1430 basechar 0
LayerCount: 2
Back
Fore
SplineSet
842 -375 m 1,0,1
 817 -380 817 -380 785.5 -382.5 c 128,-1,2
 754 -385 754 -385 729 -385 c 0,3,4
 675 -385 675 -385 636.5 -373.5 c 128,-1,5
 598 -362 598 -362 573.5 -342.5 c 128,-1,6
 549 -323 549 -323 537 -297 c 128,-1,7
 525 -271 525 -271 525 -242 c 0,8,9
 525 -217 525 -217 531.5 -192 c 128,-1,10
 538 -167 538 -167 555.5 -138 c 128,-1,11
 573 -109 573 -109 604.5 -75.5 c 128,-1,12
 636 -42 636 -42 686 0 c 1,13,-1
 70 0 l 1,14,-1
 100 152 l 1,15,-1
 401 152 l 1,16,-1
 602 1157 l 1,17,-1
 301 1157 l 1,18,-1
 332 1307 l 1,19,-1
 1114 1307 l 1,20,-1
 1083 1157 l 1,21,-1
 782 1157 l 1,22,-1
 582 152 l 1,23,-1
 883 152 l 1,24,-1
 852 0 l 1,25,26
 802 -43 802 -43 771 -74.5 c 128,-1,27
 740 -106 740 -106 722.5 -130.5 c 128,-1,28
 705 -155 705 -155 699 -175 c 128,-1,29
 693 -195 693 -195 693 -215 c 256,30,31
 693 -235 693 -235 709.5 -250.5 c 128,-1,32
 726 -266 726 -266 772 -266 c 0,33,34
 786 -266 786 -266 805.5 -265 c 128,-1,35
 825 -264 825 -264 842 -262 c 1,36,-1
 842 -375 l 1,0,1
EndSplineSet
EndChar
StartChar: iogonek
Encoding: 303 303 201
Width: 1126
GlyphClass: 2
Flags: W
AnchorPoint: "Anchor-11" 0 1700 basechar 0
AnchorPoint: "Anchor-10" 1126 1700 basechar 0
AnchorPoint: "Anchor-9" 830 -385 basechar 0
AnchorPoint: "Anchor-6" 1126 -350 basechar 0
AnchorPoint: "Anchor-5" 1126 1700 basechar 0
AnchorPoint: "Anchor-2" 563 -475 basechar 0
AnchorPoint: "Anchor-1" 777 1500 basechar 0
AnchorPoint: "Anchor-0" 563 1500 basechar 0
LayerCount: 2
Back
Fore
SplineSet
785 -375 m 1,0,1
 761 -380 761 -380 729.5 -382.5 c 128,-1,2
 698 -385 698 -385 673 -385 c 0,3,4
 619 -385 619 -385 580 -373.5 c 128,-1,5
 541 -362 541 -362 516.5 -342.5 c 128,-1,6
 492 -323 492 -323 480 -297 c 128,-1,7
 468 -271 468 -271 468 -242 c 0,8,9
 468 -218 468 -218 474 -194 c 128,-1,10
 480 -170 480 -170 495.5 -143 c 128,-1,11
 511 -116 511 -116 538.5 -85 c 128,-1,12
 566 -54 566 -54 610 -16 c 1,13,14
 550 -11 550 -11 509.5 11.5 c 128,-1,15
 469 34 469 34 448 77.5 c 128,-1,16
 427 121 427 121 425.5 186.5 c 128,-1,17
 424 252 424 252 442 342 c 2,18,-1
 510 678 l 2,19,20
 522 735 522 735 521.5 773.5 c 128,-1,21
 521 812 521 812 511 835 c 128,-1,22
 501 858 501 858 481.5 867.5 c 128,-1,23
 462 877 462 877 436 877 c 0,24,25
 368 877 368 877 302 850.5 c 128,-1,26
 236 824 236 824 168 786 c 1,27,-1
 168 940 l 1,28,29
 237 978 237 978 313.5 1000 c 128,-1,30
 390 1022 390 1022 477 1022 c 0,31,32
 548 1022 548 1022 596 1002 c 128,-1,33
 644 982 644 982 669.5 938.5 c 128,-1,34
 695 895 695 895 698 827 c 128,-1,35
 701 759 701 759 682 662 c 2,36,-1
 614 326 l 2,37,38
 603 268 603 268 603 230 c 128,-1,39
 603 192 603 192 613.5 169 c 128,-1,40
 624 146 624 146 643 136.5 c 128,-1,41
 662 127 662 127 688 127 c 0,42,43
 756 127 756 127 822 153.5 c 128,-1,44
 888 180 888 180 956 217 c 1,45,-1
 956 63 l 1,46,47
 918 42 918 42 878 26 c 128,-1,48
 838 10 838 10 795 0 c 1,49,50
 745 -43 745 -43 714 -74.5 c 128,-1,51
 683 -106 683 -106 666 -130.5 c 128,-1,52
 649 -155 649 -155 642.5 -175 c 128,-1,53
 636 -195 636 -195 636 -215 c 256,54,55
 636 -235 636 -235 652.5 -250.5 c 128,-1,56
 669 -266 669 -266 716 -266 c 0,57,58
 730 -266 730 -266 749 -265 c 128,-1,59
 768 -264 768 -264 785 -262 c 1,60,-1
 785 -375 l 1,0,1
543 1282 m 0,61,62
 543 1313 543 1313 554 1339 c 128,-1,63
 565 1365 565 1365 584.5 1384 c 128,-1,64
 604 1403 604 1403 630 1414 c 128,-1,65
 656 1425 656 1425 686 1425 c 0,66,67
 715 1425 715 1425 739 1414.5 c 128,-1,68
 763 1404 763 1404 780.5 1386.5 c 128,-1,69
 798 1369 798 1369 807.5 1345 c 128,-1,70
 817 1321 817 1321 817 1294 c 0,71,72
 817 1263 817 1263 806 1237 c 128,-1,73
 795 1211 795 1211 775.5 1192 c 128,-1,74
 756 1173 756 1173 730 1162 c 128,-1,75
 704 1151 704 1151 674 1151 c 0,76,77
 645 1151 645 1151 620.5 1161.5 c 128,-1,78
 596 1172 596 1172 579 1189.5 c 128,-1,79
 562 1207 562 1207 552.5 1231 c 128,-1,80
 543 1255 543 1255 543 1282 c 0,61,62
EndSplineSet
Substitution2: "'ss05' Style Set 5 lookup 30 subtable" iogonek.ss05
Substitution2: "'ss04' Style Set 4 lookup 29 subtable" iogonek.ss04
AlternateSubs2: "'salt' Stylistic Alternatives lookup 23 subtable" iogonek.ss05 iogonek.ss04
Substitution2: "Single Substitution lookup 15 subtable" glyph935
EndChar
StartChar: IJ
Encoding: 306 306 74
Width: 1126
GlyphClass: 2
Flags: W
AnchorPoint: "Anchor-11" 0 1700 basechar 0
AnchorPoint: "Anchor-10" 1126 1700 basechar 0
AnchorPoint: "Anchor-9" 730 0 basechar 0
AnchorPoint: "Anchor-6" 1126 -350 basechar 0
AnchorPoint: "Anchor-5" 1126 1700 basechar 0
AnchorPoint: "Anchor-2" 563 -180 basechar 0
AnchorPoint: "Anchor-1" 1082 1397 basechar 0
AnchorPoint: "Anchor-0" 563 1397 basechar 0
LayerCount: 2
Back
Fore
SplineSet
428 168 m 1,0,1
 457 152 457 152 491 143.5 c 128,-1,2
 525 135 525 135 563 135 c 0,3,4
 609 135 609 135 648.5 148.5 c 128,-1,5
 688 162 688 162 720 191.5 c 128,-1,6
 752 221 752 221 775 267.5 c 128,-1,7
 798 314 798 314 811 379 c 2,8,-1
 995 1307 l 1,9,-1
 1174 1307 l 1,10,-1
 983 354 l 2,11,12
 949 180 949 180 842 84 c 128,-1,13
 735 -12 735 -12 563 -12 c 0,14,15
 497 -12 497 -12 446.5 -1.5 c 128,-1,16
 396 9 396 9 352 31 c 1,17,-1
 428 168 l 1,0,1
186 0 m 1,18,-1
 8 0 l 1,19,-1
 268 1307 l 1,20,-1
 446 1307 l 1,21,-1
 186 0 l 1,18,-1
EndSplineSet
EndChar
StartChar: ij
Encoding: 307 307 203
Width: 1126
GlyphClass: 2
Flags: W
AnchorPoint: "Anchor-11" 0 1700 basechar 0
AnchorPoint: "Anchor-10" 1126 1700 basechar 0
AnchorPoint: "Anchor-9" 710 -350 basechar 0
AnchorPoint: "Anchor-6" 1126 -350 basechar 0
AnchorPoint: "Anchor-5" 1126 1700 basechar 0
AnchorPoint: "Anchor-2" 563 -550 basechar 0
AnchorPoint: "Anchor-1" 1086 1513 basechar 0
AnchorPoint: "Anchor-0" 563 1500 basechar 0
LayerCount: 2
Back
Fore
SplineSet
223 -211 m 1,0,1
 260 -237 260 -237 306 -253.5 c 128,-1,2
 352 -270 352 -270 401 -270 c 0,3,4
 509 -270 509 -270 587 -197.5 c 128,-1,5
 665 -125 665 -125 694 23 c 2,6,-1
 891 1004 l 1,7,-1
 1065 1004 l 1,8,-1
 864 8 l 2,9,10
 843 -100 843 -100 800.5 -180.5 c 128,-1,11
 758 -261 758 -261 698 -314.5 c 128,-1,12
 638 -368 638 -368 561.5 -394 c 128,-1,13
 485 -420 485 -420 395 -420 c 0,14,15
 312 -420 312 -420 252 -401 c 128,-1,16
 192 -382 192 -382 139 -348 c 1,17,-1
 223 -211 l 1,0,1
432 1004 m 1,18,-1
 231 0 l 1,19,-1
 57 0 l 1,20,-1
 258 1004 l 1,21,-1
 432 1004 l 1,18,-1
261 1282 m 0,22,23
 261 1313 261 1313 272 1339 c 128,-1,24
 283 1365 283 1365 302 1384 c 128,-1,25
 321 1403 321 1403 347 1414 c 128,-1,26
 373 1425 373 1425 403 1425 c 0,27,28
 432 1425 432 1425 456.5 1414.5 c 128,-1,29
 481 1404 481 1404 498.5 1386.5 c 128,-1,30
 516 1369 516 1369 525.5 1345 c 128,-1,31
 535 1321 535 1321 535 1294 c 0,32,33
 535 1263 535 1263 523.5 1237 c 128,-1,34
 512 1211 512 1211 492.5 1192 c 128,-1,35
 473 1173 473 1173 447 1162 c 128,-1,36
 421 1151 421 1151 391 1151 c 0,37,38
 362 1151 362 1151 337.5 1161.5 c 128,-1,39
 313 1172 313 1172 296.5 1189.5 c 128,-1,40
 280 1207 280 1207 270.5 1231 c 128,-1,41
 261 1255 261 1255 261 1282 c 0,22,23
893 1282 m 0,42,43
 893 1313 893 1313 904 1339 c 128,-1,44
 915 1365 915 1365 934.5 1384 c 128,-1,45
 954 1403 954 1403 980 1414 c 128,-1,46
 1006 1425 1006 1425 1036 1425 c 0,47,48
 1065 1425 1065 1425 1089 1414.5 c 128,-1,49
 1113 1404 1113 1404 1130.5 1386.5 c 128,-1,50
 1148 1369 1148 1369 1157.5 1345 c 128,-1,51
 1167 1321 1167 1321 1167 1294 c 0,52,53
 1167 1263 1167 1263 1156 1237 c 128,-1,54
 1145 1211 1145 1211 1125.5 1192 c 128,-1,55
 1106 1173 1106 1173 1080 1162 c 128,-1,56
 1054 1151 1054 1151 1024 1151 c 0,57,58
 995 1151 995 1151 970.5 1161.5 c 128,-1,59
 946 1172 946 1172 929 1189.5 c 128,-1,60
 912 1207 912 1207 902.5 1231 c 128,-1,61
 893 1255 893 1255 893 1282 c 0,42,43
EndSplineSet
EndChar
StartChar: Lslash
Encoding: 321 321 80
Width: 1126
GlyphClass: 2
Flags: W
AnchorPoint: "Anchor-11" 0 1700 basechar 0
AnchorPoint: "Anchor-10" 1126 1700 basechar 0
AnchorPoint: "Anchor-9" 920 0 basechar 0
AnchorPoint: "Anchor-6" 1126 -350 basechar 0
AnchorPoint: "Anchor-5" 1126 1700 basechar 0
AnchorPoint: "Anchor-2" 583 -180 basechar 0
AnchorPoint: "Anchor-1" 985 1390 basechar 0
AnchorPoint: "Anchor-0" 583 1430 basechar 0
LayerCount: 2
Back
Fore
SplineSet
361 152 m 1,0,-1
 913 152 l 1,1,-1
 883 0 l 1,2,-1
 152 0 l 1,3,-1
 272 602 l 1,4,-1
 57 502 l 1,5,-1
 57 649 l 1,6,-1
 305 764 l 1,7,-1
 414 1307 l 1,8,-1
 592 1307 l 1,9,-1
 502 854 l 1,10,-1
 881 1028 l 1,11,-1
 881 881 l 1,12,-1
 469 692 l 1,13,-1
 361 152 l 1,0,-1
EndSplineSet
EndChar
StartChar: lslash
Encoding: 322 322 211
Width: 1126
GlyphClass: 2
Flags: W
AnchorPoint: "Anchor-11" 0 1700 basechar 0
AnchorPoint: "Anchor-10" 1126 1700 basechar 0
AnchorPoint: "Anchor-9" 950 60 basechar 0
AnchorPoint: "Anchor-6" 1126 -350 basechar 0
AnchorPoint: "Anchor-5" 1126 1700 basechar 0
AnchorPoint: "Anchor-2" 563 -180 basechar 0
AnchorPoint: "Anchor-1" 773 1500 basechar 0
AnchorPoint: "Anchor-0" 563 1500 basechar 0
LayerCount: 2
Back
Fore
SplineSet
78 672 m 1,0,-1
 344 793 l 1,1,-1
 469 1413 l 1,2,-1
 647 1413 l 1,3,-1
 541 885 l 1,4,-1
 903 1051 l 1,5,-1
 903 903 l 1,6,-1
 508 723 l 1,7,-1
 451 430 l 2,8,9
 433 341 433 341 428.5 284 c 128,-1,10
 424 227 424 227 435 194 c 128,-1,11
 446 161 446 161 472.5 148 c 128,-1,12
 499 135 499 135 543 135 c 0,13,14
 617 135 617 135 707.5 156 c 128,-1,15
 798 177 798 177 909 223 c 1,16,-1
 909 68 l 1,17,18
 813 29 813 29 717.5 7.5 c 128,-1,19
 622 -14 622 -14 522 -14 c 0,20,21
 428 -14 428 -14 368 9 c 128,-1,22
 308 32 308 32 278 84.5 c 128,-1,23
 248 137 248 137 247 222 c 128,-1,24
 246 307 246 307 270 430 c 2,25,-1
 311 631 l 1,26,-1
 78 524 l 1,27,-1
 78 672 l 1,0,-1
EndSplineSet
AlternateSubs2: "'ss06' Style Set 6 lookup 31 subtable" glyph300
Substitution2: "'ss04' Style Set 4 lookup 29 subtable" lslash.ss04
AlternateSubs2: "'salt' Stylistic Alternatives lookup 23 subtable" lslash.ss04 glyph300
EndChar
StartChar: Eng
Encoding: 330 330 86
Width: 1126
GlyphClass: 2
Flags: W
AnchorPoint: "Anchor-11" 0 1700 basechar 0
AnchorPoint: "Anchor-10" 1126 1700 basechar 0
AnchorPoint: "Anchor-9" 750 -350 basechar 0
AnchorPoint: "Anchor-6" 1126 -350 basechar 0
AnchorPoint: "Anchor-5" 1126 1700 basechar 0
AnchorPoint: "Anchor-2" 563 -510 basechar 0
AnchorPoint: "Anchor-1" 1058 1390 basechar 0
AnchorPoint: "Anchor-0" 563 1430 basechar 0
LayerCount: 2
Back
Fore
SplineSet
473 821 m 1,0,-1
 397 1077 l 1,1,-1
 182 0 l 1,2,-1
 16 0 l 1,3,-1
 276 1307 l 1,4,-1
 494 1307 l 1,5,-1
 741 555 l 1,6,-1
 807 336 l 1,7,-1
 999 1307 l 1,8,-1
 1165 1307 l 1,9,-1
 905 8 l 2,10,11
 863 -203 863 -203 737.5 -311.5 c 128,-1,12
 612 -420 612 -420 416 -420 c 1,13,-1
 449 -270 l 1,14,15
 557 -270 557 -270 630.5 -199 c 128,-1,16
 704 -128 704 -128 733 12 c 1,17,-1
 473 821 l 1,0,-1
EndSplineSet
Substitution2: "'ss03' Style Set 3 lookup 28 subtable" Eng.ss03
Substitution2: "'ss02' Style Set 2 lookup 26 subtable" Eng.ss02
Substitution2: "'ss01' Style Set 1 lookup 24 subtable" Eng.ss01
EndChar
StartChar: eng
Encoding: 331 331 218
Width: 1126
GlyphClass: 2
Flags: W
AnchorPoint: "Anchor-11" 0 1700 basechar 0
AnchorPoint: "Anchor-10" 1126 1700 basechar 0
AnchorPoint: "Anchor-9" 710 -350 basechar 0
AnchorPoint: "Anchor-6" 1126 -350 basechar 0
AnchorPoint: "Anchor-5" 1126 1700 basechar 0
AnchorPoint: "Anchor-2" 563 -510 basechar 0
AnchorPoint: "Anchor-1" 1017 1160 basechar 0
AnchorPoint: "Anchor-0" 563 1200 basechar 0
LayerCount: 2
Back
Fore
SplineSet
864 8 m 2,0,1
 820 -207 820 -207 693.5 -313.5 c 128,-1,2
 567 -420 567 -420 375 -420 c 1,3,-1
 408 -270 l 1,4,5
 516 -270 516 -270 591 -194 c 128,-1,6
 666 -118 666 -118 694 23 c 2,7,-1
 819 641 l 2,8,9
 844 763 844 763 815.5 817.5 c 128,-1,10
 787 872 787 872 707 872 c 0,11,12
 643 872 643 872 579.5 828 c 128,-1,13
 516 784 516 784 461 713.5 c 128,-1,14
 406 643 406 643 365.5 555 c 128,-1,15
 325 467 325 467 307 379 c 2,16,-1
 231 0 l 1,17,-1
 57 0 l 1,18,-1
 166 543 l 2,19,20
 170 562 170 562 174.5 593 c 128,-1,21
 179 624 179 624 185 676.5 c 128,-1,22
 191 729 191 729 200 808.5 c 128,-1,23
 209 888 209 888 221 1004 c 1,24,-1
 385 1004 l 1,25,-1
 360 772 l 1,26,27
 430 893 430 893 527.5 957.5 c 128,-1,28
 625 1022 625 1022 739 1022 c 0,29,30
 898 1022 898 1022 964.5 926 c 128,-1,31
 1031 830 1031 830 993 643 c 2,32,-1
 864 8 l 2,0,1
EndSplineSet
EndChar
